{"glyphs":{"0":{"ha":906,"x_min":85,"x_max":821,"o":"m 821 868 l 821 -94 q 813 -112 821 -102 q 793 -122 806 -122 l 656 -122 q 174 -122 415 -122 l 113 -122 q 93 -112 100 -122 q 85 -94 85 -102 l 85 868 q 93 887 85 877 q 113 897 100 897 l 245 897 q 501 897 335 897 q 732 897 667 897 l 793 897 q 813 887 806 897 q 821 868 821 877 m 600 98 l 600 676 l 306 676 l 306 98 l 600 98 z "},"1":{"ha":499,"x_min":85,"x_max":414,"o":"m 414 868 l 414 -94 q 406 -112 414 -102 q 386 -122 399 -122 l 221 -122 q 200 -112 208 -122 q 193 -94 193 -102 l 193 676 l 114 676 q 95 684 105 676 q 85 704 85 691 l 85 869 q 95 889 85 882 q 114 897 105 897 l 325 897 l 386 897 q 406 887 399 897 q 414 868 414 877 z "},"2":{"ha":906,"x_min":85,"x_max":821,"o":"m 306 98 l 713 98 l 793 98 q 811 91 802 98 q 821 71 821 84 l 821 -94 q 811 -115 821 -107 q 793 -122 802 -122 l 732 -122 l 250 -122 l 113 -122 q 93 -112 100 -122 q 85 -94 85 -102 l 85 176 q 103 203 90 193 l 600 553 l 600 680 l 309 680 l 309 562 q 301 543 309 553 q 281 533 294 533 l 116 533 q 95 543 102 533 q 88 562 88 553 l 88 872 q 98 892 88 885 q 117 900 108 900 l 732 900 l 793 900 q 813 890 806 900 q 821 871 821 880 l 821 505 q 818 484 821 498 q 810 465 814 469 l 306 109 l 306 98 z "},"3":{"ha":906,"x_min":85,"x_max":821,"o":"m 488 512 l 600 512 l 600 676 l 306 676 l 306 555 q 298 537 306 547 q 278 527 291 527 l 113 527 q 93 537 100 527 q 85 555 85 547 l 85 676 l 85 866 l 85 868 q 93 887 85 877 q 113 897 100 897 l 245 897 l 732 897 l 793 897 q 813 887 806 897 q 821 868 821 877 l 821 471 q 797 436 821 463 q 759 409 772 410 q 797 386 773 409 q 821 349 821 362 l 821 -94 q 813 -112 821 -102 q 793 -122 806 -122 l 656 -122 l 174 -122 l 113 -122 q 93 -112 100 -122 q 85 -94 85 -102 l 85 212 q 93 230 85 220 q 113 240 100 240 l 278 240 q 298 230 291 240 q 306 212 306 220 l 306 98 l 600 98 l 600 292 l 345 292 q 327 299 336 292 q 317 319 317 307 l 317 484 q 327 505 317 498 q 345 512 336 512 l 488 512 z "},"4":{"ha":864,"x_min":7,"x_max":835,"o":"m 803 266 q 824 258 812 266 q 835 237 835 250 l 835 97 q 824 76 835 83 q 803 68 812 68 l 720 68 l 720 -94 q 712 -112 720 -102 q 692 -122 705 -122 l 527 -122 q 506 -112 513 -122 q 499 -94 499 -102 l 499 68 l 28 68 q 11 79 14 68 q 13 96 8 90 l 351 868 q 367 887 355 877 q 391 897 378 897 l 420 897 l 631 897 l 692 897 q 712 887 705 897 q 720 868 720 877 l 720 266 l 803 266 m 499 266 l 499 676 l 493 676 l 313 266 l 499 266 z "},"5":{"ha":906,"x_min":85,"x_max":821,"o":"m 306 676 l 306 549 l 521 549 l 732 549 l 793 549 q 813 539 806 549 q 821 521 821 530 l 821 -94 q 813 -112 821 -102 q 793 -122 806 -122 l 732 -122 l 117 -122 q 98 -115 108 -122 q 88 -94 88 -107 l 88 216 q 95 235 88 225 q 116 245 102 245 l 281 245 q 301 235 294 245 q 309 216 309 225 l 309 98 l 600 98 l 600 329 l 174 329 l 113 329 q 93 339 100 329 q 85 357 85 349 l 85 868 q 93 887 85 877 q 113 897 100 897 l 250 897 l 732 897 l 793 897 q 811 889 802 897 q 821 869 821 882 l 821 704 q 811 683 821 690 q 793 676 802 676 l 713 676 l 306 676 z "},"6":{"ha":906,"x_min":85,"x_max":821,"o":"m 85 868 q 93 887 85 877 q 113 897 100 897 l 174 897 l 789 897 q 808 889 798 897 q 818 869 818 882 l 818 623 q 810 604 818 614 q 790 594 803 594 l 625 594 q 605 604 612 594 q 597 623 597 614 l 597 676 l 306 676 l 306 520 l 732 520 l 793 520 q 813 510 806 520 q 821 492 821 500 l 821 -94 q 813 -112 821 -102 q 793 -122 806 -122 l 656 -122 l 174 -122 l 113 -122 q 93 -112 100 -122 q 85 -94 85 -102 l 85 868 m 600 98 l 600 300 l 306 300 l 306 98 l 600 98 z "},"7":{"ha":829,"x_min":31,"x_max":821,"o":"m 437 -122 q 216 -122 437 -122 q 199 -112 203 -122 q 198 -94 195 -102 q 335 291 253 62 q 473 676 418 520 l 59 676 q 40 684 50 676 q 31 704 31 691 l 31 869 q 40 889 31 882 q 59 897 50 897 l 473 897 l 800 897 q 817 887 813 897 q 818 868 821 877 l 475 -94 q 461 -112 472 -102 q 437 -122 450 -122 z "},"8":{"ha":906,"x_min":85,"x_max":821,"o":"m 600 515 l 600 676 l 306 676 l 306 515 l 600 515 m 821 868 l 821 474 q 797 439 821 466 q 759 412 772 412 q 797 388 773 412 q 821 352 821 365 l 821 -94 q 813 -112 821 -102 q 793 -122 806 -122 l 656 -122 q 174 -122 415 -122 l 113 -122 q 93 -112 100 -122 q 85 -94 85 -102 l 85 349 q 110 385 85 357 q 147 412 134 412 q 110 439 134 412 q 85 474 85 466 l 85 868 q 93 887 85 877 q 113 897 100 897 l 245 897 l 732 897 l 793 897 q 813 887 806 897 q 821 868 821 877 m 600 98 l 600 294 l 306 294 l 306 98 l 600 98 z "},"9":{"ha":906,"x_min":85,"x_max":821,"o":"m 821 -94 q 813 -112 821 -102 q 793 -122 806 -122 l 732 -122 l 117 -122 q 98 -115 108 -122 q 88 -94 88 -107 l 88 176 q 95 194 88 184 q 116 204 102 204 l 281 204 q 301 194 294 204 q 309 176 309 184 l 309 98 l 600 98 l 600 288 l 174 288 l 113 288 q 93 297 100 288 q 85 316 85 307 l 85 868 q 93 887 85 877 q 113 897 100 897 l 250 897 l 732 897 l 793 897 q 813 887 806 897 q 821 868 821 877 l 821 -94 m 306 676 l 306 508 l 600 508 l 600 676 l 306 676 z "}," ":{"ha":678,"x_min":0,"x_max":0,"o":""},"!":{"ha":606,"x_min":193,"x_max":414,"o":"m 386 113 q 406 103 399 113 q 414 85 414 94 l 414 -94 q 406 -112 414 -102 q 386 -122 399 -122 l 221 -122 q 201 -112 208 -122 q 193 -94 193 -102 l 193 85 q 201 103 193 94 q 221 113 208 113 l 386 113 m 414 966 l 414 245 q 407 227 414 237 q 386 217 399 217 l 221 217 q 200 227 208 217 q 193 245 193 237 l 193 966 q 201 985 193 975 q 222 995 208 995 l 386 995 q 406 985 399 995 q 414 966 414 975 z "},"\"":{"ha":541,"x_min":3,"x_max":532,"o":"m 409 1063 q 512 1063 409 1063 q 529 1052 526 1063 q 527 1035 532 1042 l 404 755 q 389 736 400 746 q 364 727 377 727 l 261 727 q 244 738 248 727 q 245 755 241 748 l 369 1035 q 385 1053 373 1044 q 409 1063 396 1063 m 172 1063 l 275 1063 q 291 1052 288 1063 q 290 1035 294 1042 l 167 755 q 151 736 163 746 q 127 727 140 727 l 24 727 q 7 738 10 727 q 8 755 4 748 l 132 1035 q 147 1053 136 1044 q 172 1063 159 1063 z "},"#":{"ha":965,"x_min":136,"x_max":834,"o":"m 802 703 q 823 695 812 703 q 834 674 834 688 l 834 534 q 823 513 834 521 q 802 505 812 505 l 747 505 l 747 296 l 802 296 q 823 289 812 296 q 834 267 834 281 l 834 127 q 823 106 834 114 q 802 98 812 98 l 747 98 l 747 -94 q 740 -112 747 -102 q 719 -122 732 -122 l 554 -122 q 534 -112 541 -122 q 526 -94 526 -102 l 526 98 l 441 98 l 441 -94 q 434 -112 441 -102 q 414 -122 427 -122 l 249 -122 q 229 -112 236 -122 q 221 -94 221 -102 l 221 98 l 166 98 q 146 106 157 98 q 136 127 136 113 l 136 267 q 146 289 136 281 q 166 296 157 296 l 221 296 l 221 505 l 166 505 q 146 513 157 505 q 136 534 136 520 l 136 674 q 146 696 136 688 q 166 703 157 703 l 221 703 l 221 868 q 229 887 221 877 q 250 897 237 897 l 414 897 q 434 887 427 897 q 441 868 441 877 l 441 703 l 526 703 l 526 868 q 534 887 526 877 q 555 897 542 897 l 719 897 q 740 887 732 897 q 747 868 747 877 l 747 703 l 802 703 m 441 296 l 526 296 l 526 505 l 441 505 l 441 296 z "},"$":{"ha":906,"x_min":85,"x_max":821,"o":"m 340 642 l 306 642 l 306 565 q 307 565 0 0 l 307 565 l 308 565 l 309 565 l 309 565 l 310 565 l 311 565 l 311 565 l 312 565 l 313 565 l 313 565 l 314 565 l 315 565 l 315 565 l 316 565 l 317 565 l 317 565 l 318 565 l 319 565 l 319 565 l 320 565 l 321 565 l 321 565 l 322 565 l 323 565 l 323 565 l 324 565 l 325 565 l 326 565 l 326 565 l 327 565 l 328 565 l 328 565 l 329 565 l 330 565 l 330 565 l 331 565 l 332 565 l 332 565 l 333 565 l 334 565 l 340 565 l 340 642 m 340 1 l 117 1 q 98 9 108 1 q 88 29 88 16 l 88 272 q 95 291 88 281 q 116 300 102 300 l 281 300 q 301 291 294 300 q 309 272 309 281 l 309 222 l 340 222 l 340 345 l 174 345 l 113 345 q 93 354 100 345 q 85 373 85 364 l 85 834 q 93 853 85 843 q 113 863 100 863 l 250 863 l 340 863 l 340 1004 q 348 1022 340 1013 q 369 1032 355 1032 l 533 1032 q 553 1022 546 1032 q 561 1004 561 1013 l 561 863 l 658 863 l 661 863 l 793 863 q 813 853 806 863 q 821 834 821 843 l 821 623 q 813 605 821 614 q 793 595 806 595 l 628 595 q 607 605 614 595 q 600 623 600 614 l 600 642 l 561 642 l 561 565 l 732 565 l 793 565 q 813 555 806 565 q 821 536 821 545 l 821 30 q 813 11 821 21 q 793 1 806 1 l 732 1 l 561 1 l 561 -124 q 553 -143 561 -133 q 533 -153 546 -153 l 368 -153 q 348 -143 355 -153 q 340 -124 340 -133 l 340 1 m 561 222 l 600 222 l 600 345 q 581 345 593 345 q 561 345 568 345 l 561 222 z "},"%":{"ha":1248,"x_min":77,"x_max":1167,"o":"m 388 709 l 388 842 l 297 842 l 297 709 l 388 709 m 947 98 l 947 232 l 856 232 l 856 98 l 947 98 m 1167 424 l 1167 -94 q 1160 -112 1167 -102 q 1139 -122 1152 -122 l 1003 -122 l 724 -122 l 663 -122 q 643 -112 650 -122 q 635 -94 635 -102 l 635 216 q 500 -94 568 62 q 484 -112 496 -102 q 460 -122 473 -122 l 289 -122 q 272 -111 275 -122 q 274 -94 269 -100 q 528 488 401 197 l 444 488 l 165 488 l 104 488 q 84 498 91 488 q 77 517 77 508 l 77 1034 q 84 1053 77 1043 q 104 1063 91 1063 l 236 1063 l 519 1063 l 581 1063 q 601 1053 593 1063 q 608 1034 608 1043 l 608 672 q 766 1034 687 852 q 782 1053 770 1043 q 806 1062 793 1062 l 977 1062 q 994 1051 991 1062 q 992 1034 997 1040 q 739 452 865 743 l 795 452 l 1078 452 l 1139 452 q 1160 443 1152 452 q 1167 424 1167 433 z "},"&":{"ha":989,"x_min":85,"x_max":974,"o":"m 567 277 l 306 277 l 306 98 l 567 98 l 610 188 l 567 277 m 663 -122 l 250 -122 l 113 -122 q 93 -112 100 -122 q 85 -94 85 -102 l 85 335 q 109 371 85 348 q 147 395 133 395 q 110 422 134 395 q 85 457 85 449 l 85 868 q 93 887 85 877 q 113 897 100 897 l 174 897 l 633 897 l 765 897 q 785 887 778 897 q 793 868 793 877 l 792 606 q 697 477 792 595 q 703 469 701 473 l 722 427 l 743 469 q 758 488 747 479 q 783 498 770 498 l 954 498 q 970 487 967 498 q 968 469 973 476 l 836 188 l 968 -94 q 970 -111 973 -100 q 954 -122 967 -122 l 783 -122 q 758 -112 769 -122 q 743 -94 747 -102 l 722 -52 l 703 -94 q 687 -112 699 -102 q 663 -122 675 -122 m 572 605 l 572 676 l 306 676 l 306 498 l 418 498 q 482 498 447 498 l 572 605 z "},"'":{"ha":370,"x_min":3,"x_max":363,"o":"m 172 1063 q 342 1063 172 1063 q 359 1052 356 1063 q 357 1035 362 1042 l 235 755 q 219 736 231 746 q 195 727 208 727 l 24 727 q 7 738 10 727 q 8 755 4 748 l 132 1035 q 147 1053 136 1044 q 172 1063 159 1063 z "},"(":{"ha":454,"x_min":87,"x_max":448,"o":"m 252 1063 q 423 1063 252 1063 q 440 1052 437 1063 q 438 1035 443 1042 l 315 755 l 315 137 l 443 -153 q 445 -170 448 -159 q 428 -180 441 -180 l 257 -180 q 233 -171 244 -180 q 217 -153 221 -161 l 94 127 q 93 139 93 129 l 90 707 q 89 755 87 752 l 212 1035 q 228 1053 216 1044 q 252 1063 239 1063 z "},")":{"ha":454,"x_min":3,"x_max":364,"o":"m 199 1063 q 224 1053 212 1063 q 239 1035 235 1044 l 362 755 q 362 707 363 752 l 358 139 q 357 127 358 129 l 235 -153 q 219 -171 231 -161 q 195 -180 208 -180 l 24 -180 q 7 -170 10 -180 q 8 -153 4 -159 l 136 137 l 136 755 l 13 1035 q 12 1052 9 1042 q 28 1063 15 1063 l 199 1063 z "},"*":{"ha":650,"x_min":56,"x_max":591,"o":"m 507 921 q 519 925 512 924 q 536 923 527 926 q 549 911 545 920 l 585 849 q 588 831 591 840 q 582 817 586 823 q 572 808 577 811 l 454 740 l 574 671 q 583 662 578 668 q 588 648 587 656 q 585 631 590 640 l 549 568 q 535 557 544 560 q 520 554 527 553 q 509 558 513 555 l 389 627 l 389 489 q 381 469 389 479 q 360 459 374 459 l 288 459 q 267 469 274 459 q 259 489 259 479 l 259 627 l 139 558 q 127 554 134 555 q 112 557 120 553 q 98 568 103 560 l 62 631 q 59 648 57 640 q 65 662 61 656 q 74 671 69 668 l 194 740 l 75 808 q 66 817 71 811 q 59 832 61 823 q 62 850 57 841 l 98 912 q 112 923 103 920 q 128 925 121 926 q 140 921 136 924 l 259 852 l 259 989 q 267 1010 259 999 q 288 1021 274 1021 l 360 1021 q 381 1010 374 1021 q 389 989 389 999 l 389 852 l 507 921 z "},"+":{"ha":829,"x_min":136,"x_max":699,"o":"m 667 500 q 687 492 676 500 q 699 471 699 484 l 699 331 q 687 310 699 317 q 667 302 676 302 l 517 302 l 517 152 q 509 131 517 142 q 487 119 501 119 l 347 119 q 326 131 334 119 q 319 152 319 142 l 319 302 l 166 302 q 146 309 157 302 q 136 331 136 317 l 136 471 q 146 492 136 485 q 166 500 157 500 l 319 500 l 319 652 q 326 672 319 661 q 347 682 334 682 l 487 682 q 509 672 501 682 q 517 652 517 661 l 517 500 l 667 500 z "},",":{"ha":416,"x_min":3,"x_max":363,"o":"m 172 155 l 342 155 q 359 145 356 155 q 357 127 362 134 l 235 -153 q 219 -171 231 -161 q 195 -180 208 -180 l 24 -180 q 7 -170 10 -180 q 8 -153 4 -159 l 132 127 q 147 146 136 136 q 172 155 159 155 z "},"-":{"ha":829,"x_min":136,"x_max":699,"o":"m 667 500 q 687 492 676 500 q 699 471 699 484 l 699 331 q 687 310 699 317 q 667 302 676 302 l 166 302 q 146 309 157 302 q 136 331 136 317 l 136 471 q 146 492 136 485 q 166 500 157 500 l 667 500 z "},".":{"ha":407,"x_min":100,"x_max":321,"o":"m 294 113 q 314 103 307 113 q 321 85 321 94 l 321 -94 q 314 -112 321 -102 q 294 -122 307 -122 l 129 -122 q 109 -112 116 -122 q 101 -94 101 -102 l 101 85 q 109 103 101 94 q 129 113 116 113 l 294 113 z "},"/":{"ha":747,"x_min":6,"x_max":735,"o":"m 730 1034 q 237 -94 484 470 q 222 -112 233 -102 q 197 -122 210 -122 l 26 -122 q 10 -111 13 -122 q 12 -94 7 -100 q 504 1034 258 470 q 519 1053 508 1043 q 544 1062 531 1062 l 715 1062 q 731 1051 728 1062 q 730 1034 734 1040 z "},":":{"ha":407,"x_min":100,"x_max":321,"o":"m 294 761 q 314 751 307 761 q 321 732 321 741 l 321 554 q 314 535 321 545 q 294 526 307 526 l 129 526 q 109 535 116 526 q 101 554 101 545 l 101 732 q 109 751 101 741 q 129 761 116 761 l 294 761 m 294 113 q 314 103 307 113 q 321 85 321 94 l 321 -94 q 314 -112 321 -102 q 294 -122 307 -122 l 129 -122 q 109 -112 116 -122 q 101 -94 101 -102 l 101 85 q 109 103 101 94 q 129 113 116 113 l 294 113 z "},";":{"ha":407,"x_min":3,"x_max":363,"o":"m 172 155 q 342 155 172 155 q 359 145 356 155 q 357 127 362 134 l 235 -153 q 219 -171 231 -161 q 195 -180 208 -180 l 24 -180 q 7 -170 10 -180 q 8 -153 4 -159 l 132 127 q 147 146 136 136 q 172 155 159 155 m 294 761 q 314 751 307 761 q 321 732 321 741 l 321 554 q 314 535 321 545 q 294 526 307 526 l 129 526 q 109 535 116 526 q 101 554 101 545 l 101 732 q 109 751 101 741 q 129 761 116 761 l 294 761 z "},"<":{"ha":688,"x_min":78,"x_max":625,"o":"m 336 420 l 596 307 q 615 291 605 302 q 625 267 625 279 l 625 96 q 614 79 625 82 q 596 80 603 75 l 106 295 q 88 310 98 299 q 78 334 78 321 q 78 335 78 334 l 78 506 q 88 530 78 519 q 106 546 98 542 l 596 760 q 614 762 603 765 q 625 745 625 759 l 625 574 q 615 550 625 562 q 596 534 605 538 l 336 420 z "},"=":{"ha":829,"x_min":136,"x_max":699,"o":"m 667 364 q 687 356 676 364 q 699 335 699 349 l 699 195 q 687 174 699 182 q 667 166 676 166 l 166 166 q 146 174 157 166 q 136 195 136 181 l 136 335 q 146 357 136 349 q 166 364 157 364 l 667 364 m 667 635 q 687 628 676 635 q 699 606 699 620 l 699 467 q 687 445 699 453 q 667 437 676 437 l 166 437 q 146 445 157 437 q 136 467 136 452 l 136 606 q 146 628 136 621 q 166 635 157 635 l 667 635 z "},">":{"ha":688,"x_min":78,"x_max":625,"o":"m 366 420 l 106 534 q 88 550 98 538 q 78 574 78 562 l 78 745 q 89 762 78 759 q 106 760 100 765 l 596 546 q 615 530 605 542 q 625 506 625 519 l 625 335 q 625 334 625 334 q 614 310 624 321 q 596 295 605 299 l 106 80 q 89 79 100 75 q 78 96 78 82 l 78 267 q 88 291 78 279 q 106 307 98 302 l 366 420 z "},"?":{"ha":906,"x_min":85,"x_max":821,"o":"m 540 113 q 560 103 553 113 q 568 85 568 94 l 568 -94 q 560 -112 568 -102 q 540 -122 553 -122 l 375 -122 q 355 -112 362 -122 q 347 -94 347 -102 l 347 85 q 355 103 347 94 q 375 113 362 113 l 540 113 m 306 676 l 306 623 q 299 605 306 614 q 278 595 292 595 l 113 595 q 93 605 100 595 q 85 623 85 614 l 85 868 q 93 887 85 877 q 113 897 100 897 l 793 897 q 813 887 806 897 q 821 868 821 877 l 821 314 q 813 295 821 305 q 793 286 806 286 l 732 286 l 566 286 l 566 208 q 559 189 566 199 q 538 179 552 179 l 374 179 q 353 189 360 179 q 346 208 346 199 l 346 248 q 346 258 346 248 l 346 477 q 353 496 346 486 q 374 506 360 506 l 435 506 l 589 506 l 600 506 l 600 676 l 306 676 z "},"@":{"ha":974,"x_min":85,"x_max":890,"o":"m 518 310 l 518 484 l 465 484 l 465 310 l 518 310 m 888 81 q 888 77 888 80 q 888 74 888 74 l 888 -94 q 881 -112 888 -102 q 861 -122 873 -122 l 724 -122 l 174 -122 l 113 -122 q 93 -112 100 -122 q 85 -94 85 -102 l 85 868 q 93 887 85 877 q 113 897 100 897 l 245 897 l 800 897 l 861 897 q 878 890 869 897 q 888 877 886 884 q 888 868 890 871 l 888 176 q 881 156 888 166 q 859 146 873 146 l 753 146 l 330 146 q 309 156 316 146 q 301 176 301 166 l 301 616 q 309 636 301 625 q 330 648 316 648 l 363 648 l 574 648 l 653 648 q 674 636 667 648 q 682 616 682 625 l 682 310 l 724 310 l 724 734 l 250 734 l 250 41 l 724 41 l 724 74 l 724 81 q 732 100 724 90 q 753 111 740 111 l 859 111 q 881 100 873 111 q 888 81 888 90 z "},"A":{"ha":772,"x_min":12,"x_max":764,"o":"m 507 867 l 761 -94 q 759 -112 763 -102 q 741 -122 754 -122 l 570 -122 q 547 -112 557 -122 q 534 -94 537 -102 l 507 12 l 269 12 l 241 -94 q 229 -112 238 -102 q 205 -122 219 -122 l 35 -122 q 17 -112 22 -122 q 14 -94 12 -102 l 267 867 q 278 885 269 876 q 302 895 288 895 l 472 895 q 495 885 486 895 q 507 867 505 876 m 448 232 l 387 464 l 326 232 l 448 232 z "},"B":{"ha":906,"x_min":85,"x_max":821,"o":"m 600 98 l 600 294 l 306 294 l 306 98 l 600 98 m 821 868 l 821 474 q 797 439 821 466 q 759 412 772 412 q 797 388 773 412 q 821 352 821 365 l 821 -94 q 813 -112 821 -102 q 793 -122 806 -122 l 656 -122 q 174 -122 415 -122 l 113 -122 q 93 -112 100 -122 q 85 -94 85 -102 l 85 868 q 93 887 85 877 q 113 897 100 897 l 245 897 q 501 897 335 897 q 732 897 667 897 l 793 897 q 813 887 806 897 q 821 868 821 877 m 600 515 l 600 676 l 306 676 l 306 515 l 600 515 z "},"C":{"ha":906,"x_min":85,"x_max":821,"o":"m 306 676 l 306 98 l 600 98 l 600 279 q 607 298 600 288 q 628 308 614 308 l 793 308 q 813 298 806 308 q 821 279 821 288 l 821 -94 q 813 -112 821 -102 q 793 -122 806 -122 l 732 -122 l 250 -122 l 113 -122 q 93 -112 100 -122 q 85 -94 85 -102 l 85 868 q 93 887 85 877 q 113 897 100 897 l 174 897 l 661 897 l 793 897 q 813 887 806 897 q 821 868 821 877 l 821 555 q 813 537 821 547 q 793 527 806 527 l 628 527 q 607 537 614 527 q 600 555 600 547 l 600 676 l 306 676 z "},"D":{"ha":892,"x_min":85,"x_max":807,"o":"m 587 98 l 587 676 l 306 676 l 306 98 l 587 98 m 807 665 l 807 110 q 807 94 807 103 q 802 60 806 84 q 790 15 798 37 q 765 -33 782 -7 q 726 -78 749 -59 q 666 -109 703 -96 q 584 -122 629 -122 l 473 -122 l 85 -122 l 85 897 l 481 897 l 542 897 q 640 884 596 897 q 711 852 684 871 q 758 808 738 833 q 786 760 777 782 q 801 714 795 738 q 806 681 806 690 q 807 665 807 671 z "},"E":{"ha":906,"x_min":85,"x_max":821,"o":"m 306 98 l 602 98 l 792 98 q 811 91 801 98 q 821 71 821 84 l 821 -94 q 811 -115 821 -107 q 792 -122 801 -122 l 413 -122 l 250 -122 l 113 -122 q 93 -112 100 -122 q 85 -94 85 -102 l 85 868 q 93 887 85 877 q 113 897 100 897 l 174 897 l 413 897 l 602 897 l 792 897 q 811 889 801 897 q 821 869 821 882 l 821 704 q 811 684 821 691 q 792 676 801 676 l 306 676 l 306 498 l 490 498 l 680 498 q 697 491 688 498 q 707 471 707 484 l 707 306 q 697 286 707 293 q 680 278 688 278 l 306 278 l 306 98 z "},"F":{"ha":906,"x_min":85,"x_max":821,"o":"m 85 868 q 88 876 86 871 q 97 889 90 881 q 113 897 104 897 l 174 897 l 413 897 l 602 897 l 792 897 q 811 889 801 897 q 821 869 821 882 l 821 704 q 811 684 821 691 q 792 676 801 676 l 306 676 l 306 482 l 490 482 l 680 482 q 697 475 688 482 q 707 454 707 468 l 707 290 q 697 269 707 277 q 680 262 688 262 l 306 262 l 306 -94 q 298 -112 306 -102 q 278 -122 291 -122 l 113 -122 q 93 -112 100 -122 q 85 -94 85 -102 l 85 868 z "},"G":{"ha":906,"x_min":85,"x_max":821,"o":"m 306 676 l 306 98 l 600 98 l 600 233 l 521 233 q 502 240 512 233 q 492 260 492 248 l 492 425 q 502 446 492 439 q 521 453 512 453 l 732 453 l 793 453 q 813 443 806 453 q 821 425 821 433 l 821 117 l 821 -94 q 813 -112 821 -102 q 793 -122 806 -122 l 732 -122 l 250 -122 l 113 -122 q 93 -112 100 -122 q 85 -94 85 -102 l 85 868 q 93 887 85 877 q 113 897 100 897 l 174 897 l 661 897 l 793 897 q 813 887 806 897 q 821 868 821 877 l 821 555 q 813 537 821 547 q 793 527 806 527 l 628 527 q 607 537 614 527 q 600 555 600 547 l 600 676 l 306 676 z "},"H":{"ha":906,"x_min":85,"x_max":822,"o":"m 821 868 l 821 -94 q 814 -112 821 -102 q 793 -122 807 -122 l 629 -122 q 608 -112 616 -122 q 601 -94 601 -102 l 601 292 l 306 292 l 306 -94 q 299 -112 306 -102 q 278 -122 292 -122 l 113 -122 q 93 -112 100 -122 q 85 -94 85 -102 l 85 868 q 93 887 85 877 q 114 897 101 897 l 278 897 q 299 887 292 897 q 306 868 306 877 l 306 513 l 601 513 l 601 868 q 609 887 601 877 q 629 897 616 897 l 793 897 q 814 887 807 897 q 821 868 821 877 z "},"I":{"ha":606,"x_min":85,"x_max":522,"o":"m 193 676 l 114 676 q 95 684 105 676 q 85 704 85 691 l 85 869 q 95 889 85 882 q 114 897 105 897 l 303 897 l 493 897 q 512 889 502 897 q 522 869 522 882 l 522 704 q 512 684 522 691 q 493 676 502 676 l 414 676 l 414 98 l 493 98 q 512 91 502 98 q 522 71 522 84 l 522 -94 q 512 -115 522 -107 q 493 -122 502 -122 l 303 -122 l 114 -122 q 95 -115 105 -122 q 85 -94 85 -107 l 85 71 q 95 91 85 84 q 114 98 105 98 l 193 98 l 193 676 z "},"J":{"ha":838,"x_min":85,"x_max":754,"o":"m 85 -94 l 85 220 q 93 239 85 229 q 113 249 100 249 l 278 249 q 299 239 292 249 q 306 220 307 229 l 306 98 l 533 98 l 533 868 q 541 887 534 877 q 561 897 548 897 l 726 897 q 746 887 739 897 q 753 868 753 877 l 753 -94 q 746 -112 753 -102 q 725 -122 739 -122 l 533 -122 l 113 -122 q 93 -112 100 -122 q 85 -94 85 -102 z "},"K":{"ha":906,"x_min":85,"x_max":860,"o":"m 602 897 q 787 897 602 897 q 801 886 800 897 q 795 868 802 875 l 541 490 l 854 -94 q 857 -111 859 -100 q 842 -122 855 -122 l 656 -122 q 631 -112 644 -122 q 614 -94 618 -102 l 408 292 l 306 140 l 306 -94 q 299 -112 306 -102 q 278 -122 292 -122 l 113 -122 q 93 -112 100 -122 q 85 -94 85 -102 l 85 868 q 93 887 85 877 q 114 897 101 897 l 278 897 q 299 887 292 897 q 306 868 306 877 l 306 500 l 555 868 q 575 887 562 877 q 602 897 589 897 z "},"L":{"ha":779,"x_min":85,"x_max":694,"o":"m 85 868 q 93 887 85 877 q 114 897 100 897 l 278 897 q 299 887 292 897 q 306 868 306 877 l 306 98 l 665 98 q 683 91 673 98 q 693 71 693 84 l 693 -94 q 683 -115 693 -107 q 665 -122 673 -122 q 250 -122 449 -122 l 113 -122 q 93 -112 100 -122 q 85 -94 85 -102 l 85 800 l 85 868 z "},"M":{"ha":1078,"x_min":85,"x_max":993,"o":"m 295 897 q 320 887 309 897 q 336 868 332 877 l 539 396 l 743 868 q 758 887 747 877 q 783 897 770 897 l 964 897 q 985 887 978 897 q 993 868 993 877 l 993 -94 q 985 -112 993 -102 q 965 -122 978 -122 l 800 -122 q 780 -112 787 -122 q 772 -94 772 -102 l 772 414 l 595 7 q 580 -12 591 -2 q 555 -22 569 -22 l 523 -22 q 498 -12 510 -22 q 483 7 487 -2 l 306 414 l 306 -94 q 299 -112 306 -102 q 278 -122 292 -122 l 113 -122 q 93 -112 100 -122 q 85 -94 85 -102 l 85 868 q 93 887 85 877 q 114 897 101 897 l 295 897 z "},"N":{"ha":906,"x_min":85,"x_max":822,"o":"m 313 897 q 338 887 327 897 q 354 868 350 877 l 601 314 l 601 868 q 609 887 601 877 q 629 897 616 897 l 793 897 q 814 887 807 897 q 821 868 821 877 l 821 -94 q 814 -112 821 -102 q 793 -122 807 -122 l 768 -122 l 768 -123 l 597 -123 q 572 -113 584 -123 q 557 -94 561 -103 l 306 469 l 306 -94 q 299 -112 306 -102 q 278 -122 292 -122 l 113 -122 q 93 -112 100 -122 q 85 -94 85 -102 l 85 868 q 93 887 85 877 q 114 897 101 897 l 313 897 z "},"O":{"ha":974,"x_min":85,"x_max":888,"o":"m 888 868 l 888 -94 q 881 -112 888 -102 q 861 -122 873 -122 l 724 -122 q 448 -122 643 -122 q 174 -122 254 -122 l 113 -122 q 93 -112 100 -122 q 85 -94 85 -102 l 85 868 q 93 887 85 877 q 113 897 100 897 l 245 897 q 522 897 326 897 q 800 897 718 897 l 861 897 q 881 887 873 897 q 888 868 888 877 m 668 98 l 668 676 l 306 676 l 306 98 l 668 98 z "},"P":{"ha":906,"x_min":85,"x_max":821,"o":"m 85 868 q 88 876 86 871 q 97 889 90 881 q 113 897 104 897 l 174 897 l 628 897 l 792 897 q 812 887 805 897 q 820 868 820 877 l 820 222 q 812 204 820 214 q 792 194 805 194 l 306 194 l 306 -94 q 298 -112 306 -102 q 278 -122 291 -122 l 113 -122 q 93 -112 100 -122 q 85 -94 85 -102 l 85 868 m 600 676 l 306 676 l 306 414 l 490 414 l 600 414 l 600 676 z "},"Q":{"ha":974,"x_min":85,"x_max":888,"o":"m 668 98 l 668 676 l 306 676 l 306 98 l 668 98 m 888 868 l 888 -94 q 881 -112 888 -102 q 861 -122 873 -122 l 724 -122 q 701 -122 717 -122 q 675 -122 684 -122 l 764 -323 q 766 -341 769 -330 q 749 -352 762 -352 l 578 -352 q 553 -342 565 -352 q 538 -323 542 -332 l 449 -122 q 174 -122 254 -122 l 113 -122 q 93 -112 100 -122 q 85 -94 85 -102 l 85 868 q 93 887 85 877 q 113 897 100 897 l 245 897 q 522 897 326 897 q 800 897 718 897 l 861 897 q 881 887 873 897 q 888 868 888 877 z "},"R":{"ha":906,"x_min":85,"x_max":841,"o":"m 600 676 l 306 676 l 306 482 l 490 482 l 600 482 l 600 676 m 85 868 q 88 876 86 871 q 97 889 90 881 q 113 897 104 897 l 174 897 l 628 897 l 792 897 q 812 887 805 897 q 820 868 820 877 l 820 290 q 812 272 820 281 q 792 262 805 262 l 680 262 l 836 -94 q 837 -111 840 -100 q 821 -122 834 -122 l 650 -122 q 625 -112 637 -122 q 610 -94 614 -102 l 454 262 l 306 262 l 306 -94 q 298 -112 306 -102 q 278 -122 291 -122 l 113 -122 q 93 -112 100 -122 q 85 -94 85 -102 l 85 868 z "},"S":{"ha":906,"x_min":85,"x_max":821,"o":"m 600 675 l 306 675 l 306 496 l 521 496 l 732 496 l 793 496 q 813 486 806 496 q 821 467 821 476 l 821 -94 q 813 -112 821 -102 q 793 -122 806 -122 l 732 -122 l 117 -122 q 98 -115 108 -122 q 88 -94 88 -107 l 88 149 q 95 167 88 157 q 116 177 102 177 l 281 177 q 301 167 294 177 q 309 149 309 157 l 309 98 l 600 98 l 600 275 l 174 275 l 113 275 q 93 285 100 275 q 85 304 85 295 l 85 867 q 93 885 85 876 q 113 895 100 895 l 250 895 l 658 895 l 661 895 l 793 895 q 813 885 806 895 q 821 867 821 876 l 821 622 q 813 603 821 613 q 793 593 806 593 l 628 593 q 607 603 614 593 q 600 622 600 613 l 600 675 z "},"T":{"ha":946,"x_min":85,"x_max":861,"o":"m 363 676 l 114 676 q 95 684 105 676 q 85 704 85 691 l 85 869 q 95 889 85 882 q 114 897 105 897 l 473 897 l 832 897 q 851 889 841 897 q 861 869 861 882 l 861 704 q 851 684 861 691 q 832 676 841 676 l 583 676 l 583 -94 q 576 -112 583 -102 q 555 -122 568 -122 l 391 -122 q 370 -112 377 -122 q 363 -94 363 -102 l 363 676 z "},"U":{"ha":906,"x_min":85,"x_max":822,"o":"m 85 -94 l 85 868 q 93 887 85 877 q 113 897 100 897 l 278 897 q 299 887 292 897 q 306 868 307 877 l 306 98 l 601 98 l 601 868 q 609 887 602 877 q 629 897 616 897 l 793 897 q 814 887 807 897 q 821 868 821 877 l 821 -94 q 814 -112 821 -102 q 793 -122 806 -122 l 601 -122 l 113 -122 q 93 -112 100 -122 q 85 -94 85 -102 z "},"V":{"ha":772,"x_min":12,"x_max":764,"o":"m 507 -94 q 495 -112 505 -102 q 472 -122 486 -122 l 302 -122 q 278 -112 288 -122 q 267 -94 269 -102 l 14 867 q 17 886 12 876 q 35 895 22 895 l 205 895 q 229 885 219 895 q 241 867 238 876 l 387 309 l 534 867 q 547 885 537 876 q 570 895 557 895 l 741 895 q 759 886 754 895 q 761 867 763 876 l 507 -94 z "},"W":{"ha":1141,"x_min":12,"x_max":1128,"o":"m 507 -94 q 495 -112 505 -102 q 472 -122 486 -122 l 302 -122 q 278 -112 288 -122 q 267 -94 269 -102 l 14 867 q 17 886 12 876 q 35 895 22 895 l 205 895 q 229 885 219 895 q 241 867 238 876 l 387 309 l 456 571 l 378 867 q 381 886 376 876 q 399 895 386 895 l 570 895 l 570 895 l 741 895 q 759 886 754 895 q 761 867 763 876 l 683 570 l 751 309 l 899 867 q 911 885 901 876 q 934 895 921 895 l 1105 895 q 1123 886 1118 895 q 1125 867 1127 876 l 871 -94 q 860 -112 869 -102 q 836 -122 850 -122 l 666 -122 q 643 -112 652 -122 q 631 -94 633 -102 l 569 140 l 507 -94 z "},"X":{"ha":684,"x_min":7,"x_max":672,"o":"m 197 897 q 222 887 211 897 q 238 868 234 877 l 340 640 l 441 868 q 456 887 445 877 q 481 897 468 897 l 652 897 q 669 886 665 897 q 667 868 672 875 l 452 387 l 667 -94 q 669 -112 672 -101 q 652 -123 665 -123 l 481 -123 q 456 -113 468 -123 q 441 -94 445 -103 l 340 134 l 238 -94 q 222 -113 234 -103 q 197 -123 211 -123 l 27 -123 q 10 -112 14 -123 q 12 -94 7 -101 l 227 387 l 12 868 q 10 886 7 875 q 27 897 14 897 l 197 897 z "},"Y":{"ha":810,"x_min":5,"x_max":806,"o":"m 196 897 q 221 887 210 897 q 237 868 233 877 l 405 488 l 575 868 q 591 887 579 877 q 616 897 602 897 l 786 897 q 803 886 800 897 q 802 868 806 875 l 517 234 l 517 -94 q 510 -112 517 -102 q 490 -122 503 -122 l 325 -122 q 304 -112 311 -122 q 297 -94 297 -102 l 297 222 l 10 868 q 9 886 5 875 q 26 897 12 897 l 196 897 z "},"Z":{"ha":684,"x_min":7,"x_max":672,"o":"m 541 897 l 652 897 q 669 886 665 897 q 667 868 672 875 l 323 98 l 638 98 q 657 91 647 98 q 667 70 667 83 l 667 -95 q 657 -115 667 -108 q 638 -123 647 -123 l 144 -123 l 27 -123 q 10 -112 14 -123 q 12 -94 7 -101 l 355 676 l 46 676 q 27 684 37 676 q 18 704 18 691 l 18 869 q 27 889 18 882 q 46 897 37 897 l 541 897 z "},"[":{"ha":499,"x_min":85,"x_max":414,"o":"m 85 -161 l 85 1081 q 93 1100 85 1090 q 113 1109 100 1109 l 174 1109 l 385 1109 q 404 1102 394 1109 q 414 1082 414 1095 l 414 917 q 404 897 414 904 q 385 889 394 889 l 306 889 l 306 31 l 385 31 q 404 23 394 31 q 414 3 414 16 l 414 -162 q 404 -182 414 -175 q 385 -190 394 -190 l 174 -190 l 113 -190 q 93 -180 100 -190 q 85 -161 85 -170 z "},"\\":{"ha":747,"x_min":6,"x_max":735,"o":"m 12 1034 q 10 1051 7 1040 q 26 1062 13 1062 l 197 1062 q 222 1053 210 1062 q 237 1034 233 1043 l 730 -94 q 731 -111 734 -100 q 715 -122 728 -122 l 544 -122 q 519 -112 531 -122 q 504 -94 508 -102 l 12 1034 z "},"]":{"ha":499,"x_min":85,"x_max":414,"o":"m 414 -161 q 406 -180 414 -170 q 386 -190 399 -190 l 325 -190 l 114 -190 q 95 -182 105 -190 q 85 -162 85 -175 l 85 3 q 95 23 85 16 q 114 31 105 31 l 193 31 l 193 889 l 114 889 q 95 897 105 889 q 85 917 85 904 l 85 1082 q 95 1102 85 1095 q 114 1109 105 1109 l 325 1109 l 386 1109 q 406 1100 399 1109 q 414 1081 414 1090 l 414 -161 z "},"^":{"ha":408,"x_min":8,"x_max":399,"o":"m 117 1070 l 290 1070 q 315 1060 303 1070 q 330 1042 326 1050 l 394 890 q 395 873 399 884 q 379 862 392 862 l 261 862 q 234 872 248 862 q 214 890 220 882 l 203 905 l 194 890 q 174 872 188 882 q 146 862 159 862 l 28 862 q 12 873 15 862 q 14 890 9 884 l 77 1042 q 93 1060 81 1050 q 117 1070 104 1070 z "},"_":{"ha":829,"x_min":1,"x_max":834,"o":"m 802 -81 q 823 -89 812 -81 q 834 -110 834 -96 l 834 -250 q 823 -271 834 -263 q 802 -279 812 -279 l 31 -279 q 11 -271 21 -279 q 1 -250 1 -264 l 1 -110 q 11 -88 1 -96 q 31 -81 21 -81 l 802 -81 z "},"`":{"ha":370,"x_min":3,"x_max":363,"o":"m 195 1063 q 219 1053 208 1063 q 235 1035 231 1044 l 357 755 q 359 738 362 748 q 342 727 356 727 l 172 727 q 147 736 159 727 q 132 755 136 746 l 8 1035 q 7 1052 4 1042 q 24 1063 10 1063 l 195 1063 z "},"a":{"ha":772,"x_min":12,"x_max":764,"o":"m 507 867 l 761 -94 q 759 -112 763 -102 q 741 -122 754 -122 l 570 -122 q 547 -112 557 -122 q 534 -94 537 -102 l 507 12 l 269 12 l 241 -94 q 229 -112 238 -102 q 205 -122 219 -122 l 35 -122 q 17 -112 22 -122 q 14 -94 12 -102 l 267 867 q 278 885 269 876 q 302 895 288 895 l 472 895 q 495 885 486 895 q 507 867 505 876 m 448 232 l 387 464 l 326 232 l 448 232 z "},"b":{"ha":906,"x_min":85,"x_max":821,"o":"m 600 98 l 600 294 l 306 294 l 306 98 l 600 98 m 821 868 l 821 474 q 797 439 821 466 q 759 412 772 412 q 797 388 773 412 q 821 352 821 365 l 821 -94 q 813 -112 821 -102 q 793 -122 806 -122 l 656 -122 q 174 -122 415 -122 l 113 -122 q 93 -112 100 -122 q 85 -94 85 -102 l 85 868 q 93 887 85 877 q 113 897 100 897 l 245 897 q 501 897 335 897 q 732 897 667 897 l 793 897 q 813 887 806 897 q 821 868 821 877 m 600 515 l 600 676 l 306 676 l 306 515 l 600 515 z "},"c":{"ha":906,"x_min":85,"x_max":821,"o":"m 306 676 l 306 98 l 600 98 l 600 279 q 607 298 600 288 q 628 308 614 308 l 793 308 q 813 298 806 308 q 821 279 821 288 l 821 -94 q 813 -112 821 -102 q 793 -122 806 -122 l 732 -122 l 250 -122 l 113 -122 q 93 -112 100 -122 q 85 -94 85 -102 l 85 868 q 93 887 85 877 q 113 897 100 897 l 174 897 l 661 897 l 793 897 q 813 887 806 897 q 821 868 821 877 l 821 555 q 813 537 821 547 q 793 527 806 527 l 628 527 q 607 537 614 527 q 600 555 600 547 l 600 676 l 306 676 z "},"d":{"ha":892,"x_min":85,"x_max":807,"o":"m 587 98 l 587 676 l 306 676 l 306 98 l 587 98 m 807 665 l 807 110 q 807 94 807 103 q 802 60 806 84 q 790 15 798 37 q 765 -33 782 -7 q 726 -78 749 -59 q 666 -109 703 -96 q 584 -122 629 -122 l 473 -122 l 85 -122 l 85 897 l 481 897 l 542 897 q 640 884 596 897 q 711 852 684 871 q 758 808 738 833 q 786 760 777 782 q 801 714 795 738 q 806 681 806 690 q 807 665 807 671 z "},"e":{"ha":906,"x_min":85,"x_max":821,"o":"m 306 98 l 602 98 l 792 98 q 811 91 801 98 q 821 71 821 84 l 821 -94 q 811 -115 821 -107 q 792 -122 801 -122 l 413 -122 l 250 -122 l 113 -122 q 93 -112 100 -122 q 85 -94 85 -102 l 85 868 q 93 887 85 877 q 113 897 100 897 l 174 897 l 413 897 l 602 897 l 792 897 q 811 889 801 897 q 821 869 821 882 l 821 704 q 811 684 821 691 q 792 676 801 676 l 306 676 l 306 498 l 490 498 l 680 498 q 697 491 688 498 q 707 471 707 484 l 707 306 q 697 286 707 293 q 680 278 688 278 l 306 278 l 306 98 z "},"f":{"ha":906,"x_min":85,"x_max":821,"o":"m 85 868 q 88 876 86 871 q 97 889 90 881 q 113 897 104 897 l 174 897 l 413 897 l 602 897 l 792 897 q 811 889 801 897 q 821 869 821 882 l 821 704 q 811 684 821 691 q 792 676 801 676 l 306 676 l 306 482 l 490 482 l 680 482 q 697 475 688 482 q 707 454 707 468 l 707 290 q 697 269 707 277 q 680 262 688 262 l 306 262 l 306 -94 q 298 -112 306 -102 q 278 -122 291 -122 l 113 -122 q 93 -112 100 -122 q 85 -94 85 -102 l 85 868 z "},"g":{"ha":906,"x_min":85,"x_max":821,"o":"m 306 676 l 306 98 l 600 98 l 600 233 l 521 233 q 502 240 512 233 q 492 260 492 248 l 492 425 q 502 446 492 439 q 521 453 512 453 l 732 453 l 793 453 q 813 443 806 453 q 821 425 821 433 l 821 117 l 821 -94 q 813 -112 821 -102 q 793 -122 806 -122 l 732 -122 l 250 -122 l 113 -122 q 93 -112 100 -122 q 85 -94 85 -102 l 85 868 q 93 887 85 877 q 113 897 100 897 l 174 897 l 661 897 l 793 897 q 813 887 806 897 q 821 868 821 877 l 821 555 q 813 537 821 547 q 793 527 806 527 l 628 527 q 607 537 614 527 q 600 555 600 547 l 600 676 l 306 676 z "},"h":{"ha":906,"x_min":85,"x_max":822,"o":"m 821 868 l 821 -94 q 814 -112 821 -102 q 793 -122 807 -122 l 629 -122 q 608 -112 616 -122 q 601 -94 601 -102 l 601 292 l 306 292 l 306 -94 q 299 -112 306 -102 q 278 -122 292 -122 l 113 -122 q 93 -112 100 -122 q 85 -94 85 -102 l 85 868 q 93 887 85 877 q 114 897 101 897 l 278 897 q 299 887 292 897 q 306 868 306 877 l 306 513 l 601 513 l 601 868 q 609 887 601 877 q 629 897 616 897 l 793 897 q 814 887 807 897 q 821 868 821 877 z "},"i":{"ha":606,"x_min":85,"x_max":522,"o":"m 193 676 l 114 676 q 95 684 105 676 q 85 704 85 691 l 85 869 q 95 889 85 882 q 114 897 105 897 l 303 897 l 493 897 q 512 889 502 897 q 522 869 522 882 l 522 704 q 512 684 522 691 q 493 676 502 676 l 414 676 l 414 98 l 493 98 q 512 91 502 98 q 522 71 522 84 l 522 -94 q 512 -115 522 -107 q 493 -122 502 -122 l 303 -122 l 114 -122 q 95 -115 105 -122 q 85 -94 85 -107 l 85 71 q 95 91 85 84 q 114 98 105 98 l 193 98 l 193 676 z "},"j":{"ha":838,"x_min":85,"x_max":754,"o":"m 85 -94 l 85 220 q 93 239 85 229 q 113 249 100 249 l 278 249 q 299 239 292 249 q 306 220 307 229 l 306 98 l 533 98 l 533 868 q 541 887 534 877 q 561 897 548 897 l 726 897 q 746 887 739 897 q 753 868 753 877 l 753 -94 q 746 -112 753 -102 q 725 -122 739 -122 l 533 -122 l 113 -122 q 93 -112 100 -122 q 85 -94 85 -102 z "},"k":{"ha":906,"x_min":85,"x_max":860,"o":"m 602 897 q 787 897 602 897 q 801 886 800 897 q 795 868 802 875 l 541 490 l 854 -94 q 857 -111 859 -100 q 842 -122 855 -122 l 656 -122 q 631 -112 644 -122 q 614 -94 618 -102 l 408 292 l 306 140 l 306 -94 q 299 -112 306 -102 q 278 -122 292 -122 l 113 -122 q 93 -112 100 -122 q 85 -94 85 -102 l 85 868 q 93 887 85 877 q 114 897 101 897 l 278 897 q 299 887 292 897 q 306 868 306 877 l 306 500 l 555 868 q 575 887 562 877 q 602 897 589 897 z "},"l":{"ha":779,"x_min":85,"x_max":694,"o":"m 85 868 q 93 887 85 877 q 114 897 100 897 l 278 897 q 299 887 292 897 q 306 868 306 877 l 306 98 l 665 98 q 683 91 673 98 q 693 71 693 84 l 693 -94 q 683 -115 693 -107 q 665 -122 673 -122 q 250 -122 449 -122 l 113 -122 q 93 -112 100 -122 q 85 -94 85 -102 l 85 800 l 85 868 z "},"m":{"ha":1078,"x_min":85,"x_max":993,"o":"m 295 897 q 320 887 309 897 q 336 868 332 877 l 539 396 l 743 868 q 758 887 747 877 q 783 897 770 897 l 964 897 q 985 887 978 897 q 993 868 993 877 l 993 -94 q 985 -112 993 -102 q 965 -122 978 -122 l 800 -122 q 780 -112 787 -122 q 772 -94 772 -102 l 772 414 l 595 7 q 580 -12 591 -2 q 555 -22 569 -22 l 523 -22 q 498 -12 510 -22 q 483 7 487 -2 l 306 414 l 306 -94 q 299 -112 306 -102 q 278 -122 292 -122 l 113 -122 q 93 -112 100 -122 q 85 -94 85 -102 l 85 868 q 93 887 85 877 q 114 897 101 897 l 295 897 z "},"n":{"ha":906,"x_min":85,"x_max":822,"o":"m 313 897 q 338 887 327 897 q 354 868 350 877 l 601 314 l 601 868 q 609 887 601 877 q 629 897 616 897 l 793 897 q 814 887 807 897 q 821 868 821 877 l 821 -94 q 814 -112 821 -102 q 793 -122 807 -122 l 768 -122 l 768 -123 l 597 -123 q 572 -113 584 -123 q 557 -94 561 -103 l 306 469 l 306 -94 q 299 -112 306 -102 q 278 -122 292 -122 l 113 -122 q 93 -112 100 -122 q 85 -94 85 -102 l 85 868 q 93 887 85 877 q 114 897 101 897 l 313 897 z "},"o":{"ha":974,"x_min":85,"x_max":888,"o":"m 888 868 l 888 -94 q 881 -112 888 -102 q 861 -122 873 -122 l 724 -122 q 448 -122 643 -122 q 174 -122 254 -122 l 113 -122 q 93 -112 100 -122 q 85 -94 85 -102 l 85 868 q 93 887 85 877 q 113 897 100 897 l 245 897 q 522 897 326 897 q 800 897 718 897 l 861 897 q 881 887 873 897 q 888 868 888 877 m 668 98 l 668 676 l 306 676 l 306 98 l 668 98 z "},"p":{"ha":906,"x_min":85,"x_max":821,"o":"m 85 868 q 88 876 86 871 q 97 889 90 881 q 113 897 104 897 l 174 897 l 628 897 l 792 897 q 812 887 805 897 q 820 868 820 877 l 820 222 q 812 204 820 214 q 792 194 805 194 l 306 194 l 306 -94 q 298 -112 306 -102 q 278 -122 291 -122 l 113 -122 q 93 -112 100 -122 q 85 -94 85 -102 l 85 868 m 600 676 l 306 676 l 306 414 l 490 414 l 600 414 l 600 676 z "},"q":{"ha":974,"x_min":85,"x_max":888,"o":"m 668 98 l 668 676 l 306 676 l 306 98 l 668 98 m 888 868 l 888 -94 q 881 -112 888 -102 q 861 -122 873 -122 l 724 -122 q 701 -122 717 -122 q 675 -122 684 -122 l 764 -323 q 766 -341 769 -330 q 749 -352 762 -352 l 578 -352 q 553 -342 565 -352 q 538 -323 542 -332 l 449 -122 q 174 -122 254 -122 l 113 -122 q 93 -112 100 -122 q 85 -94 85 -102 l 85 868 q 93 887 85 877 q 113 897 100 897 l 245 897 q 522 897 326 897 q 800 897 718 897 l 861 897 q 881 887 873 897 q 888 868 888 877 z "},"r":{"ha":906,"x_min":85,"x_max":841,"o":"m 600 676 l 306 676 l 306 482 l 490 482 l 600 482 l 600 676 m 85 868 q 88 876 86 871 q 97 889 90 881 q 113 897 104 897 l 174 897 l 628 897 l 792 897 q 812 887 805 897 q 820 868 820 877 l 820 290 q 812 272 820 281 q 792 262 805 262 l 680 262 l 836 -94 q 837 -111 840 -100 q 821 -122 834 -122 l 650 -122 q 625 -112 637 -122 q 610 -94 614 -102 l 454 262 l 306 262 l 306 -94 q 298 -112 306 -102 q 278 -122 291 -122 l 113 -122 q 93 -112 100 -122 q 85 -94 85 -102 l 85 868 z "},"s":{"ha":906,"x_min":85,"x_max":821,"o":"m 600 675 l 306 675 l 306 496 l 521 496 l 732 496 l 793 496 q 813 486 806 496 q 821 467 821 476 l 821 -94 q 813 -112 821 -102 q 793 -122 806 -122 l 732 -122 l 117 -122 q 98 -115 108 -122 q 88 -94 88 -107 l 88 149 q 95 167 88 157 q 116 177 102 177 l 281 177 q 301 167 294 177 q 309 149 309 157 l 309 98 l 600 98 l 600 275 l 174 275 l 113 275 q 93 285 100 275 q 85 304 85 295 l 85 867 q 93 885 85 876 q 113 895 100 895 l 250 895 l 658 895 l 661 895 l 793 895 q 813 885 806 895 q 821 867 821 876 l 821 622 q 813 603 821 613 q 793 593 806 593 l 628 593 q 607 603 614 593 q 600 622 600 613 l 600 675 z "},"t":{"ha":946,"x_min":85,"x_max":861,"o":"m 363 676 l 114 676 q 95 684 105 676 q 85 704 85 691 l 85 869 q 95 889 85 882 q 114 897 105 897 l 473 897 l 832 897 q 851 889 841 897 q 861 869 861 882 l 861 704 q 851 684 861 691 q 832 676 841 676 l 583 676 l 583 -94 q 576 -112 583 -102 q 555 -122 568 -122 l 391 -122 q 370 -112 377 -122 q 363 -94 363 -102 l 363 676 z "},"u":{"ha":906,"x_min":85,"x_max":822,"o":"m 85 -94 l 85 868 q 93 887 85 877 q 113 897 100 897 l 278 897 q 299 887 292 897 q 306 868 307 877 l 306 98 l 601 98 l 601 868 q 609 887 602 877 q 629 897 616 897 l 793 897 q 814 887 807 897 q 821 868 821 877 l 821 -94 q 814 -112 821 -102 q 793 -122 806 -122 l 601 -122 l 113 -122 q 93 -112 100 -122 q 85 -94 85 -102 z "},"v":{"ha":772,"x_min":12,"x_max":764,"o":"m 507 -94 q 495 -112 505 -102 q 472 -122 486 -122 l 302 -122 q 278 -112 288 -122 q 267 -94 269 -102 l 14 867 q 17 886 12 876 q 35 895 22 895 l 205 895 q 229 885 219 895 q 241 867 238 876 l 387 309 l 534 867 q 547 885 537 876 q 570 895 557 895 l 741 895 q 759 886 754 895 q 761 867 763 876 l 507 -94 z "},"w":{"ha":1141,"x_min":12,"x_max":1128,"o":"m 507 -94 q 495 -112 505 -102 q 472 -122 486 -122 l 302 -122 q 278 -112 288 -122 q 267 -94 269 -102 l 14 867 q 17 886 12 876 q 35 895 22 895 l 205 895 q 229 885 219 895 q 241 867 238 876 l 387 309 l 456 571 l 378 867 q 381 886 376 876 q 399 895 386 895 l 570 895 l 570 895 l 741 895 q 759 886 754 895 q 761 867 763 876 l 683 570 l 751 309 l 899 867 q 911 885 901 876 q 934 895 921 895 l 1105 895 q 1123 886 1118 895 q 1125 867 1127 876 l 871 -94 q 860 -112 869 -102 q 836 -122 850 -122 l 666 -122 q 643 -112 652 -122 q 631 -94 633 -102 l 569 140 l 507 -94 z "},"x":{"ha":684,"x_min":7,"x_max":672,"o":"m 197 897 q 222 887 211 897 q 238 868 234 877 l 340 640 l 441 868 q 456 887 445 877 q 481 897 468 897 l 652 897 q 669 886 665 897 q 667 868 672 875 l 452 387 l 667 -94 q 669 -112 672 -101 q 652 -123 665 -123 l 481 -123 q 456 -113 468 -123 q 441 -94 445 -103 l 340 134 l 238 -94 q 222 -113 234 -103 q 197 -123 211 -123 l 27 -123 q 10 -112 14 -123 q 12 -94 7 -101 l 227 387 l 12 868 q 10 886 7 875 q 27 897 14 897 l 197 897 z "},"y":{"ha":798,"x_min":7,"x_max":787,"o":"m 199 897 q 222 887 212 897 q 236 868 233 877 l 397 422 l 557 868 q 571 887 560 877 q 595 897 581 897 l 766 897 q 782 887 779 897 q 783 868 786 878 l 438 -94 q 424 -113 435 -103 q 400 -123 414 -123 l 340 -123 l 151 -123 q 132 -115 142 -123 q 122 -95 122 -108 l 122 70 q 132 91 122 83 q 151 98 142 98 l 230 98 l 281 98 l 283 106 l 10 868 q 11 887 7 877 q 28 897 14 897 l 199 897 z "},"z":{"ha":684,"x_min":7,"x_max":672,"o":"m 541 897 l 652 897 q 669 886 665 897 q 667 868 672 875 l 323 98 l 638 98 q 657 91 647 98 q 667 70 667 83 l 667 -95 q 657 -115 667 -108 q 638 -123 647 -123 l 144 -123 l 27 -123 q 10 -112 14 -123 q 12 -94 7 -101 l 355 676 l 46 676 q 27 684 37 676 q 18 704 18 691 l 18 869 q 27 889 18 882 q 46 897 37 897 l 541 897 z "},"{":{"ha":499,"x_min":-19,"x_max":414,"o":"m 85 584 l 85 1081 q 93 1100 85 1090 q 113 1109 100 1109 l 174 1109 l 385 1109 q 404 1102 394 1109 q 414 1082 414 1095 l 414 917 q 404 897 414 904 q 385 889 394 889 l 306 889 l 306 31 l 385 31 q 404 23 394 31 q 414 3 414 16 l 414 -162 q 404 -182 414 -175 q 385 -190 394 -190 l 174 -190 l 113 -190 q 93 -180 100 -190 q 85 -161 85 -170 l 85 363 l 9 363 q -9 371 1 363 q -19 391 -19 378 l -19 556 q -9 576 -19 569 q 9 584 1 584 l 85 584 z "},"|":{"ha":651,"x_min":212,"x_max":433,"o":"m 433 1102 l 433 -94 q 426 -112 433 -102 q 406 -122 418 -122 l 241 -122 q 220 -112 227 -122 q 213 -94 213 -102 l 213 1102 q 220 1121 213 1111 q 241 1131 228 1131 l 406 1131 q 426 1121 418 1131 q 433 1102 433 1111 z "},"}":{"ha":499,"x_min":85,"x_max":518,"o":"m 414 584 l 490 584 q 508 576 498 584 q 518 556 518 569 l 518 391 q 508 371 518 378 q 490 363 498 363 l 414 363 l 414 -161 q 406 -180 414 -170 q 386 -190 399 -190 l 325 -190 l 114 -190 q 95 -182 105 -190 q 85 -162 85 -175 l 85 3 q 95 23 85 16 q 114 31 105 31 l 193 31 l 193 889 l 114 889 q 95 897 105 889 q 85 917 85 904 l 85 1082 q 95 1102 85 1095 q 114 1109 105 1109 l 325 1109 l 386 1109 q 406 1100 399 1109 q 414 1081 414 1090 l 414 584 z "},"~":{"ha":788,"x_min":3,"x_max":775,"o":"m 363 417 q 339 427 351 417 q 323 446 328 437 l 300 501 l 300 502 l 227 502 l 188 446 q 168 427 182 437 q 140 417 154 417 l 23 417 q 6 428 9 417 q 7 446 3 439 l 72 597 q 87 615 76 606 q 112 625 98 625 l 414 625 q 439 615 428 625 q 454 597 450 606 l 478 541 l 479 541 l 551 541 l 590 597 q 610 615 596 606 q 637 625 624 625 l 755 625 q 772 614 768 625 q 770 597 775 604 l 707 446 q 691 427 703 437 q 666 417 680 417 l 363 417 z "}," ":{"ha":678,"x_min":0,"x_max":0,"o":""},"¡":{"ha":606,"x_min":193,"x_max":414,"o":"m 221 661 q 201 671 208 661 q 193 690 193 681 l 193 868 q 201 887 193 877 q 221 897 208 897 l 386 897 q 406 887 399 897 q 414 868 414 877 l 414 690 q 406 671 414 681 q 386 661 399 661 l 221 661 m 193 -260 l 193 529 q 200 548 193 538 q 221 557 208 557 l 386 557 q 407 548 399 557 q 414 529 414 538 l 414 -260 q 406 -278 414 -269 q 385 -288 399 -288 l 221 -288 q 200 -278 208 -288 q 193 -260 193 -269 z "},"¢":{"ha":906,"x_min":85,"x_max":821,"o":"m 306 541 l 306 98 l 340 98 l 340 541 l 306 541 m 340 -122 l 113 -122 q 93 -112 100 -122 q 85 -94 85 -102 l 85 732 q 93 751 85 741 q 113 761 100 761 l 340 761 l 340 868 q 348 887 340 877 q 369 897 355 897 l 533 897 q 553 887 546 897 q 561 868 561 877 l 561 761 l 793 761 q 813 751 806 761 q 821 732 821 741 l 821 420 q 813 401 821 411 q 793 391 806 391 l 628 391 q 607 401 614 391 q 600 420 600 411 l 600 541 l 561 541 l 561 98 l 600 98 l 600 279 q 607 298 600 288 q 628 308 614 308 l 793 308 q 813 298 806 308 q 821 279 821 288 l 821 -94 q 813 -112 821 -102 q 793 -122 806 -122 l 561 -122 l 561 -192 q 553 -211 561 -201 q 533 -220 546 -220 l 368 -220 q 348 -211 355 -220 q 340 -192 340 -201 l 340 -122 z "},"£":{"ha":873,"x_min":14,"x_max":796,"o":"m 117 500 q 120 665 119 664 l 120 868 q 128 887 120 877 q 149 897 136 897 l 340 897 l 760 897 q 781 887 774 897 q 788 868 789 877 l 788 554 q 781 535 788 545 q 760 526 774 526 l 595 526 q 575 535 583 526 q 568 554 568 545 l 568 676 l 340 676 l 340 500 l 566 500 q 586 492 575 500 q 597 471 597 484 l 597 331 q 586 310 597 317 q 566 302 575 302 l 340 302 l 340 98 l 768 98 q 786 91 776 98 q 795 71 795 84 l 795 -94 q 786 -115 795 -107 q 768 -122 776 -122 q 577 -122 736 -122 q 340 -122 418 -122 l 43 -122 q 24 -114 34 -122 q 14 -93 14 -106 l 14 69 q 24 91 14 83 q 43 98 34 98 l 116 98 q 115 302 115 192 l 65 302 q 45 309 56 302 q 35 331 35 317 l 35 471 q 45 492 35 485 q 65 500 56 500 l 117 500 z "},"¥":{"ha":747,"x_min":6,"x_max":735,"o":"m 544 1062 q 715 1062 544 1062 q 731 1051 728 1062 q 730 1034 734 1040 l 543 602 l 614 602 q 634 594 623 602 q 646 573 646 587 l 646 433 q 634 412 646 420 q 614 404 623 404 l 481 404 l 481 331 l 614 331 q 634 323 623 331 q 646 302 646 315 l 646 162 q 634 141 646 149 q 614 133 623 133 l 481 133 l 481 -94 q 474 -112 481 -102 q 454 -122 467 -122 l 289 -122 q 268 -112 275 -122 q 261 -94 261 -102 l 261 133 l 113 133 q 94 140 104 133 q 83 162 83 148 l 83 302 q 94 323 83 316 q 113 331 104 331 l 261 331 l 261 404 l 113 404 q 94 412 104 404 q 83 433 83 419 l 83 573 q 94 595 83 587 q 113 602 104 602 l 199 602 l 12 1034 q 10 1051 7 1040 q 26 1062 13 1062 l 197 1062 q 222 1052 210 1062 q 237 1034 233 1042 l 370 729 l 504 1034 q 519 1052 508 1042 q 544 1062 531 1062 z "},"§":{"ha":906,"x_min":85,"x_max":821,"o":"m 600 675 l 306 675 l 306 496 q 307 496 0 0 l 307 496 l 308 496 l 309 496 l 309 496 l 310 496 l 311 496 l 311 496 l 312 496 l 313 496 l 313 496 l 314 496 l 315 496 l 315 496 l 316 496 l 317 496 l 317 496 l 318 496 l 319 496 l 319 496 l 320 496 l 321 496 l 321 496 l 322 496 l 323 496 l 323 496 l 324 496 l 325 496 l 326 496 l 326 496 l 327 496 l 328 496 l 328 496 l 329 496 l 330 496 l 330 496 l 331 496 l 332 496 l 332 496 l 333 496 l 334 496 l 334 496 l 335 496 l 336 496 l 336 496 l 337 496 l 338 496 l 338 496 l 339 496 l 340 496 l 340 496 l 341 496 l 342 496 l 342 496 l 343 496 l 344 496 l 345 496 l 345 496 l 346 496 l 347 496 l 347 496 l 348 496 l 349 496 l 349 496 l 350 496 l 351 496 l 351 496 l 352 496 l 353 496 l 353 496 l 354 496 l 361 496 l 389 589 q 405 616 393 602 q 429 630 416 630 l 600 630 l 600 675 m 294 275 l 174 275 l 113 275 q 93 285 100 275 q 85 304 85 295 l 85 867 q 93 885 85 876 q 113 895 100 895 l 250 895 l 658 895 l 661 895 l 793 895 q 813 885 806 895 q 821 867 821 876 l 821 622 q 813 603 821 613 q 793 593 806 593 l 628 593 q 617 596 622 593 q 615 589 616 592 l 587 496 l 732 496 l 793 496 q 813 486 806 496 q 821 467 821 476 l 821 -94 q 813 -112 821 -102 q 793 -122 806 -122 l 732 -122 l 117 -122 q 98 -115 108 -122 q 88 -94 88 -107 l 88 149 q 95 167 88 157 q 116 177 102 177 l 264 177 q 267 186 265 182 l 294 275 m 309 146 l 309 98 l 600 98 l 600 275 l 600 275 l 599 275 l 598 275 l 597 275 l 597 275 l 596 275 l 595 275 l 595 275 l 594 275 l 593 275 l 593 275 l 592 275 l 591 275 l 591 275 l 590 275 l 589 275 l 589 275 l 588 275 l 587 275 l 587 275 l 586 275 l 585 275 l 585 275 l 584 275 l 583 275 l 583 275 l 582 275 l 581 275 l 581 275 l 580 275 l 579 275 l 578 275 l 578 275 l 577 275 l 576 275 l 576 275 l 575 275 l 574 275 l 574 275 l 573 275 l 572 275 l 572 275 l 571 275 l 570 275 l 570 275 l 569 275 l 568 275 l 568 275 l 567 275 l 566 275 l 566 275 l 565 275 l 564 275 l 564 275 l 563 275 l 562 275 l 562 275 l 561 275 l 559 275 l 559 275 l 558 275 l 557 275 l 557 275 l 556 275 l 555 275 l 555 275 l 554 275 l 553 275 l 553 275 l 552 275 l 551 275 l 551 275 l 550 275 l 549 275 l 549 275 l 548 275 l 547 275 l 547 275 l 546 275 l 545 275 l 545 275 l 544 275 l 543 275 l 543 275 l 542 275 l 541 275 l 541 275 l 540 275 l 539 275 l 538 275 l 538 275 l 537 275 l 536 275 l 536 275 l 535 275 l 534 275 l 534 275 l 533 275 l 532 275 l 532 275 l 531 275 l 530 275 l 530 275 l 529 275 l 528 275 l 528 275 l 527 275 l 526 275 l 526 275 l 519 275 l 492 186 q 477 160 488 174 q 452 146 465 146 l 309 146 z "},"¨":{"ha":772,"x_min":121,"x_max":661,"o":"m 314 1026 q 335 1016 328 1026 q 342 998 342 1006 l 342 853 q 335 834 342 844 q 314 825 328 825 l 149 825 q 129 834 136 825 q 121 853 121 844 l 121 998 q 129 1016 121 1006 q 149 1026 136 1026 l 314 1026 m 633 1026 q 653 1016 646 1026 q 661 998 661 1006 l 661 853 q 653 834 661 844 q 633 825 646 825 l 468 825 q 448 834 455 825 q 440 853 440 844 l 440 998 q 448 1016 440 1006 q 468 1026 455 1026 l 633 1026 z "},"«":{"ha":677,"x_min":3,"x_max":668,"o":"m 477 656 q 648 656 477 656 q 664 645 661 656 q 663 628 667 635 l 535 337 l 663 46 q 664 28 667 39 q 648 18 661 18 l 477 18 q 452 27 464 18 q 437 46 441 37 l 314 326 q 313 348 309 337 l 437 628 q 452 646 441 637 q 477 656 464 656 m 172 656 l 342 656 q 359 645 356 656 q 357 628 362 635 l 230 337 l 357 46 q 359 28 362 39 q 342 18 356 18 l 172 18 q 147 27 159 18 q 132 46 136 37 l 9 326 q 8 348 3 337 l 132 628 q 147 646 136 637 q 172 656 159 656 z "},"¬":{"ha":829,"x_min":136,"x_max":699,"o":"m 667 500 q 687 492 676 500 q 699 471 699 484 l 699 153 q 691 134 699 144 q 671 124 684 124 l 506 124 q 486 134 493 124 q 478 153 478 144 l 478 302 l 166 302 q 146 309 157 302 q 136 331 136 317 l 136 471 q 146 492 136 485 q 166 500 157 500 l 667 500 z "},"­":{"ha":829,"x_min":136,"x_max":699,"o":"m 667 500 q 687 492 676 500 q 699 471 699 484 l 699 331 q 687 310 699 317 q 667 302 676 302 l 166 302 q 146 309 157 302 q 136 331 136 317 l 136 471 q 146 492 136 485 q 166 500 157 500 l 667 500 z "},"¯":{"ha":606,"x_min":93,"x_max":506,"o":"m 474 1090 q 495 1082 484 1090 q 506 1061 506 1075 l 506 989 q 495 967 506 975 q 474 960 484 960 l 123 960 q 104 967 114 960 q 94 989 94 975 l 94 1061 q 104 1082 94 1075 q 123 1090 114 1090 l 474 1090 z "},"°":{"ha":606,"x_min":167,"x_max":456,"o":"m 416 1090 q 445 1076 435 1090 q 456 1048 456 1061 l 456 828 q 446 800 456 814 q 416 786 435 786 l 208 786 q 178 800 189 786 q 168 828 168 814 l 168 1048 q 178 1076 168 1061 q 208 1090 189 1090 l 416 1090 m 337 978 l 286 978 q 276 973 279 978 q 272 964 272 968 l 272 913 q 276 903 273 908 q 286 898 279 898 l 337 898 q 348 903 344 898 q 351 913 351 908 l 351 964 q 348 973 351 968 q 337 978 344 978 z "},"±":{"ha":829,"x_min":136,"x_max":699,"o":"m 667 195 q 687 187 676 195 q 699 165 699 179 l 699 60 q 687 38 699 45 q 667 31 676 31 l 166 31 q 146 38 157 31 q 136 60 136 45 l 136 165 q 146 187 136 180 q 166 195 157 195 l 667 195 m 667 635 q 687 628 676 635 q 699 606 699 620 l 699 467 q 687 445 699 453 q 667 437 676 437 l 517 437 l 517 288 q 509 266 517 277 q 487 255 501 255 l 347 255 q 326 266 334 255 q 319 288 319 277 l 319 437 l 166 437 q 146 445 157 437 q 136 467 136 452 l 136 606 q 146 628 136 621 q 166 635 157 635 l 319 635 l 319 788 q 326 807 319 797 q 347 818 334 818 l 487 818 q 509 807 501 818 q 517 788 517 797 l 517 635 l 667 635 z "},"´":{"ha":606,"x_min":208,"x_max":508,"o":"m 317 1032 q 488 1032 317 1032 q 504 1021 501 1032 q 503 1004 507 1010 l 439 852 q 423 834 435 844 q 399 824 412 824 l 228 824 q 211 835 214 824 q 213 852 208 846 l 277 1004 q 292 1022 281 1013 q 317 1032 304 1032 z "},"µ":{"ha":906,"x_min":85,"x_max":823,"o":"m 602 868 q 610 888 602 879 q 629 897 618 897 l 794 897 q 815 887 808 897 q 822 868 823 877 l 822 522 l 822 249 q 815 230 822 240 q 794 220 808 220 l 731 220 q 682 230 705 220 q 645 254 659 240 q 620 283 631 269 q 606 307 610 297 l 602 317 q 597 303 602 313 q 584 279 593 293 q 559 252 574 264 q 522 230 545 239 q 472 220 499 220 l 307 220 l 306 220 l 306 -94 q 299 -112 306 -102 q 278 -122 292 -122 l 113 -122 q 93 -112 100 -122 q 85 -94 86 -102 l 85 868 q 93 887 85 877 q 113 897 100 897 l 277 897 q 298 887 291 897 q 306 868 306 877 l 306 441 l 602 441 l 602 868 z "},"¶":{"ha":906,"x_min":85,"x_max":823,"o":"m 794 897 q 815 887 808 897 q 822 868 822 877 l 822 -94 q 815 -112 822 -102 q 794 -122 808 -122 l 629 -122 q 609 -112 616 -122 q 602 -94 602 -102 l 602 676 l 601 676 l 522 676 l 522 -94 q 514 -112 522 -102 q 494 -122 507 -122 l 329 -122 q 309 -112 316 -122 q 301 -94 301 -102 l 301 285 l 113 285 q 93 295 100 285 q 85 313 85 304 l 85 868 q 93 887 85 877 q 113 897 100 897 l 794 897 z "},"·":{"ha":407,"x_min":100,"x_max":321,"o":"m 294 520 q 314 510 307 520 q 321 492 321 500 l 321 313 q 314 295 321 304 q 294 285 307 285 l 129 285 q 109 295 116 285 q 101 313 101 304 l 101 492 q 109 510 101 500 q 129 520 116 520 l 294 520 z "},"»":{"ha":677,"x_min":3,"x_max":668,"o":"m 195 18 q 24 18 195 18 q 7 28 10 18 q 9 46 4 39 l 136 336 l 8 628 q 7 645 4 635 q 24 656 10 656 l 195 656 q 219 646 208 656 q 235 628 231 637 l 357 348 q 357 326 363 337 l 235 46 q 219 27 231 37 q 195 18 208 18 m 500 18 l 329 18 q 312 28 315 18 q 314 46 309 39 l 441 336 l 313 628 q 312 645 309 635 q 329 656 315 656 l 500 656 q 524 646 513 656 q 540 628 536 637 l 663 348 q 663 326 668 337 l 540 46 q 524 27 536 37 q 500 18 513 18 z "},"¿":{"ha":906,"x_min":85,"x_max":821,"o":"m 366 661 q 346 671 353 661 q 338 690 338 681 l 338 868 q 346 887 338 877 q 366 897 353 897 l 531 897 q 551 887 544 897 q 559 868 559 877 l 559 690 q 551 671 559 681 q 531 661 544 661 l 366 661 m 600 98 l 600 151 q 607 170 600 160 q 628 180 614 180 l 793 180 q 813 170 806 180 q 821 151 821 160 l 821 -94 q 813 -112 821 -102 q 793 -122 806 -122 l 113 -122 q 93 -112 100 -122 q 85 -94 85 -102 l 85 460 q 93 479 85 469 q 113 489 100 489 l 174 489 l 340 489 l 340 567 q 347 586 340 576 q 368 595 354 595 l 532 595 q 553 586 545 595 q 560 567 560 576 l 560 528 q 560 517 560 527 l 560 297 q 553 278 560 288 q 532 269 545 269 l 471 269 l 317 269 l 306 269 l 306 98 l 600 98 z "},"À":{"ha":772,"x_min":12,"x_max":764,"o":"m 393 1168 q 418 1158 407 1168 q 433 1139 429 1148 l 498 988 q 499 970 502 981 q 482 960 496 960 l 312 960 q 287 969 298 960 q 271 988 275 979 l 208 1139 q 206 1157 203 1146 q 222 1168 210 1168 l 393 1168 m 507 867 l 761 -94 q 759 -112 763 -102 q 741 -122 754 -122 l 570 -122 q 547 -112 557 -122 q 534 -94 537 -102 l 507 12 l 269 12 l 241 -94 q 229 -112 238 -102 q 205 -122 219 -122 l 35 -122 q 17 -112 22 -122 q 14 -94 12 -102 l 267 867 q 278 885 269 876 q 302 895 288 895 l 472 895 q 495 885 486 895 q 507 867 505 876 m 448 232 l 387 464 l 326 232 l 448 232 z "},"Á":{"ha":772,"x_min":12,"x_max":764,"o":"m 382 1168 q 553 1168 382 1168 q 569 1157 566 1168 q 568 1139 572 1146 l 504 988 q 488 969 500 979 q 464 960 477 960 l 293 960 q 276 970 279 960 q 278 988 273 981 l 342 1139 q 357 1158 346 1148 q 382 1168 369 1168 m 507 867 l 761 -94 q 759 -112 763 -102 q 741 -122 754 -122 l 570 -122 q 547 -112 557 -122 q 534 -94 537 -102 l 507 12 l 269 12 l 241 -94 q 229 -112 238 -102 q 205 -122 219 -122 l 35 -122 q 17 -112 22 -122 q 14 -94 12 -102 l 267 867 q 278 885 269 876 q 302 895 288 895 l 472 895 q 495 885 486 895 q 507 867 505 876 m 448 232 l 387 464 l 326 232 l 448 232 z "},"Â":{"ha":772,"x_min":12,"x_max":764,"o":"m 448 232 l 387 464 l 326 232 l 448 232 m 507 867 l 761 -94 q 759 -112 763 -102 q 741 -122 754 -122 l 570 -122 q 547 -112 557 -122 q 534 -94 537 -102 l 507 12 l 269 12 l 241 -94 q 229 -112 238 -102 q 205 -122 219 -122 l 35 -122 q 17 -112 22 -122 q 14 -94 12 -102 l 267 867 q 278 885 269 876 q 302 895 288 895 l 472 895 q 495 885 486 895 q 507 867 505 876 m 302 1168 l 475 1168 q 500 1158 488 1168 q 515 1139 511 1148 l 579 988 q 581 970 584 981 q 564 960 577 960 l 446 960 q 419 969 433 960 q 399 988 405 979 l 389 1002 l 379 988 q 359 969 373 979 q 331 960 345 960 l 214 960 q 197 970 200 960 q 199 988 194 981 l 262 1139 q 278 1158 267 1148 q 302 1168 290 1168 z "},"Ã":{"ha":772,"x_min":12,"x_max":764,"o":"m 110 933 l 110 1073 q 120 1094 110 1086 q 140 1102 131 1102 l 434 1102 l 434 1145 q 441 1163 434 1154 q 462 1173 449 1173 l 627 1173 q 647 1163 640 1173 q 654 1145 654 1154 l 654 1001 q 643 979 654 987 q 621 972 631 972 l 330 972 l 330 933 q 323 915 330 924 q 302 905 316 905 l 138 905 q 118 915 125 905 q 110 933 111 924 m 448 232 l 387 464 l 326 232 l 448 232 m 507 867 l 761 -94 q 759 -112 763 -102 q 741 -122 754 -122 l 570 -122 q 547 -112 557 -122 q 534 -94 537 -102 l 507 12 l 269 12 l 241 -94 q 229 -112 238 -102 q 205 -122 219 -122 l 35 -122 q 17 -112 22 -122 q 14 -94 12 -102 l 267 867 q 278 885 269 876 q 302 895 288 895 l 472 895 q 495 885 486 895 q 507 867 505 876 z "},"Ä":{"ha":772,"x_min":12,"x_max":764,"o":"m 314 1162 q 335 1152 328 1162 q 342 1133 342 1142 l 342 989 q 335 970 342 980 q 314 960 328 960 l 149 960 q 129 970 136 960 q 121 989 121 980 l 121 1133 q 129 1152 121 1142 q 149 1162 136 1162 l 314 1162 m 633 1162 q 653 1152 646 1162 q 661 1133 661 1142 l 661 989 q 653 970 661 980 q 633 960 646 960 l 468 960 q 448 970 455 960 q 440 989 440 980 l 440 1133 q 448 1152 440 1142 q 468 1162 455 1162 l 633 1162 m 507 867 l 761 -94 q 759 -112 763 -102 q 741 -122 754 -122 l 570 -122 q 547 -112 557 -122 q 534 -94 537 -102 l 507 12 l 269 12 l 241 -94 q 229 -112 238 -102 q 205 -122 219 -122 l 35 -122 q 17 -112 22 -122 q 14 -94 12 -102 l 267 867 q 278 885 269 876 q 302 895 288 895 l 472 895 q 495 885 486 895 q 507 867 505 876 m 448 232 l 387 464 l 326 232 l 448 232 z "},"Å":{"ha":772,"x_min":12,"x_max":764,"o":"m 493 1212 q 523 1198 512 1212 q 534 1171 534 1183 l 534 977 q 523 949 534 964 q 493 935 512 935 l 286 935 q 256 949 267 935 q 245 977 245 964 l 245 1171 q 256 1198 245 1183 q 286 1212 267 1212 l 493 1212 m 414 1100 l 364 1100 q 354 1095 357 1100 q 350 1086 350 1090 l 350 1062 q 354 1052 350 1057 q 364 1047 357 1047 l 414 1047 q 425 1052 421 1047 q 429 1062 429 1057 l 429 1086 q 425 1095 429 1090 q 414 1100 421 1100 m 507 867 l 761 -94 q 759 -112 763 -102 q 741 -122 754 -122 l 570 -122 q 547 -112 557 -122 q 534 -94 537 -102 l 507 12 l 269 12 l 241 -94 q 229 -112 238 -102 q 205 -122 219 -122 l 35 -122 q 17 -112 22 -122 q 14 -94 12 -102 l 267 867 q 278 885 269 876 q 302 895 288 895 l 472 895 q 495 885 486 895 q 507 867 505 876 m 448 232 l 387 464 l 326 232 l 448 232 z "},"Æ":{"ha":1109,"x_min":12,"x_max":1024,"o":"m 302 895 l 996 895 q 1014 888 1004 895 q 1024 867 1024 881 l 1024 703 q 1014 682 1024 690 q 996 675 1004 675 l 645 675 l 645 497 l 829 497 l 883 497 q 901 490 891 497 q 911 469 911 483 l 911 304 q 901 284 911 292 q 883 277 891 277 l 645 277 l 645 97 l 806 97 l 996 97 q 1014 90 1004 97 q 1024 69 1024 83 l 1024 -96 q 1014 -116 1024 -109 q 996 -123 1004 -123 l 752 -123 l 589 -123 l 452 -123 q 432 -114 439 -123 q 425 -95 425 -104 l 425 12 l 269 12 l 241 -94 q 229 -112 238 -102 q 205 -122 219 -122 l 35 -122 q 17 -112 22 -122 q 14 -94 12 -102 l 267 867 q 278 885 269 876 q 302 895 288 895 m 425 232 l 425 604 l 326 232 l 425 232 z "},"Ç":{"ha":906,"x_min":85,"x_max":821,"o":"m 374 -144 l 544 -144 q 561 -155 557 -144 q 559 -172 564 -165 l 495 -323 q 480 -342 492 -332 q 455 -352 469 -352 l 284 -352 q 268 -341 271 -352 q 269 -323 264 -330 l 333 -172 q 349 -154 337 -163 q 374 -144 360 -144 m 306 676 l 306 98 l 600 98 l 600 279 q 607 298 600 288 q 628 308 614 308 l 793 308 q 813 298 806 308 q 821 279 821 288 l 821 -94 q 813 -112 821 -102 q 793 -122 806 -122 l 732 -122 l 250 -122 l 113 -122 q 93 -112 100 -122 q 85 -94 85 -102 l 85 868 q 93 887 85 877 q 113 897 100 897 l 174 897 l 661 897 l 793 897 q 813 887 806 897 q 821 868 821 877 l 821 555 q 813 537 821 547 q 793 527 806 527 l 628 527 q 607 537 614 527 q 600 555 600 547 l 600 676 l 306 676 z "},"È":{"ha":906,"x_min":85,"x_max":821,"o":"m 493 1147 q 517 1138 506 1147 q 533 1119 529 1128 l 597 968 q 598 950 602 961 q 582 939 595 939 l 411 939 q 387 949 398 939 q 371 968 375 959 l 307 1119 q 306 1137 302 1126 q 322 1147 309 1147 l 493 1147 m 306 98 l 602 98 l 792 98 q 811 91 801 98 q 821 71 821 84 l 821 -94 q 811 -115 821 -107 q 792 -122 801 -122 l 413 -122 l 250 -122 l 113 -122 q 93 -112 100 -122 q 85 -94 85 -102 l 85 868 q 93 887 85 877 q 113 897 100 897 l 174 897 l 413 897 l 602 897 l 792 897 q 811 889 801 897 q 821 869 821 882 l 821 704 q 811 684 821 691 q 792 676 801 676 l 306 676 l 306 498 l 490 498 l 680 498 q 697 491 688 498 q 707 471 707 484 l 707 306 q 697 286 707 293 q 680 278 688 278 l 306 278 l 306 98 z "},"É":{"ha":906,"x_min":85,"x_max":821,"o":"m 403 1168 q 574 1168 403 1168 q 590 1157 587 1168 q 589 1139 593 1146 l 525 988 q 509 969 521 979 q 485 960 498 960 l 314 960 q 297 970 300 960 q 299 988 294 981 l 363 1139 q 378 1158 367 1148 q 403 1168 390 1168 m 306 98 l 602 98 l 792 98 q 811 91 801 98 q 821 71 821 84 l 821 -94 q 811 -115 821 -107 q 792 -122 801 -122 l 413 -122 l 250 -122 l 113 -122 q 93 -112 100 -122 q 85 -94 85 -102 l 85 868 q 93 887 85 877 q 113 897 100 897 l 174 897 l 413 897 l 602 897 l 792 897 q 811 889 801 897 q 821 869 821 882 l 821 704 q 811 684 821 691 q 792 676 801 676 l 306 676 l 306 498 l 490 498 l 680 498 q 697 491 688 498 q 707 471 707 484 l 707 306 q 697 286 707 293 q 680 278 688 278 l 306 278 l 306 98 z "},"Ê":{"ha":906,"x_min":85,"x_max":821,"o":"m 400 1168 q 572 1168 400 1168 q 597 1158 586 1168 q 613 1139 609 1148 l 677 988 q 678 970 682 981 q 662 960 675 960 l 544 960 q 516 969 530 960 q 496 988 503 979 l 486 1002 l 477 988 q 456 969 471 979 q 429 960 442 960 l 311 960 q 295 970 298 960 q 296 988 292 981 l 360 1139 q 376 1158 364 1148 q 400 1168 387 1168 m 306 98 l 602 98 l 792 98 q 811 91 801 98 q 821 71 821 84 l 821 -94 q 811 -115 821 -107 q 792 -122 801 -122 l 413 -122 l 250 -122 l 113 -122 q 93 -112 100 -122 q 85 -94 85 -102 l 85 868 q 93 887 85 877 q 113 897 100 897 l 174 897 l 413 897 l 602 897 l 792 897 q 811 889 801 897 q 821 869 821 882 l 821 704 q 811 684 821 691 q 792 676 801 676 l 306 676 l 306 498 l 490 498 l 680 498 q 697 491 688 498 q 707 471 707 484 l 707 306 q 697 286 707 293 q 680 278 688 278 l 306 278 l 306 98 z "},"Ë":{"ha":906,"x_min":85,"x_max":821,"o":"m 372 1162 q 392 1152 385 1162 q 399 1133 399 1142 l 399 989 q 392 970 399 980 q 372 960 385 960 l 207 960 q 186 970 194 960 q 179 989 179 980 l 179 1133 q 186 1152 179 1142 q 207 1162 194 1162 l 372 1162 m 690 1162 q 711 1152 704 1162 q 718 1133 718 1142 l 718 989 q 711 970 718 980 q 690 960 704 960 l 526 960 q 505 970 513 960 q 498 989 498 980 l 498 1133 q 505 1152 498 1142 q 526 1162 513 1162 l 690 1162 m 306 98 l 602 98 l 792 98 q 811 91 801 98 q 821 71 821 84 l 821 -94 q 811 -115 821 -107 q 792 -122 801 -122 l 413 -122 l 250 -122 l 113 -122 q 93 -112 100 -122 q 85 -94 85 -102 l 85 868 q 93 887 85 877 q 113 897 100 897 l 174 897 l 413 897 l 602 897 l 792 897 q 811 889 801 897 q 821 869 821 882 l 821 704 q 811 684 821 691 q 792 676 801 676 l 306 676 l 306 498 l 490 498 l 680 498 q 697 491 688 498 q 707 471 707 484 l 707 306 q 697 286 707 293 q 680 278 688 278 l 306 278 l 306 98 z "},"Ì":{"ha":606,"x_min":85,"x_max":522,"o":"m 311 1168 q 335 1158 323 1168 q 351 1139 347 1148 l 414 988 q 416 970 419 981 q 399 960 413 960 l 229 960 q 203 969 215 960 q 189 988 192 979 l 124 1139 q 123 1157 120 1146 q 140 1168 126 1168 l 311 1168 m 193 676 l 114 676 q 95 684 105 676 q 85 704 85 691 l 85 869 q 95 889 85 882 q 114 897 105 897 l 303 897 l 493 897 q 512 889 502 897 q 522 869 522 882 l 522 704 q 512 684 522 691 q 493 676 502 676 l 414 676 l 414 98 l 493 98 q 512 91 502 98 q 522 71 522 84 l 522 -94 q 512 -115 522 -107 q 493 -122 502 -122 l 303 -122 l 114 -122 q 95 -115 105 -122 q 85 -94 85 -107 l 85 71 q 95 91 85 84 q 114 98 105 98 l 193 98 l 193 676 z "},"Í":{"ha":606,"x_min":85,"x_max":522,"o":"m 317 1168 q 488 1168 317 1168 q 504 1157 501 1168 q 503 1139 507 1146 l 439 988 q 423 969 435 979 q 399 960 412 960 l 228 960 q 211 970 214 960 q 213 988 208 981 l 277 1139 q 292 1158 281 1148 q 317 1168 304 1168 m 193 676 l 114 676 q 95 684 105 676 q 85 704 85 691 l 85 869 q 95 889 85 882 q 114 897 105 897 l 303 897 l 493 897 q 512 889 502 897 q 522 869 522 882 l 522 704 q 512 684 522 691 q 493 676 502 676 l 414 676 l 414 98 l 493 98 q 512 91 502 98 q 522 71 522 84 l 522 -94 q 512 -115 522 -107 q 493 -122 502 -122 l 303 -122 l 114 -122 q 95 -115 105 -122 q 85 -94 85 -107 l 85 71 q 95 91 85 84 q 114 98 105 98 l 193 98 l 193 676 z "},"Î":{"ha":606,"x_min":85,"x_max":522,"o":"m 218 1168 q 391 1168 218 1168 q 416 1158 404 1168 q 431 1139 427 1148 l 495 988 q 496 970 500 981 q 480 960 493 960 l 362 960 q 335 969 349 960 q 315 988 321 979 l 304 1002 l 295 988 q 275 969 289 979 q 247 960 260 960 l 130 960 q 113 970 116 960 q 115 988 110 981 l 178 1139 q 194 1158 182 1148 q 218 1168 205 1168 m 193 676 l 114 676 q 95 684 105 676 q 85 704 85 691 l 85 869 q 95 889 85 882 q 114 897 105 897 l 303 897 l 493 897 q 512 889 502 897 q 522 869 522 882 l 522 704 q 512 684 522 691 q 493 676 502 676 l 414 676 l 414 98 l 493 98 q 512 91 502 98 q 522 71 522 84 l 522 -94 q 512 -115 522 -107 q 493 -122 502 -122 l 303 -122 l 114 -122 q 95 -115 105 -122 q 85 -94 85 -107 l 85 71 q 95 91 85 84 q 114 98 105 98 l 193 98 l 193 676 z "},"Ï":{"ha":606,"x_min":31,"x_max":571,"o":"m 224 1162 q 245 1152 237 1162 q 252 1133 252 1142 l 252 989 q 245 970 252 980 q 224 960 237 960 l 60 960 q 39 970 47 960 q 32 989 32 980 l 32 1133 q 39 1152 32 1142 q 60 1162 47 1162 l 224 1162 m 543 1162 q 564 1152 556 1162 q 571 1133 571 1142 l 571 989 q 564 970 571 980 q 543 960 556 960 l 378 960 q 358 970 366 960 q 351 989 351 980 l 351 1133 q 358 1152 351 1142 q 378 1162 366 1162 l 543 1162 m 193 676 l 114 676 q 95 684 105 676 q 85 704 85 691 l 85 869 q 95 889 85 882 q 114 897 105 897 l 303 897 l 493 897 q 512 889 502 897 q 522 869 522 882 l 522 704 q 512 684 522 691 q 493 676 502 676 l 414 676 l 414 98 l 493 98 q 512 91 502 98 q 522 71 522 84 l 522 -94 q 512 -115 522 -107 q 493 -122 502 -122 l 303 -122 l 114 -122 q 95 -115 105 -122 q 85 -94 85 -107 l 85 71 q 95 91 85 84 q 114 98 105 98 l 193 98 l 193 676 z "},"Ð":{"ha":974,"x_min":85,"x_max":888,"o":"m 668 98 l 668 676 l 480 676 l 414 676 l 414 500 l 463 500 q 484 492 473 500 q 495 471 495 484 l 495 331 q 484 310 495 317 q 463 302 473 302 l 414 302 l 414 98 l 668 98 m 193 676 l 114 676 q 95 684 105 676 q 85 704 85 691 l 85 869 q 95 889 85 882 q 114 897 105 897 q 800 897 707 897 l 861 897 q 881 887 873 897 q 888 868 888 877 l 888 -94 q 881 -112 888 -102 q 861 -122 873 -122 l 724 -122 l 114 -122 q 95 -115 105 -122 q 85 -94 85 -107 l 85 71 q 95 91 85 84 q 114 98 105 98 l 193 98 l 193 302 l 166 302 q 146 309 157 302 q 136 331 136 317 l 136 471 q 146 492 136 485 q 166 500 157 500 l 193 500 l 193 676 z "},"Ñ":{"ha":906,"x_min":85,"x_max":822,"o":"m 313 897 q 338 887 327 897 q 354 868 350 877 l 601 314 l 601 868 q 609 887 601 877 q 629 897 616 897 l 793 897 q 814 887 807 897 q 821 868 821 877 l 821 -94 q 814 -112 821 -102 q 793 -122 807 -122 l 768 -122 l 768 -123 l 597 -123 q 572 -113 584 -123 q 557 -94 561 -103 l 306 469 l 306 -94 q 299 -112 306 -102 q 278 -122 292 -122 l 113 -122 q 93 -112 100 -122 q 85 -94 85 -102 l 85 868 q 93 887 85 877 q 114 897 101 897 l 313 897 m 195 933 l 195 1073 q 205 1094 195 1086 q 224 1102 216 1102 l 519 1102 l 519 1145 q 526 1163 519 1154 q 547 1173 534 1173 l 711 1173 q 732 1163 724 1173 q 739 1145 739 1154 l 739 1001 q 728 979 739 987 q 706 972 716 972 l 415 972 l 415 933 q 408 915 415 924 q 387 905 401 905 l 222 905 q 202 915 210 905 q 195 933 195 924 z "},"Ò":{"ha":974,"x_min":85,"x_max":888,"o":"m 528 1168 q 552 1158 541 1168 q 568 1139 564 1148 l 631 988 q 633 970 636 981 q 616 960 630 960 l 446 960 q 420 969 432 960 q 406 988 409 979 l 341 1139 q 340 1157 337 1146 q 357 1168 343 1168 l 528 1168 m 888 868 l 888 -94 q 881 -112 888 -102 q 861 -122 873 -122 l 724 -122 l 174 -122 l 113 -122 q 93 -112 100 -122 q 85 -94 85 -102 l 85 868 q 93 887 85 877 q 113 897 100 897 l 245 897 l 800 897 l 861 897 q 881 887 873 897 q 888 868 888 877 m 668 98 l 668 676 l 306 676 l 306 98 l 668 98 z "},"Ó":{"ha":974,"x_min":85,"x_max":888,"o":"m 446 1168 l 617 1168 q 634 1157 631 1168 q 632 1139 637 1146 l 568 988 q 553 969 564 979 q 528 960 541 960 l 357 960 q 341 970 344 960 q 342 988 338 981 l 406 1139 q 422 1158 410 1148 q 446 1168 433 1168 m 888 868 l 888 -94 q 881 -112 888 -102 q 861 -122 873 -122 l 724 -122 l 174 -122 l 113 -122 q 93 -112 100 -122 q 85 -94 85 -102 l 85 868 q 93 887 85 877 q 113 897 100 897 l 245 897 l 800 897 l 861 897 q 881 887 873 897 q 888 868 888 877 m 668 98 l 668 676 l 306 676 l 306 98 l 668 98 z "},"Ô":{"ha":974,"x_min":85,"x_max":888,"o":"m 400 1168 q 572 1168 400 1168 q 597 1158 586 1168 q 613 1139 609 1148 l 677 988 q 678 970 682 981 q 662 960 675 960 l 544 960 q 516 969 530 960 q 496 988 503 979 l 486 1002 l 477 988 q 456 969 471 979 q 429 960 442 960 l 311 960 q 295 970 298 960 q 296 988 292 981 l 360 1139 q 376 1158 364 1148 q 400 1168 387 1168 m 888 868 l 888 -94 q 881 -112 888 -102 q 861 -122 873 -122 l 724 -122 l 174 -122 l 113 -122 q 93 -112 100 -122 q 85 -94 85 -102 l 85 868 q 93 887 85 877 q 113 897 100 897 l 245 897 l 800 897 l 861 897 q 881 887 873 897 q 888 868 888 877 m 668 98 l 668 676 l 306 676 l 306 98 l 668 98 z "},"Õ":{"ha":974,"x_min":85,"x_max":888,"o":"m 214 953 l 214 1073 q 225 1094 214 1086 q 244 1102 235 1102 l 538 1102 l 538 1145 q 546 1163 538 1154 q 566 1173 553 1173 l 731 1173 q 751 1163 744 1173 q 759 1145 759 1154 l 759 1001 q 747 979 759 987 q 726 972 736 972 l 435 972 l 435 953 q 428 934 435 944 q 407 924 420 924 l 242 924 q 222 934 229 924 q 214 953 215 944 m 888 868 l 888 -94 q 881 -112 888 -102 q 861 -122 873 -122 l 724 -122 l 174 -122 l 113 -122 q 93 -112 100 -122 q 85 -94 85 -102 l 85 868 q 93 887 85 877 q 113 897 100 897 l 245 897 l 800 897 l 861 897 q 881 887 873 897 q 888 868 888 877 m 668 98 l 668 676 l 306 676 l 306 98 l 668 98 z "},"Ö":{"ha":974,"x_min":85,"x_max":888,"o":"m 413 1162 q 434 1152 427 1162 q 441 1133 441 1142 l 441 989 q 434 970 441 980 q 413 960 427 960 l 248 960 q 228 970 235 960 q 220 989 220 980 l 220 1133 q 228 1152 220 1142 q 248 1162 235 1162 l 413 1162 m 732 1162 q 752 1152 745 1162 q 760 1133 760 1142 l 760 989 q 752 970 760 980 q 732 960 745 960 l 567 960 q 547 970 554 960 q 539 989 539 980 l 539 1133 q 547 1152 539 1142 q 567 1162 554 1162 l 732 1162 m 888 868 l 888 -94 q 881 -112 888 -102 q 861 -122 873 -122 l 724 -122 l 174 -122 l 113 -122 q 93 -112 100 -122 q 85 -94 85 -102 l 85 868 q 93 887 85 877 q 113 897 100 897 l 245 897 l 800 897 l 861 897 q 881 887 873 897 q 888 868 888 877 m 668 98 l 668 676 l 306 676 l 306 98 l 668 98 z "},"×":{"ha":829,"x_min":160,"x_max":674,"o":"m 524 647 q 534 654 528 651 q 551 656 541 657 q 567 649 560 656 l 665 550 q 673 534 672 543 q 670 518 673 525 q 664 507 667 511 l 557 401 l 664 294 q 670 284 667 291 q 673 268 673 277 q 665 252 672 258 l 567 153 q 551 145 560 146 q 534 148 541 144 q 524 155 528 151 l 418 261 l 310 153 q 299 146 306 149 q 284 145 293 144 q 268 153 275 146 l 170 252 q 162 267 163 258 q 163 283 161 276 q 170 293 166 290 l 277 401 l 170 509 q 163 519 166 512 q 162 534 161 526 q 170 550 163 543 l 268 649 q 284 657 275 656 q 299 655 293 658 q 310 648 306 652 l 418 541 l 524 647 z "},"Ø":{"ha":974,"x_min":85,"x_max":888,"o":"m 888 868 l 888 -94 q 881 -112 888 -102 q 861 -122 873 -122 l 466 -122 q 450 -182 458 -152 q 438 -201 448 -191 q 414 -211 428 -211 l 244 -211 q 226 -201 231 -211 q 224 -182 221 -191 q 239 -122 231 -152 l 113 -122 q 93 -112 100 -122 q 85 -94 85 -102 l 85 868 q 93 887 85 877 q 113 897 100 897 l 505 897 q 517 945 511 921 q 530 964 520 954 q 553 973 539 973 l 724 973 q 742 964 737 973 q 744 945 746 954 q 731 897 737 921 l 861 897 q 881 887 873 897 q 888 868 888 877 m 448 676 l 306 676 l 306 132 q 448 676 376 404 m 668 654 q 523 98 595 376 l 668 98 l 668 654 z "},"Ù":{"ha":906,"x_min":85,"x_max":822,"o":"m 496 1168 q 521 1158 509 1168 q 536 1139 532 1148 l 600 988 q 602 970 605 981 q 585 960 598 960 l 414 960 q 389 969 401 960 q 374 988 378 979 l 310 1139 q 309 1157 305 1146 q 326 1168 312 1168 l 496 1168 m 85 -94 l 85 868 q 93 887 85 877 q 113 897 100 897 l 278 897 q 299 887 292 897 q 306 868 307 877 l 306 98 l 601 98 l 601 868 q 609 887 602 877 q 629 897 616 897 l 793 897 q 814 887 807 897 q 821 868 821 877 l 821 -94 q 814 -112 821 -102 q 793 -122 806 -122 l 601 -122 l 113 -122 q 93 -112 100 -122 q 85 -94 85 -102 z "},"Ú":{"ha":906,"x_min":85,"x_max":822,"o":"m 411 1168 l 582 1168 q 598 1157 595 1168 q 597 1139 602 1146 l 533 988 q 517 969 529 979 q 493 960 506 960 l 322 960 q 306 970 309 960 q 307 988 302 981 l 371 1139 q 387 1158 375 1148 q 411 1168 398 1168 m 85 -94 l 85 868 q 93 887 85 877 q 113 897 100 897 l 278 897 q 299 887 292 897 q 306 868 307 877 l 306 98 l 601 98 l 601 868 q 609 887 602 877 q 629 897 616 897 l 793 897 q 814 887 807 897 q 821 868 821 877 l 821 -94 q 814 -112 821 -102 q 793 -122 806 -122 l 601 -122 l 113 -122 q 93 -112 100 -122 q 85 -94 85 -102 z "},"Û":{"ha":906,"x_min":85,"x_max":822,"o":"m 360 1168 q 532 1168 360 1168 q 557 1158 546 1168 q 573 1139 569 1148 l 637 988 q 638 970 642 981 q 622 960 635 960 l 504 960 q 476 969 490 960 q 456 988 463 979 l 446 1002 l 437 988 q 416 969 431 979 q 389 960 402 960 l 271 960 q 255 970 258 960 q 256 988 252 981 l 320 1139 q 336 1158 324 1148 q 360 1168 347 1168 m 85 -94 l 85 868 q 93 887 85 877 q 113 897 100 897 l 278 897 q 299 887 292 897 q 306 868 307 877 l 306 98 l 601 98 l 601 868 q 609 887 602 877 q 629 897 616 897 l 793 897 q 814 887 807 897 q 821 868 821 877 l 821 -94 q 814 -112 821 -102 q 793 -122 806 -122 l 601 -122 l 113 -122 q 93 -112 100 -122 q 85 -94 85 -102 z "},"Ü":{"ha":906,"x_min":85,"x_max":822,"o":"m 376 1162 q 397 1152 390 1162 q 404 1133 404 1142 l 404 989 q 397 970 404 980 q 376 960 390 960 l 212 960 q 191 970 199 960 q 184 989 184 980 l 184 1133 q 191 1152 184 1142 q 212 1162 199 1162 l 376 1162 m 695 1162 q 716 1152 709 1162 q 723 1133 723 1142 l 723 989 q 716 970 723 980 q 695 960 709 960 l 530 960 q 510 970 517 960 q 503 989 503 980 l 503 1133 q 510 1152 503 1142 q 530 1162 517 1162 l 695 1162 m 85 -94 l 85 868 q 93 887 85 877 q 113 897 100 897 l 278 897 q 299 887 292 897 q 306 868 307 877 l 306 98 l 601 98 l 601 868 q 609 887 602 877 q 629 897 616 897 l 793 897 q 814 887 807 897 q 821 868 821 877 l 821 -94 q 814 -112 821 -102 q 793 -122 806 -122 l 601 -122 l 113 -122 q 93 -112 100 -122 q 85 -94 85 -102 z "},"Ý":{"ha":810,"x_min":5,"x_max":806,"o":"m 368 1168 l 538 1168 q 555 1157 552 1168 q 553 1139 558 1146 l 490 988 q 474 969 486 979 q 450 960 463 960 l 279 960 q 262 970 265 960 q 264 988 259 981 l 328 1139 q 343 1158 332 1148 q 368 1168 355 1168 m 196 897 q 221 887 210 897 q 237 868 233 877 l 405 488 l 575 868 q 591 887 579 877 q 616 897 602 897 l 786 897 q 803 886 800 897 q 802 868 806 875 l 517 234 l 517 -94 q 510 -112 517 -102 q 490 -122 503 -122 l 325 -122 q 304 -112 311 -122 q 297 -94 297 -102 l 297 222 l 10 868 q 9 886 5 875 q 26 897 12 897 l 196 897 z "},"Þ":{"ha":906,"x_min":85,"x_max":821,"o":"m 600 475 l 306 475 l 306 279 l 490 279 l 600 279 l 600 475 m 85 -94 l 85 868 q 92 887 85 877 q 113 897 100 897 l 277 897 q 298 887 291 897 q 305 868 305 877 l 305 696 l 628 696 l 792 696 q 812 686 805 696 q 820 667 820 676 l 820 87 q 812 68 820 78 q 792 58 805 58 l 306 58 l 306 -94 q 298 -112 306 -102 q 278 -122 291 -122 l 113 -122 q 93 -112 100 -122 q 85 -94 85 -102 z "},"ß":{"ha":857,"x_min":85,"x_max":777,"o":"m 515 515 l 515 676 l 306 676 l 306 -94 q 299 -112 306 -102 q 278 -122 292 -122 l 113 -122 q 93 -112 100 -122 q 85 -94 85 -102 l 85 868 q 93 887 85 877 q 113 897 100 897 l 708 897 q 728 886 720 897 q 736 868 736 876 l 736 474 q 729 444 736 456 q 712 424 722 431 q 692 415 702 418 q 674 412 683 412 q 692 410 682 412 q 719 402 703 409 q 746 386 734 396 q 767 354 758 375 q 777 306 777 334 l 777 -94 q 769 -112 777 -102 q 749 -122 762 -122 l 397 -122 q 378 -115 388 -122 q 368 -94 368 -107 l 368 71 q 378 91 368 84 q 397 98 388 98 l 556 98 l 556 294 l 409 294 q 390 301 400 294 q 380 322 380 309 l 380 487 q 390 507 380 500 q 409 515 400 515 q 462 515 411 515 q 515 515 513 515 z "},"à":{"ha":772,"x_min":12,"x_max":764,"o":"m 393 1168 q 418 1158 407 1168 q 433 1139 429 1148 l 498 988 q 499 970 502 981 q 482 960 496 960 l 312 960 q 287 969 298 960 q 271 988 275 979 l 208 1139 q 206 1157 203 1146 q 222 1168 210 1168 l 393 1168 m 507 867 l 761 -94 q 759 -112 763 -102 q 741 -122 754 -122 l 570 -122 q 547 -112 557 -122 q 534 -94 537 -102 l 507 12 l 269 12 l 241 -94 q 229 -112 238 -102 q 205 -122 219 -122 l 35 -122 q 17 -112 22 -122 q 14 -94 12 -102 l 267 867 q 278 885 269 876 q 302 895 288 895 l 472 895 q 495 885 486 895 q 507 867 505 876 m 448 232 l 387 464 l 326 232 l 448 232 z "},"á":{"ha":772,"x_min":12,"x_max":764,"o":"m 382 1168 q 553 1168 382 1168 q 569 1157 566 1168 q 568 1139 572 1146 l 504 988 q 488 969 500 979 q 464 960 477 960 l 293 960 q 276 970 279 960 q 278 988 273 981 l 342 1139 q 357 1158 346 1148 q 382 1168 369 1168 m 507 867 l 761 -94 q 759 -112 763 -102 q 741 -122 754 -122 l 570 -122 q 547 -112 557 -122 q 534 -94 537 -102 l 507 12 l 269 12 l 241 -94 q 229 -112 238 -102 q 205 -122 219 -122 l 35 -122 q 17 -112 22 -122 q 14 -94 12 -102 l 267 867 q 278 885 269 876 q 302 895 288 895 l 472 895 q 495 885 486 895 q 507 867 505 876 m 448 232 l 387 464 l 326 232 l 448 232 z "},"â":{"ha":772,"x_min":12,"x_max":764,"o":"m 448 232 l 387 464 l 326 232 l 448 232 m 507 867 l 761 -94 q 759 -112 763 -102 q 741 -122 754 -122 l 570 -122 q 547 -112 557 -122 q 534 -94 537 -102 l 507 12 l 269 12 l 241 -94 q 229 -112 238 -102 q 205 -122 219 -122 l 35 -122 q 17 -112 22 -122 q 14 -94 12 -102 l 267 867 q 278 885 269 876 q 302 895 288 895 l 472 895 q 495 885 486 895 q 507 867 505 876 m 302 1168 l 475 1168 q 500 1158 488 1168 q 515 1139 511 1148 l 579 988 q 581 970 584 981 q 564 960 577 960 l 446 960 q 419 969 433 960 q 399 988 405 979 l 389 1002 l 379 988 q 359 969 373 979 q 331 960 345 960 l 214 960 q 197 970 200 960 q 199 988 194 981 l 262 1139 q 278 1158 267 1148 q 302 1168 290 1168 z "},"ã":{"ha":772,"x_min":12,"x_max":764,"o":"m 110 933 l 110 1073 q 120 1094 110 1086 q 140 1102 131 1102 l 434 1102 l 434 1145 q 441 1163 434 1154 q 462 1173 449 1173 l 627 1173 q 647 1163 640 1173 q 654 1145 654 1154 l 654 1001 q 643 979 654 987 q 621 972 631 972 l 330 972 l 330 933 q 323 915 330 924 q 302 905 316 905 l 138 905 q 118 915 125 905 q 110 933 111 924 m 448 232 l 387 464 l 326 232 l 448 232 m 507 867 l 761 -94 q 759 -112 763 -102 q 741 -122 754 -122 l 570 -122 q 547 -112 557 -122 q 534 -94 537 -102 l 507 12 l 269 12 l 241 -94 q 229 -112 238 -102 q 205 -122 219 -122 l 35 -122 q 17 -112 22 -122 q 14 -94 12 -102 l 267 867 q 278 885 269 876 q 302 895 288 895 l 472 895 q 495 885 486 895 q 507 867 505 876 z "},"ä":{"ha":772,"x_min":12,"x_max":764,"o":"m 314 1162 q 335 1152 328 1162 q 342 1133 342 1142 l 342 989 q 335 970 342 980 q 314 960 328 960 l 149 960 q 129 970 136 960 q 121 989 121 980 l 121 1133 q 129 1152 121 1142 q 149 1162 136 1162 l 314 1162 m 633 1162 q 653 1152 646 1162 q 661 1133 661 1142 l 661 989 q 653 970 661 980 q 633 960 646 960 l 468 960 q 448 970 455 960 q 440 989 440 980 l 440 1133 q 448 1152 440 1142 q 468 1162 455 1162 l 633 1162 m 507 867 l 761 -94 q 759 -112 763 -102 q 741 -122 754 -122 l 570 -122 q 547 -112 557 -122 q 534 -94 537 -102 l 507 12 l 269 12 l 241 -94 q 229 -112 238 -102 q 205 -122 219 -122 l 35 -122 q 17 -112 22 -122 q 14 -94 12 -102 l 267 867 q 278 885 269 876 q 302 895 288 895 l 472 895 q 495 885 486 895 q 507 867 505 876 m 448 232 l 387 464 l 326 232 l 448 232 z "},"å":{"ha":772,"x_min":12,"x_max":764,"o":"m 493 1212 q 523 1198 512 1212 q 534 1171 534 1183 l 534 977 q 523 949 534 964 q 493 935 512 935 l 286 935 q 256 949 267 935 q 245 977 245 964 l 245 1171 q 256 1198 245 1183 q 286 1212 267 1212 l 493 1212 m 414 1100 l 364 1100 q 354 1095 357 1100 q 350 1086 350 1090 l 350 1062 q 354 1052 350 1057 q 364 1047 357 1047 l 414 1047 q 425 1052 421 1047 q 429 1062 429 1057 l 429 1086 q 425 1095 429 1090 q 414 1100 421 1100 m 507 867 l 761 -94 q 759 -112 763 -102 q 741 -122 754 -122 l 570 -122 q 547 -112 557 -122 q 534 -94 537 -102 l 507 12 l 269 12 l 241 -94 q 229 -112 238 -102 q 205 -122 219 -122 l 35 -122 q 17 -112 22 -122 q 14 -94 12 -102 l 267 867 q 278 885 269 876 q 302 895 288 895 l 472 895 q 495 885 486 895 q 507 867 505 876 m 448 232 l 387 464 l 326 232 l 448 232 z "},"æ":{"ha":1109,"x_min":12,"x_max":1024,"o":"m 302 895 l 996 895 q 1014 888 1004 895 q 1024 867 1024 881 l 1024 703 q 1014 682 1024 690 q 996 675 1004 675 l 645 675 l 645 497 l 829 497 l 883 497 q 901 490 891 497 q 911 469 911 483 l 911 304 q 901 284 911 292 q 883 277 891 277 l 645 277 l 645 97 l 806 97 l 996 97 q 1014 90 1004 97 q 1024 69 1024 83 l 1024 -96 q 1014 -116 1024 -109 q 996 -123 1004 -123 l 752 -123 l 589 -123 l 452 -123 q 432 -114 439 -123 q 425 -95 425 -104 l 425 12 l 269 12 l 241 -94 q 229 -112 238 -102 q 205 -122 219 -122 l 35 -122 q 17 -112 22 -122 q 14 -94 12 -102 l 267 867 q 278 885 269 876 q 302 895 288 895 m 425 232 l 425 604 l 326 232 l 425 232 z "},"ç":{"ha":906,"x_min":85,"x_max":821,"o":"m 374 -144 l 544 -144 q 561 -155 557 -144 q 559 -172 564 -165 l 495 -323 q 480 -342 492 -332 q 455 -352 469 -352 l 284 -352 q 268 -341 271 -352 q 269 -323 264 -330 l 333 -172 q 349 -154 337 -163 q 374 -144 360 -144 m 306 676 l 306 98 l 600 98 l 600 279 q 607 298 600 288 q 628 308 614 308 l 793 308 q 813 298 806 308 q 821 279 821 288 l 821 -94 q 813 -112 821 -102 q 793 -122 806 -122 l 732 -122 l 250 -122 l 113 -122 q 93 -112 100 -122 q 85 -94 85 -102 l 85 868 q 93 887 85 877 q 113 897 100 897 l 174 897 l 661 897 l 793 897 q 813 887 806 897 q 821 868 821 877 l 821 555 q 813 537 821 547 q 793 527 806 527 l 628 527 q 607 537 614 527 q 600 555 600 547 l 600 676 l 306 676 z "},"è":{"ha":906,"x_min":85,"x_max":821,"o":"m 493 1147 q 517 1138 506 1147 q 533 1119 529 1128 l 597 968 q 598 950 602 961 q 582 939 595 939 l 411 939 q 387 949 398 939 q 371 968 375 959 l 307 1119 q 306 1137 302 1126 q 322 1147 309 1147 l 493 1147 m 306 98 l 602 98 l 792 98 q 811 91 801 98 q 821 71 821 84 l 821 -94 q 811 -115 821 -107 q 792 -122 801 -122 l 413 -122 l 250 -122 l 113 -122 q 93 -112 100 -122 q 85 -94 85 -102 l 85 868 q 93 887 85 877 q 113 897 100 897 l 174 897 l 413 897 l 602 897 l 792 897 q 811 889 801 897 q 821 869 821 882 l 821 704 q 811 684 821 691 q 792 676 801 676 l 306 676 l 306 498 l 490 498 l 680 498 q 697 491 688 498 q 707 471 707 484 l 707 306 q 697 286 707 293 q 680 278 688 278 l 306 278 l 306 98 z "},"é":{"ha":906,"x_min":85,"x_max":821,"o":"m 403 1168 q 574 1168 403 1168 q 590 1157 587 1168 q 589 1139 593 1146 l 525 988 q 509 969 521 979 q 485 960 498 960 l 314 960 q 297 970 300 960 q 299 988 294 981 l 363 1139 q 378 1158 367 1148 q 403 1168 390 1168 m 306 98 l 602 98 l 792 98 q 811 91 801 98 q 821 71 821 84 l 821 -94 q 811 -115 821 -107 q 792 -122 801 -122 l 413 -122 l 250 -122 l 113 -122 q 93 -112 100 -122 q 85 -94 85 -102 l 85 868 q 93 887 85 877 q 113 897 100 897 l 174 897 l 413 897 l 602 897 l 792 897 q 811 889 801 897 q 821 869 821 882 l 821 704 q 811 684 821 691 q 792 676 801 676 l 306 676 l 306 498 l 490 498 l 680 498 q 697 491 688 498 q 707 471 707 484 l 707 306 q 697 286 707 293 q 680 278 688 278 l 306 278 l 306 98 z "},"ê":{"ha":906,"x_min":85,"x_max":821,"o":"m 400 1168 q 572 1168 400 1168 q 597 1158 586 1168 q 613 1139 609 1148 l 677 988 q 678 970 682 981 q 662 960 675 960 l 544 960 q 516 969 530 960 q 496 988 503 979 l 486 1002 l 477 988 q 456 969 471 979 q 429 960 442 960 l 311 960 q 295 970 298 960 q 296 988 292 981 l 360 1139 q 376 1158 364 1148 q 400 1168 387 1168 m 306 98 l 602 98 l 792 98 q 811 91 801 98 q 821 71 821 84 l 821 -94 q 811 -115 821 -107 q 792 -122 801 -122 l 413 -122 l 250 -122 l 113 -122 q 93 -112 100 -122 q 85 -94 85 -102 l 85 868 q 93 887 85 877 q 113 897 100 897 l 174 897 l 413 897 l 602 897 l 792 897 q 811 889 801 897 q 821 869 821 882 l 821 704 q 811 684 821 691 q 792 676 801 676 l 306 676 l 306 498 l 490 498 l 680 498 q 697 491 688 498 q 707 471 707 484 l 707 306 q 697 286 707 293 q 680 278 688 278 l 306 278 l 306 98 z "},"ë":{"ha":906,"x_min":85,"x_max":821,"o":"m 372 1162 q 392 1152 385 1162 q 399 1133 399 1142 l 399 989 q 392 970 399 980 q 372 960 385 960 l 207 960 q 186 970 194 960 q 179 989 179 980 l 179 1133 q 186 1152 179 1142 q 207 1162 194 1162 l 372 1162 m 690 1162 q 711 1152 704 1162 q 718 1133 718 1142 l 718 989 q 711 970 718 980 q 690 960 704 960 l 526 960 q 505 970 513 960 q 498 989 498 980 l 498 1133 q 505 1152 498 1142 q 526 1162 513 1162 l 690 1162 m 306 98 l 602 98 l 792 98 q 811 91 801 98 q 821 71 821 84 l 821 -94 q 811 -115 821 -107 q 792 -122 801 -122 l 413 -122 l 250 -122 l 113 -122 q 93 -112 100 -122 q 85 -94 85 -102 l 85 868 q 93 887 85 877 q 113 897 100 897 l 174 897 l 413 897 l 602 897 l 792 897 q 811 889 801 897 q 821 869 821 882 l 821 704 q 811 684 821 691 q 792 676 801 676 l 306 676 l 306 498 l 490 498 l 680 498 q 697 491 688 498 q 707 471 707 484 l 707 306 q 697 286 707 293 q 680 278 688 278 l 306 278 l 306 98 z "},"ì":{"ha":606,"x_min":85,"x_max":522,"o":"m 311 1168 q 335 1158 323 1168 q 351 1139 347 1148 l 414 988 q 416 970 419 981 q 399 960 413 960 l 229 960 q 203 969 215 960 q 189 988 192 979 l 124 1139 q 123 1157 120 1146 q 140 1168 126 1168 l 311 1168 m 193 676 l 114 676 q 95 684 105 676 q 85 704 85 691 l 85 869 q 95 889 85 882 q 114 897 105 897 l 303 897 l 493 897 q 512 889 502 897 q 522 869 522 882 l 522 704 q 512 684 522 691 q 493 676 502 676 l 414 676 l 414 98 l 493 98 q 512 91 502 98 q 522 71 522 84 l 522 -94 q 512 -115 522 -107 q 493 -122 502 -122 l 303 -122 l 114 -122 q 95 -115 105 -122 q 85 -94 85 -107 l 85 71 q 95 91 85 84 q 114 98 105 98 l 193 98 l 193 676 z "},"í":{"ha":606,"x_min":85,"x_max":522,"o":"m 317 1168 q 488 1168 317 1168 q 504 1157 501 1168 q 503 1139 507 1146 l 439 988 q 423 969 435 979 q 399 960 412 960 l 228 960 q 211 970 214 960 q 213 988 208 981 l 277 1139 q 292 1158 281 1148 q 317 1168 304 1168 m 193 676 l 114 676 q 95 684 105 676 q 85 704 85 691 l 85 869 q 95 889 85 882 q 114 897 105 897 l 303 897 l 493 897 q 512 889 502 897 q 522 869 522 882 l 522 704 q 512 684 522 691 q 493 676 502 676 l 414 676 l 414 98 l 493 98 q 512 91 502 98 q 522 71 522 84 l 522 -94 q 512 -115 522 -107 q 493 -122 502 -122 l 303 -122 l 114 -122 q 95 -115 105 -122 q 85 -94 85 -107 l 85 71 q 95 91 85 84 q 114 98 105 98 l 193 98 l 193 676 z "},"î":{"ha":606,"x_min":85,"x_max":522,"o":"m 218 1168 q 391 1168 218 1168 q 416 1158 404 1168 q 431 1139 427 1148 l 495 988 q 496 970 500 981 q 480 960 493 960 l 362 960 q 335 969 349 960 q 315 988 321 979 l 304 1002 l 295 988 q 275 969 289 979 q 247 960 260 960 l 130 960 q 113 970 116 960 q 115 988 110 981 l 178 1139 q 194 1158 182 1148 q 218 1168 205 1168 m 193 676 l 114 676 q 95 684 105 676 q 85 704 85 691 l 85 869 q 95 889 85 882 q 114 897 105 897 l 303 897 l 493 897 q 512 889 502 897 q 522 869 522 882 l 522 704 q 512 684 522 691 q 493 676 502 676 l 414 676 l 414 98 l 493 98 q 512 91 502 98 q 522 71 522 84 l 522 -94 q 512 -115 522 -107 q 493 -122 502 -122 l 303 -122 l 114 -122 q 95 -115 105 -122 q 85 -94 85 -107 l 85 71 q 95 91 85 84 q 114 98 105 98 l 193 98 l 193 676 z "},"ï":{"ha":606,"x_min":31,"x_max":571,"o":"m 224 1162 q 245 1152 237 1162 q 252 1133 252 1142 l 252 989 q 245 970 252 980 q 224 960 237 960 l 60 960 q 39 970 47 960 q 32 989 32 980 l 32 1133 q 39 1152 32 1142 q 60 1162 47 1162 l 224 1162 m 543 1162 q 564 1152 556 1162 q 571 1133 571 1142 l 571 989 q 564 970 571 980 q 543 960 556 960 l 378 960 q 358 970 366 960 q 351 989 351 980 l 351 1133 q 358 1152 351 1142 q 378 1162 366 1162 l 543 1162 m 193 676 l 114 676 q 95 684 105 676 q 85 704 85 691 l 85 869 q 95 889 85 882 q 114 897 105 897 l 303 897 l 493 897 q 512 889 502 897 q 522 869 522 882 l 522 704 q 512 684 522 691 q 493 676 502 676 l 414 676 l 414 98 l 493 98 q 512 91 502 98 q 522 71 522 84 l 522 -94 q 512 -115 522 -107 q 493 -122 502 -122 l 303 -122 l 114 -122 q 95 -115 105 -122 q 85 -94 85 -107 l 85 71 q 95 91 85 84 q 114 98 105 98 l 193 98 l 193 676 z "},"ð":{"ha":974,"x_min":85,"x_max":888,"o":"m 668 98 l 668 676 l 480 676 l 414 676 l 414 500 l 463 500 q 484 492 473 500 q 495 471 495 484 l 495 331 q 484 310 495 317 q 463 302 473 302 l 414 302 l 414 98 l 668 98 m 193 676 l 114 676 q 95 684 105 676 q 85 704 85 691 l 85 869 q 95 889 85 882 q 114 897 105 897 q 800 897 707 897 l 861 897 q 881 887 873 897 q 888 868 888 877 l 888 -94 q 881 -112 888 -102 q 861 -122 873 -122 l 724 -122 l 114 -122 q 95 -115 105 -122 q 85 -94 85 -107 l 85 71 q 95 91 85 84 q 114 98 105 98 l 193 98 l 193 302 l 166 302 q 146 309 157 302 q 136 331 136 317 l 136 471 q 146 492 136 485 q 166 500 157 500 l 193 500 l 193 676 z "},"ñ":{"ha":906,"x_min":85,"x_max":822,"o":"m 313 897 q 338 887 327 897 q 354 868 350 877 l 601 314 l 601 868 q 609 887 601 877 q 629 897 616 897 l 793 897 q 814 887 807 897 q 821 868 821 877 l 821 -94 q 814 -112 821 -102 q 793 -122 807 -122 l 768 -122 l 768 -123 l 597 -123 q 572 -113 584 -123 q 557 -94 561 -103 l 306 469 l 306 -94 q 299 -112 306 -102 q 278 -122 292 -122 l 113 -122 q 93 -112 100 -122 q 85 -94 85 -102 l 85 868 q 93 887 85 877 q 114 897 101 897 l 313 897 m 195 933 l 195 1073 q 205 1094 195 1086 q 224 1102 216 1102 l 519 1102 l 519 1145 q 526 1163 519 1154 q 547 1173 534 1173 l 711 1173 q 732 1163 724 1173 q 739 1145 739 1154 l 739 1001 q 728 979 739 987 q 706 972 716 972 l 415 972 l 415 933 q 408 915 415 924 q 387 905 401 905 l 222 905 q 202 915 210 905 q 195 933 195 924 z "},"ò":{"ha":974,"x_min":85,"x_max":888,"o":"m 528 1168 q 552 1158 541 1168 q 568 1139 564 1148 l 631 988 q 633 970 636 981 q 616 960 630 960 l 446 960 q 420 969 432 960 q 406 988 409 979 l 341 1139 q 340 1157 337 1146 q 357 1168 343 1168 l 528 1168 m 888 868 l 888 -94 q 881 -112 888 -102 q 861 -122 873 -122 l 724 -122 l 174 -122 l 113 -122 q 93 -112 100 -122 q 85 -94 85 -102 l 85 868 q 93 887 85 877 q 113 897 100 897 l 245 897 l 800 897 l 861 897 q 881 887 873 897 q 888 868 888 877 m 668 98 l 668 676 l 306 676 l 306 98 l 668 98 z "},"ó":{"ha":974,"x_min":85,"x_max":888,"o":"m 446 1168 l 617 1168 q 634 1157 631 1168 q 632 1139 637 1146 l 568 988 q 553 969 564 979 q 528 960 541 960 l 357 960 q 341 970 344 960 q 342 988 338 981 l 406 1139 q 422 1158 410 1148 q 446 1168 433 1168 m 888 868 l 888 -94 q 881 -112 888 -102 q 861 -122 873 -122 l 724 -122 l 174 -122 l 113 -122 q 93 -112 100 -122 q 85 -94 85 -102 l 85 868 q 93 887 85 877 q 113 897 100 897 l 245 897 l 800 897 l 861 897 q 881 887 873 897 q 888 868 888 877 m 668 98 l 668 676 l 306 676 l 306 98 l 668 98 z "},"ô":{"ha":974,"x_min":85,"x_max":888,"o":"m 400 1168 q 572 1168 400 1168 q 597 1158 586 1168 q 613 1139 609 1148 l 677 988 q 678 970 682 981 q 662 960 675 960 l 544 960 q 516 969 530 960 q 496 988 503 979 l 486 1002 l 477 988 q 456 969 471 979 q 429 960 442 960 l 311 960 q 295 970 298 960 q 296 988 292 981 l 360 1139 q 376 1158 364 1148 q 400 1168 387 1168 m 888 868 l 888 -94 q 881 -112 888 -102 q 861 -122 873 -122 l 724 -122 l 174 -122 l 113 -122 q 93 -112 100 -122 q 85 -94 85 -102 l 85 868 q 93 887 85 877 q 113 897 100 897 l 245 897 l 800 897 l 861 897 q 881 887 873 897 q 888 868 888 877 m 668 98 l 668 676 l 306 676 l 306 98 l 668 98 z "},"õ":{"ha":974,"x_min":85,"x_max":888,"o":"m 214 953 l 214 1073 q 225 1094 214 1086 q 244 1102 235 1102 l 538 1102 l 538 1145 q 546 1163 538 1154 q 566 1173 553 1173 l 731 1173 q 751 1163 744 1173 q 759 1145 759 1154 l 759 1001 q 747 979 759 987 q 726 972 736 972 l 435 972 l 435 953 q 428 934 435 944 q 407 924 420 924 l 242 924 q 222 934 229 924 q 214 953 215 944 m 888 868 l 888 -94 q 881 -112 888 -102 q 861 -122 873 -122 l 724 -122 l 174 -122 l 113 -122 q 93 -112 100 -122 q 85 -94 85 -102 l 85 868 q 93 887 85 877 q 113 897 100 897 l 245 897 l 800 897 l 861 897 q 881 887 873 897 q 888 868 888 877 m 668 98 l 668 676 l 306 676 l 306 98 l 668 98 z "},"ö":{"ha":974,"x_min":85,"x_max":888,"o":"m 413 1162 q 434 1152 427 1162 q 441 1133 441 1142 l 441 989 q 434 970 441 980 q 413 960 427 960 l 248 960 q 228 970 235 960 q 220 989 220 980 l 220 1133 q 228 1152 220 1142 q 248 1162 235 1162 l 413 1162 m 732 1162 q 752 1152 745 1162 q 760 1133 760 1142 l 760 989 q 752 970 760 980 q 732 960 745 960 l 567 960 q 547 970 554 960 q 539 989 539 980 l 539 1133 q 547 1152 539 1142 q 567 1162 554 1162 l 732 1162 m 888 868 l 888 -94 q 881 -112 888 -102 q 861 -122 873 -122 l 724 -122 l 174 -122 l 113 -122 q 93 -112 100 -122 q 85 -94 85 -102 l 85 868 q 93 887 85 877 q 113 897 100 897 l 245 897 l 800 897 l 861 897 q 881 887 873 897 q 888 868 888 877 m 668 98 l 668 676 l 306 676 l 306 98 l 668 98 z "},"÷":{"ha":829,"x_min":136,"x_max":699,"o":"m 497 738 q 517 728 510 738 q 525 709 525 718 l 525 565 q 517 546 525 556 q 497 536 510 536 l 332 536 q 312 546 319 536 q 304 565 304 556 l 304 709 q 312 728 304 718 q 332 738 319 738 l 497 738 m 497 260 q 517 250 510 260 q 525 231 525 240 l 525 87 q 517 68 525 78 q 497 58 510 58 l 332 58 q 312 68 319 58 q 304 87 304 78 l 304 231 q 312 250 304 240 q 332 260 319 260 l 497 260 m 667 500 q 687 492 676 500 q 699 471 699 484 l 699 331 q 687 310 699 317 q 667 302 676 302 l 166 302 q 146 309 157 302 q 136 331 136 317 l 136 471 q 146 492 136 485 q 166 500 157 500 l 667 500 z "},"ø":{"ha":974,"x_min":85,"x_max":888,"o":"m 888 868 l 888 -94 q 881 -112 888 -102 q 861 -122 873 -122 l 466 -122 q 450 -182 458 -152 q 438 -201 448 -191 q 414 -211 428 -211 l 244 -211 q 226 -201 231 -211 q 224 -182 221 -191 q 239 -122 231 -152 l 113 -122 q 93 -112 100 -122 q 85 -94 85 -102 l 85 868 q 93 887 85 877 q 113 897 100 897 l 505 897 q 517 945 511 921 q 530 964 520 954 q 553 973 539 973 l 724 973 q 742 964 737 973 q 744 945 746 954 q 731 897 737 921 l 861 897 q 881 887 873 897 q 888 868 888 877 m 448 676 l 306 676 l 306 132 q 448 676 376 404 m 668 654 q 523 98 595 376 l 668 98 l 668 654 z "},"ù":{"ha":906,"x_min":85,"x_max":822,"o":"m 496 1168 q 521 1158 509 1168 q 536 1139 532 1148 l 600 988 q 602 970 605 981 q 585 960 598 960 l 414 960 q 389 969 401 960 q 374 988 378 979 l 310 1139 q 309 1157 305 1146 q 326 1168 312 1168 l 496 1168 m 85 -94 l 85 868 q 93 887 85 877 q 113 897 100 897 l 278 897 q 299 887 292 897 q 306 868 307 877 l 306 98 l 601 98 l 601 868 q 609 887 602 877 q 629 897 616 897 l 793 897 q 814 887 807 897 q 821 868 821 877 l 821 -94 q 814 -112 821 -102 q 793 -122 806 -122 l 601 -122 l 113 -122 q 93 -112 100 -122 q 85 -94 85 -102 z "},"ú":{"ha":906,"x_min":85,"x_max":822,"o":"m 411 1168 l 582 1168 q 598 1157 595 1168 q 597 1139 602 1146 l 533 988 q 517 969 529 979 q 493 960 506 960 l 322 960 q 306 970 309 960 q 307 988 302 981 l 371 1139 q 387 1158 375 1148 q 411 1168 398 1168 m 85 -94 l 85 868 q 93 887 85 877 q 113 897 100 897 l 278 897 q 299 887 292 897 q 306 868 307 877 l 306 98 l 601 98 l 601 868 q 609 887 602 877 q 629 897 616 897 l 793 897 q 814 887 807 897 q 821 868 821 877 l 821 -94 q 814 -112 821 -102 q 793 -122 806 -122 l 601 -122 l 113 -122 q 93 -112 100 -122 q 85 -94 85 -102 z "},"û":{"ha":906,"x_min":85,"x_max":822,"o":"m 360 1168 q 532 1168 360 1168 q 557 1158 546 1168 q 573 1139 569 1148 l 637 988 q 638 970 642 981 q 622 960 635 960 l 504 960 q 476 969 490 960 q 456 988 463 979 l 446 1002 l 437 988 q 416 969 431 979 q 389 960 402 960 l 271 960 q 255 970 258 960 q 256 988 252 981 l 320 1139 q 336 1158 324 1148 q 360 1168 347 1168 m 85 -94 l 85 868 q 93 887 85 877 q 113 897 100 897 l 278 897 q 299 887 292 897 q 306 868 307 877 l 306 98 l 601 98 l 601 868 q 609 887 602 877 q 629 897 616 897 l 793 897 q 814 887 807 897 q 821 868 821 877 l 821 -94 q 814 -112 821 -102 q 793 -122 806 -122 l 601 -122 l 113 -122 q 93 -112 100 -122 q 85 -94 85 -102 z "},"ü":{"ha":906,"x_min":85,"x_max":822,"o":"m 376 1162 q 397 1152 390 1162 q 404 1133 404 1142 l 404 989 q 397 970 404 980 q 376 960 390 960 l 212 960 q 191 970 199 960 q 184 989 184 980 l 184 1133 q 191 1152 184 1142 q 212 1162 199 1162 l 376 1162 m 695 1162 q 716 1152 709 1162 q 723 1133 723 1142 l 723 989 q 716 970 723 980 q 695 960 709 960 l 530 960 q 510 970 517 960 q 503 989 503 980 l 503 1133 q 510 1152 503 1142 q 530 1162 517 1162 l 695 1162 m 85 -94 l 85 868 q 93 887 85 877 q 113 897 100 897 l 278 897 q 299 887 292 897 q 306 868 307 877 l 306 98 l 601 98 l 601 868 q 609 887 602 877 q 629 897 616 897 l 793 897 q 814 887 807 897 q 821 868 821 877 l 821 -94 q 814 -112 821 -102 q 793 -122 806 -122 l 601 -122 l 113 -122 q 93 -112 100 -122 q 85 -94 85 -102 z "},"ý":{"ha":798,"x_min":7,"x_max":787,"o":"m 375 1168 l 546 1168 q 563 1157 559 1168 q 561 1139 566 1146 l 497 988 q 481 969 493 979 q 457 960 470 960 l 286 960 q 270 970 273 960 q 271 988 267 981 l 335 1139 q 351 1158 339 1148 q 375 1168 362 1168 m 199 897 q 222 887 212 897 q 236 868 233 877 l 397 422 l 557 868 q 571 887 560 877 q 595 897 581 897 l 766 897 q 782 887 779 897 q 783 868 786 878 l 438 -94 q 424 -113 435 -103 q 400 -123 414 -123 l 340 -123 l 151 -123 q 132 -115 142 -123 q 122 -95 122 -108 l 122 70 q 132 91 122 83 q 151 98 142 98 l 230 98 l 281 98 l 283 106 l 10 868 q 11 887 7 877 q 28 897 14 897 l 199 897 z "},"þ":{"ha":906,"x_min":85,"x_max":821,"o":"m 600 475 l 306 475 l 306 279 l 490 279 l 600 279 l 600 475 m 85 -94 l 85 868 q 92 887 85 877 q 113 897 100 897 l 277 897 q 298 887 291 897 q 305 868 305 877 l 305 696 l 628 696 l 792 696 q 812 686 805 696 q 820 667 820 676 l 820 87 q 812 68 820 78 q 792 58 805 58 l 306 58 l 306 -94 q 298 -112 306 -102 q 278 -122 291 -122 l 113 -122 q 93 -112 100 -122 q 85 -94 85 -102 z "},"ÿ":{"ha":798,"x_min":7,"x_max":787,"o":"m 321 1162 q 342 1152 334 1162 q 349 1133 349 1142 l 349 989 q 342 970 349 980 q 321 960 334 960 l 157 960 q 136 970 144 960 q 129 989 129 980 l 129 1133 q 136 1152 129 1142 q 157 1162 144 1162 l 321 1162 m 640 1162 q 661 1152 653 1162 q 668 1133 668 1142 l 668 989 q 661 970 668 980 q 640 960 653 960 l 475 960 q 455 970 463 960 q 448 989 448 980 l 448 1133 q 455 1152 448 1142 q 475 1162 463 1162 l 640 1162 m 199 897 q 222 887 212 897 q 236 868 233 877 l 397 422 l 557 868 q 571 887 560 877 q 595 897 581 897 l 766 897 q 782 887 779 897 q 783 868 786 878 l 438 -94 q 424 -113 435 -103 q 400 -123 414 -123 l 340 -123 l 151 -123 q 132 -115 142 -123 q 122 -95 122 -108 l 122 70 q 132 91 122 83 q 151 98 142 98 l 230 98 l 281 98 l 283 106 l 10 868 q 11 887 7 877 q 28 897 14 897 l 199 897 z "},"Ā":{"ha":772,"x_min":12,"x_max":764,"o":"m 556 1090 q 577 1082 566 1090 q 588 1061 588 1075 l 588 989 q 577 967 588 975 q 556 960 566 960 l 205 960 q 186 967 196 960 q 176 989 176 975 l 176 1061 q 186 1082 176 1075 q 205 1090 196 1090 l 556 1090 m 448 232 l 387 464 l 326 232 l 448 232 m 507 867 l 761 -94 q 759 -112 763 -102 q 741 -122 754 -122 l 570 -122 q 547 -112 557 -122 q 534 -94 537 -102 l 507 12 l 269 12 l 241 -94 q 229 -112 238 -102 q 205 -122 219 -122 l 35 -122 q 17 -112 22 -122 q 14 -94 12 -102 l 267 867 q 278 885 269 876 q 302 895 288 895 l 472 895 q 495 885 486 895 q 507 867 505 876 z "},"ā":{"ha":772,"x_min":12,"x_max":764,"o":"m 556 1090 q 577 1082 566 1090 q 588 1061 588 1075 l 588 989 q 577 967 588 975 q 556 960 566 960 l 205 960 q 186 967 196 960 q 176 989 176 975 l 176 1061 q 186 1082 176 1075 q 205 1090 196 1090 l 556 1090 m 448 232 l 387 464 l 326 232 l 448 232 m 507 867 l 761 -94 q 759 -112 763 -102 q 741 -122 754 -122 l 570 -122 q 547 -112 557 -122 q 534 -94 537 -102 l 507 12 l 269 12 l 241 -94 q 229 -112 238 -102 q 205 -122 219 -122 l 35 -122 q 17 -112 22 -122 q 14 -94 12 -102 l 267 867 q 278 885 269 876 q 302 895 288 895 l 472 895 q 495 885 486 895 q 507 867 505 876 z "},"Ă":{"ha":772,"x_min":12,"x_max":764,"o":"m 225 960 q 201 969 212 960 q 185 988 189 979 l 121 1139 q 120 1157 117 1146 q 136 1168 123 1168 l 254 1168 q 281 1158 267 1168 q 302 1139 296 1148 l 340 1083 l 413 1083 l 452 1139 q 472 1158 458 1148 q 499 1168 486 1168 l 617 1168 q 633 1157 630 1168 q 632 1139 637 1146 l 568 988 q 553 969 564 979 q 528 960 541 960 l 225 960 m 448 232 l 387 464 l 326 232 l 448 232 m 507 867 l 761 -94 q 759 -112 763 -102 q 741 -122 754 -122 l 570 -122 q 547 -112 557 -122 q 534 -94 537 -102 l 507 12 l 269 12 l 241 -94 q 229 -112 238 -102 q 205 -122 219 -122 l 35 -122 q 17 -112 22 -122 q 14 -94 12 -102 l 267 867 q 278 885 269 876 q 302 895 288 895 l 472 895 q 495 885 486 895 q 507 867 505 876 z "},"ă":{"ha":772,"x_min":12,"x_max":764,"o":"m 225 960 q 201 969 212 960 q 185 988 189 979 l 121 1139 q 120 1157 117 1146 q 136 1168 123 1168 l 254 1168 q 281 1158 267 1168 q 302 1139 296 1148 l 340 1083 l 413 1083 l 452 1139 q 472 1158 458 1148 q 499 1168 486 1168 l 617 1168 q 633 1157 630 1168 q 632 1139 637 1146 l 568 988 q 553 969 564 979 q 528 960 541 960 l 225 960 m 448 232 l 387 464 l 326 232 l 448 232 m 507 867 l 761 -94 q 759 -112 763 -102 q 741 -122 754 -122 l 570 -122 q 547 -112 557 -122 q 534 -94 537 -102 l 507 12 l 269 12 l 241 -94 q 229 -112 238 -102 q 205 -122 219 -122 l 35 -122 q 17 -112 22 -122 q 14 -94 12 -102 l 267 867 q 278 885 269 876 q 302 895 288 895 l 472 895 q 495 885 486 895 q 507 867 505 876 z "},"Ą":{"ha":772,"x_min":12,"x_max":777,"o":"m 587 -352 q 562 -342 573 -352 q 546 -323 550 -332 l 482 -172 q 481 -155 477 -165 q 497 -144 484 -144 l 668 -144 q 693 -154 682 -144 q 708 -172 705 -163 l 772 -323 q 774 -341 777 -330 q 757 -352 770 -352 l 587 -352 m 448 232 l 387 464 l 326 232 l 448 232 m 507 867 l 761 -94 q 759 -112 763 -102 q 741 -122 754 -122 l 570 -122 q 547 -112 557 -122 q 534 -94 537 -102 l 507 12 l 269 12 l 241 -94 q 229 -112 238 -102 q 205 -122 219 -122 l 35 -122 q 17 -112 22 -122 q 14 -94 12 -102 l 267 867 q 278 885 269 876 q 302 895 288 895 l 472 895 q 495 885 486 895 q 507 867 505 876 z "},"ą":{"ha":772,"x_min":12,"x_max":777,"o":"m 587 -352 q 562 -342 573 -352 q 546 -323 550 -332 l 482 -172 q 481 -155 477 -165 q 497 -144 484 -144 l 668 -144 q 693 -154 682 -144 q 708 -172 705 -163 l 772 -323 q 774 -341 777 -330 q 757 -352 770 -352 l 587 -352 m 448 232 l 387 464 l 326 232 l 448 232 m 507 867 l 761 -94 q 759 -112 763 -102 q 741 -122 754 -122 l 570 -122 q 547 -112 557 -122 q 534 -94 537 -102 l 507 12 l 269 12 l 241 -94 q 229 -112 238 -102 q 205 -122 219 -122 l 35 -122 q 17 -112 22 -122 q 14 -94 12 -102 l 267 867 q 278 885 269 876 q 302 895 288 895 l 472 895 q 495 885 486 895 q 507 867 505 876 z "},"Ć":{"ha":906,"x_min":85,"x_max":821,"o":"m 411 1168 l 582 1168 q 598 1157 595 1168 q 597 1139 602 1146 l 533 988 q 517 969 529 979 q 493 960 506 960 l 322 960 q 306 970 309 960 q 307 988 302 981 l 371 1139 q 387 1158 375 1148 q 411 1168 398 1168 m 306 676 l 306 98 l 600 98 l 600 279 q 607 298 600 288 q 628 308 614 308 l 793 308 q 813 298 806 308 q 821 279 821 288 l 821 -94 q 813 -112 821 -102 q 793 -122 806 -122 l 732 -122 l 250 -122 l 113 -122 q 93 -112 100 -122 q 85 -94 85 -102 l 85 868 q 93 887 85 877 q 113 897 100 897 l 174 897 l 661 897 l 793 897 q 813 887 806 897 q 821 868 821 877 l 821 555 q 813 537 821 547 q 793 527 806 527 l 628 527 q 607 537 614 527 q 600 555 600 547 l 600 676 l 306 676 z "},"ć":{"ha":906,"x_min":85,"x_max":821,"o":"m 411 1168 l 582 1168 q 598 1157 595 1168 q 597 1139 602 1146 l 533 988 q 517 969 529 979 q 493 960 506 960 l 322 960 q 306 970 309 960 q 307 988 302 981 l 371 1139 q 387 1158 375 1148 q 411 1168 398 1168 m 306 676 l 306 98 l 600 98 l 600 279 q 607 298 600 288 q 628 308 614 308 l 793 308 q 813 298 806 308 q 821 279 821 288 l 821 -94 q 813 -112 821 -102 q 793 -122 806 -122 l 732 -122 l 250 -122 l 113 -122 q 93 -112 100 -122 q 85 -94 85 -102 l 85 868 q 93 887 85 877 q 113 897 100 897 l 174 897 l 661 897 l 793 897 q 813 887 806 897 q 821 868 821 877 l 821 555 q 813 537 821 547 q 793 527 806 527 l 628 527 q 607 537 614 527 q 600 555 600 547 l 600 676 l 306 676 z "},"Ĉ":{"ha":906,"x_min":85,"x_max":821,"o":"m 400 1168 q 572 1168 400 1168 q 597 1158 586 1168 q 613 1139 609 1148 l 677 988 q 678 970 682 981 q 662 960 675 960 l 544 960 q 516 969 530 960 q 496 988 503 979 l 486 1002 l 477 988 q 456 969 471 979 q 429 960 442 960 l 311 960 q 295 970 298 960 q 296 988 292 981 l 360 1139 q 376 1158 364 1148 q 400 1168 387 1168 m 306 676 l 306 98 l 600 98 l 600 279 q 607 298 600 288 q 628 308 614 308 l 793 308 q 813 298 806 308 q 821 279 821 288 l 821 -94 q 813 -112 821 -102 q 793 -122 806 -122 l 732 -122 l 250 -122 l 113 -122 q 93 -112 100 -122 q 85 -94 85 -102 l 85 868 q 93 887 85 877 q 113 897 100 897 l 174 897 l 661 897 l 793 897 q 813 887 806 897 q 821 868 821 877 l 821 555 q 813 537 821 547 q 793 527 806 527 l 628 527 q 607 537 614 527 q 600 555 600 547 l 600 676 l 306 676 z "},"ĉ":{"ha":906,"x_min":85,"x_max":821,"o":"m 400 1168 q 572 1168 400 1168 q 597 1158 586 1168 q 613 1139 609 1148 l 677 988 q 678 970 682 981 q 662 960 675 960 l 544 960 q 516 969 530 960 q 496 988 503 979 l 486 1002 l 477 988 q 456 969 471 979 q 429 960 442 960 l 311 960 q 295 970 298 960 q 296 988 292 981 l 360 1139 q 376 1158 364 1148 q 400 1168 387 1168 m 306 676 l 306 98 l 600 98 l 600 279 q 607 298 600 288 q 628 308 614 308 l 793 308 q 813 298 806 308 q 821 279 821 288 l 821 -94 q 813 -112 821 -102 q 793 -122 806 -122 l 732 -122 l 250 -122 l 113 -122 q 93 -112 100 -122 q 85 -94 85 -102 l 85 868 q 93 887 85 877 q 113 897 100 897 l 174 897 l 661 897 l 793 897 q 813 887 806 897 q 821 868 821 877 l 821 555 q 813 537 821 547 q 793 527 806 527 l 628 527 q 607 537 614 527 q 600 555 600 547 l 600 676 l 306 676 z "},"Ċ":{"ha":906,"x_min":85,"x_max":821,"o":"m 538 1162 q 558 1152 551 1162 q 566 1133 566 1142 l 566 989 q 558 970 566 980 q 538 960 551 960 l 373 960 q 353 970 360 960 q 345 989 345 980 l 345 1133 q 353 1152 345 1142 q 373 1162 360 1162 l 538 1162 m 306 676 l 306 98 l 600 98 l 600 279 q 607 298 600 288 q 628 308 614 308 l 793 308 q 813 298 806 308 q 821 279 821 288 l 821 -94 q 813 -112 821 -102 q 793 -122 806 -122 l 732 -122 l 250 -122 l 113 -122 q 93 -112 100 -122 q 85 -94 85 -102 l 85 868 q 93 887 85 877 q 113 897 100 897 l 174 897 l 661 897 l 793 897 q 813 887 806 897 q 821 868 821 877 l 821 555 q 813 537 821 547 q 793 527 806 527 l 628 527 q 607 537 614 527 q 600 555 600 547 l 600 676 l 306 676 z "},"ċ":{"ha":906,"x_min":85,"x_max":821,"o":"m 538 1162 q 558 1152 551 1162 q 566 1133 566 1142 l 566 989 q 558 970 566 980 q 538 960 551 960 l 373 960 q 353 970 360 960 q 345 989 345 980 l 345 1133 q 353 1152 345 1142 q 373 1162 360 1162 l 538 1162 m 306 676 l 306 98 l 600 98 l 600 279 q 607 298 600 288 q 628 308 614 308 l 793 308 q 813 298 806 308 q 821 279 821 288 l 821 -94 q 813 -112 821 -102 q 793 -122 806 -122 l 732 -122 l 250 -122 l 113 -122 q 93 -112 100 -122 q 85 -94 85 -102 l 85 868 q 93 887 85 877 q 113 897 100 897 l 174 897 l 661 897 l 793 897 q 813 887 806 897 q 821 868 821 877 l 821 555 q 813 537 821 547 q 793 527 806 527 l 628 527 q 607 537 614 527 q 600 555 600 547 l 600 676 l 306 676 z "},"Č":{"ha":906,"x_min":85,"x_max":821,"o":"m 532 926 l 360 926 q 336 936 347 926 q 320 954 324 945 l 256 1105 q 255 1123 252 1112 q 271 1134 258 1134 l 389 1134 q 416 1124 402 1134 q 437 1105 431 1114 l 446 1091 l 456 1105 q 476 1124 463 1114 q 504 1134 490 1134 l 622 1134 q 638 1123 635 1134 q 637 1105 642 1112 l 573 954 q 557 936 569 945 q 532 926 546 926 m 306 676 l 306 98 l 600 98 l 600 279 q 607 298 600 288 q 628 308 614 308 l 793 308 q 813 298 806 308 q 821 279 821 288 l 821 -94 q 813 -112 821 -102 q 793 -122 806 -122 l 732 -122 l 250 -122 l 113 -122 q 93 -112 100 -122 q 85 -94 85 -102 l 85 868 q 93 887 85 877 q 113 897 100 897 l 174 897 l 661 897 l 793 897 q 813 887 806 897 q 821 868 821 877 l 821 555 q 813 537 821 547 q 793 527 806 527 l 628 527 q 607 537 614 527 q 600 555 600 547 l 600 676 l 306 676 z "},"č":{"ha":906,"x_min":85,"x_max":821,"o":"m 532 926 l 360 926 q 336 936 347 926 q 320 954 324 945 l 256 1105 q 255 1123 252 1112 q 271 1134 258 1134 l 389 1134 q 416 1124 402 1134 q 437 1105 431 1114 l 446 1091 l 456 1105 q 476 1124 463 1114 q 504 1134 490 1134 l 622 1134 q 638 1123 635 1134 q 637 1105 642 1112 l 573 954 q 557 936 569 945 q 532 926 546 926 m 306 676 l 306 98 l 600 98 l 600 279 q 607 298 600 288 q 628 308 614 308 l 793 308 q 813 298 806 308 q 821 279 821 288 l 821 -94 q 813 -112 821 -102 q 793 -122 806 -122 l 732 -122 l 250 -122 l 113 -122 q 93 -112 100 -122 q 85 -94 85 -102 l 85 868 q 93 887 85 877 q 113 897 100 897 l 174 897 l 661 897 l 793 897 q 813 887 806 897 q 821 868 821 877 l 821 555 q 813 537 821 547 q 793 527 806 527 l 628 527 q 607 537 614 527 q 600 555 600 547 l 600 676 l 306 676 z "},"Ď":{"ha":892,"x_min":85,"x_max":807,"o":"m 527 926 l 355 926 q 330 936 342 926 q 315 954 319 945 l 251 1105 q 249 1123 246 1112 q 266 1134 252 1134 l 383 1134 q 411 1124 397 1134 q 431 1105 425 1114 l 441 1091 l 451 1105 q 471 1124 457 1114 q 498 1134 485 1134 l 616 1134 q 633 1123 629 1134 q 631 1105 636 1112 l 568 954 q 552 936 564 945 q 527 926 541 926 m 587 98 l 587 676 l 306 676 l 306 98 l 587 98 m 807 665 l 807 110 q 807 94 807 103 q 802 60 806 84 q 790 15 798 37 q 765 -33 782 -7 q 726 -78 749 -59 q 666 -109 703 -96 q 584 -122 629 -122 l 473 -122 l 85 -122 l 85 897 l 481 897 l 542 897 q 640 884 596 897 q 711 852 684 871 q 758 808 738 833 q 786 760 777 782 q 801 714 795 738 q 806 681 806 690 q 807 665 807 671 z "},"ď":{"ha":892,"x_min":85,"x_max":807,"o":"m 527 926 l 355 926 q 330 936 342 926 q 315 954 319 945 l 251 1105 q 249 1123 246 1112 q 266 1134 252 1134 l 383 1134 q 411 1124 397 1134 q 431 1105 425 1114 l 441 1091 l 451 1105 q 471 1124 457 1114 q 498 1134 485 1134 l 616 1134 q 633 1123 629 1134 q 631 1105 636 1112 l 568 954 q 552 936 564 945 q 527 926 541 926 m 587 98 l 587 676 l 306 676 l 306 98 l 587 98 m 807 665 l 807 110 q 807 94 807 103 q 802 60 806 84 q 790 15 798 37 q 765 -33 782 -7 q 726 -78 749 -59 q 666 -109 703 -96 q 584 -122 629 -122 l 473 -122 l 85 -122 l 85 897 l 481 897 l 542 897 q 640 884 596 897 q 711 852 684 871 q 758 808 738 833 q 786 760 777 782 q 801 714 795 738 q 806 681 806 690 q 807 665 807 671 z "},"Đ":{"ha":916,"x_min":8,"x_max":830,"o":"m 830 665 l 830 110 q 830 94 830 103 q 825 60 829 84 q 813 15 821 37 q 788 -33 805 -7 q 749 -78 772 -59 q 689 -109 726 -96 q 607 -122 652 -122 l 496 -122 l 109 -122 l 109 310 l 37 310 q 18 317 28 310 q 8 338 8 324 l 8 503 q 18 523 8 515 q 37 530 28 530 l 109 530 l 109 897 l 504 897 l 565 897 q 663 884 619 897 q 734 852 707 871 q 781 808 761 833 q 809 760 800 782 q 824 714 819 738 q 829 681 829 690 q 830 665 830 671 m 610 98 l 610 676 l 329 676 l 329 530 l 483 530 q 502 523 492 530 q 511 503 511 515 l 511 338 q 502 317 511 324 q 483 310 492 310 l 329 310 l 329 98 l 610 98 z "},"đ":{"ha":916,"x_min":8,"x_max":830,"o":"m 830 665 l 830 110 q 830 94 830 103 q 825 60 829 84 q 813 15 821 37 q 788 -33 805 -7 q 749 -78 772 -59 q 689 -109 726 -96 q 607 -122 652 -122 l 496 -122 l 109 -122 l 109 310 l 37 310 q 18 317 28 310 q 8 338 8 324 l 8 503 q 18 523 8 515 q 37 530 28 530 l 109 530 l 109 897 l 504 897 l 565 897 q 663 884 619 897 q 734 852 707 871 q 781 808 761 833 q 809 760 800 782 q 824 714 819 738 q 829 681 829 690 q 830 665 830 671 m 610 98 l 610 676 l 329 676 l 329 530 l 483 530 q 502 523 492 530 q 511 503 511 515 l 511 338 q 502 317 511 324 q 483 310 492 310 l 329 310 l 329 98 l 610 98 z "},"Ē":{"ha":906,"x_min":85,"x_max":821,"o":"m 621 1090 q 641 1082 630 1090 q 652 1061 652 1075 l 652 989 q 642 967 652 975 q 621 960 631 960 l 271 960 q 251 967 261 960 q 241 989 241 975 l 241 1061 q 251 1082 241 1075 q 271 1090 261 1090 l 621 1090 m 306 98 l 602 98 l 792 98 q 811 91 801 98 q 821 71 821 84 l 821 -94 q 811 -115 821 -107 q 792 -122 801 -122 l 413 -122 l 250 -122 l 113 -122 q 93 -112 100 -122 q 85 -94 85 -102 l 85 868 q 93 887 85 877 q 113 897 100 897 l 174 897 l 413 897 l 602 897 l 792 897 q 811 889 801 897 q 821 869 821 882 l 821 704 q 811 684 821 691 q 792 676 801 676 l 306 676 l 306 498 l 490 498 l 680 498 q 697 491 688 498 q 707 471 707 484 l 707 306 q 697 286 707 293 q 680 278 688 278 l 306 278 l 306 98 z "},"ē":{"ha":906,"x_min":85,"x_max":821,"o":"m 621 1090 q 641 1082 630 1090 q 652 1061 652 1075 l 652 989 q 642 967 652 975 q 621 960 631 960 l 271 960 q 251 967 261 960 q 241 989 241 975 l 241 1061 q 251 1082 241 1075 q 271 1090 261 1090 l 621 1090 m 306 98 l 602 98 l 792 98 q 811 91 801 98 q 821 71 821 84 l 821 -94 q 811 -115 821 -107 q 792 -122 801 -122 l 413 -122 l 250 -122 l 113 -122 q 93 -112 100 -122 q 85 -94 85 -102 l 85 868 q 93 887 85 877 q 113 897 100 897 l 174 897 l 413 897 l 602 897 l 792 897 q 811 889 801 897 q 821 869 821 882 l 821 704 q 811 684 821 691 q 792 676 801 676 l 306 676 l 306 498 l 490 498 l 680 498 q 697 491 688 498 q 707 471 707 484 l 707 306 q 697 286 707 293 q 680 278 688 278 l 306 278 l 306 98 z "},"Ĕ":{"ha":906,"x_min":85,"x_max":821,"o":"m 304 960 q 279 969 290 960 q 264 988 267 979 l 199 1139 q 198 1157 195 1146 q 215 1168 201 1168 l 332 1168 q 360 1158 346 1168 q 380 1139 374 1148 l 418 1083 l 491 1083 l 530 1139 q 550 1158 536 1148 q 578 1168 564 1168 l 695 1168 q 712 1157 709 1168 q 711 1139 715 1146 l 646 988 q 631 969 642 979 q 606 960 619 960 l 304 960 m 306 98 l 602 98 l 792 98 q 811 91 801 98 q 821 71 821 84 l 821 -94 q 811 -115 821 -107 q 792 -122 801 -122 l 413 -122 l 250 -122 l 113 -122 q 93 -112 100 -122 q 85 -94 85 -102 l 85 868 q 93 887 85 877 q 113 897 100 897 l 174 897 l 413 897 l 602 897 l 792 897 q 811 889 801 897 q 821 869 821 882 l 821 704 q 811 684 821 691 q 792 676 801 676 l 306 676 l 306 498 l 490 498 l 680 498 q 697 491 688 498 q 707 471 707 484 l 707 306 q 697 286 707 293 q 680 278 688 278 l 306 278 l 306 98 z "},"ĕ":{"ha":906,"x_min":85,"x_max":821,"o":"m 304 960 q 279 969 290 960 q 264 988 267 979 l 199 1139 q 198 1157 195 1146 q 215 1168 201 1168 l 332 1168 q 360 1158 346 1168 q 380 1139 374 1148 l 418 1083 l 491 1083 l 530 1139 q 550 1158 536 1148 q 578 1168 564 1168 l 695 1168 q 712 1157 709 1168 q 711 1139 715 1146 l 646 988 q 631 969 642 979 q 606 960 619 960 l 304 960 m 306 98 l 602 98 l 792 98 q 811 91 801 98 q 821 71 821 84 l 821 -94 q 811 -115 821 -107 q 792 -122 801 -122 l 413 -122 l 250 -122 l 113 -122 q 93 -112 100 -122 q 85 -94 85 -102 l 85 868 q 93 887 85 877 q 113 897 100 897 l 174 897 l 413 897 l 602 897 l 792 897 q 811 889 801 897 q 821 869 821 882 l 821 704 q 811 684 821 691 q 792 676 801 676 l 306 676 l 306 498 l 490 498 l 680 498 q 697 491 688 498 q 707 471 707 484 l 707 306 q 697 286 707 293 q 680 278 688 278 l 306 278 l 306 98 z "},"Ė":{"ha":906,"x_min":85,"x_max":821,"o":"m 572 1161 q 593 1151 586 1161 q 600 1133 600 1141 l 600 988 q 593 969 600 979 q 572 960 586 960 l 408 960 q 387 969 395 960 q 380 988 380 979 l 380 1133 q 387 1151 380 1141 q 408 1161 395 1161 l 572 1161 m 306 98 l 602 98 l 792 98 q 811 91 801 98 q 821 71 821 84 l 821 -94 q 811 -115 821 -107 q 792 -122 801 -122 l 413 -122 l 250 -122 l 113 -122 q 93 -112 100 -122 q 85 -94 85 -102 l 85 868 q 93 887 85 877 q 113 897 100 897 l 174 897 l 413 897 l 602 897 l 792 897 q 811 889 801 897 q 821 869 821 882 l 821 704 q 811 684 821 691 q 792 676 801 676 l 306 676 l 306 498 l 490 498 l 680 498 q 697 491 688 498 q 707 471 707 484 l 707 306 q 697 286 707 293 q 680 278 688 278 l 306 278 l 306 98 z "},"ė":{"ha":906,"x_min":85,"x_max":821,"o":"m 572 1161 q 593 1151 586 1161 q 600 1133 600 1141 l 600 988 q 593 969 600 979 q 572 960 586 960 l 408 960 q 387 969 395 960 q 380 988 380 979 l 380 1133 q 387 1151 380 1141 q 408 1161 395 1161 l 572 1161 m 306 98 l 602 98 l 792 98 q 811 91 801 98 q 821 71 821 84 l 821 -94 q 811 -115 821 -107 q 792 -122 801 -122 l 413 -122 l 250 -122 l 113 -122 q 93 -112 100 -122 q 85 -94 85 -102 l 85 868 q 93 887 85 877 q 113 897 100 897 l 174 897 l 413 897 l 602 897 l 792 897 q 811 889 801 897 q 821 869 821 882 l 821 704 q 811 684 821 691 q 792 676 801 676 l 306 676 l 306 498 l 490 498 l 680 498 q 697 491 688 498 q 707 471 707 484 l 707 306 q 697 286 707 293 q 680 278 688 278 l 306 278 l 306 98 z "},"Ę":{"ha":906,"x_min":85,"x_max":821,"o":"m 587 -352 q 562 -342 573 -352 q 546 -323 550 -332 l 482 -172 q 481 -155 477 -165 q 497 -144 484 -144 l 668 -144 q 693 -154 682 -144 q 708 -172 705 -163 l 772 -323 q 774 -341 777 -330 q 757 -352 770 -352 l 587 -352 m 306 98 l 602 98 l 792 98 q 811 91 801 98 q 821 71 821 84 l 821 -94 q 811 -115 821 -107 q 792 -122 801 -122 l 684 -122 l 521 -122 l 113 -122 q 93 -112 100 -122 q 85 -94 85 -102 l 85 868 q 93 887 85 877 q 113 897 100 897 l 174 897 l 413 897 l 602 897 l 792 897 q 811 889 801 897 q 821 869 821 882 l 821 704 q 811 684 821 691 q 792 676 801 676 l 306 676 l 306 498 l 490 498 l 680 498 q 697 491 688 498 q 707 471 707 484 l 707 306 q 697 286 707 293 q 680 278 688 278 l 306 278 l 306 98 z "},"ę":{"ha":906,"x_min":85,"x_max":821,"o":"m 587 -352 q 562 -342 573 -352 q 546 -323 550 -332 l 482 -172 q 481 -155 477 -165 q 497 -144 484 -144 l 668 -144 q 693 -154 682 -144 q 708 -172 705 -163 l 772 -323 q 774 -341 777 -330 q 757 -352 770 -352 l 587 -352 m 306 98 l 602 98 l 792 98 q 811 91 801 98 q 821 71 821 84 l 821 -94 q 811 -115 821 -107 q 792 -122 801 -122 l 684 -122 l 521 -122 l 113 -122 q 93 -112 100 -122 q 85 -94 85 -102 l 85 868 q 93 887 85 877 q 113 897 100 897 l 174 897 l 413 897 l 602 897 l 792 897 q 811 889 801 897 q 821 869 821 882 l 821 704 q 811 684 821 691 q 792 676 801 676 l 306 676 l 306 498 l 490 498 l 680 498 q 697 491 688 498 q 707 471 707 484 l 707 306 q 697 286 707 293 q 680 278 688 278 l 306 278 l 306 98 z "},"Ě":{"ha":906,"x_min":85,"x_max":821,"o":"m 532 926 l 360 926 q 336 936 347 926 q 320 954 324 945 l 256 1105 q 255 1123 252 1112 q 271 1134 258 1134 l 389 1134 q 416 1124 402 1134 q 437 1105 431 1114 l 446 1091 l 456 1105 q 476 1124 463 1114 q 504 1134 490 1134 l 622 1134 q 638 1123 635 1134 q 637 1105 642 1112 l 573 954 q 557 936 569 945 q 532 926 546 926 m 306 98 l 602 98 l 792 98 q 811 91 801 98 q 821 71 821 84 l 821 -94 q 811 -115 821 -107 q 792 -122 801 -122 l 413 -122 l 250 -122 l 113 -122 q 93 -112 100 -122 q 85 -94 85 -102 l 85 868 q 93 887 85 877 q 113 897 100 897 l 174 897 l 413 897 l 602 897 l 792 897 q 811 889 801 897 q 821 869 821 882 l 821 704 q 811 684 821 691 q 792 676 801 676 l 306 676 l 306 498 l 490 498 l 680 498 q 697 491 688 498 q 707 471 707 484 l 707 306 q 697 286 707 293 q 680 278 688 278 l 306 278 l 306 98 z "},"ě":{"ha":906,"x_min":85,"x_max":821,"o":"m 532 926 l 360 926 q 336 936 347 926 q 320 954 324 945 l 256 1105 q 255 1123 252 1112 q 271 1134 258 1134 l 389 1134 q 416 1124 402 1134 q 437 1105 431 1114 l 446 1091 l 456 1105 q 476 1124 463 1114 q 504 1134 490 1134 l 622 1134 q 638 1123 635 1134 q 637 1105 642 1112 l 573 954 q 557 936 569 945 q 532 926 546 926 m 306 98 l 602 98 l 792 98 q 811 91 801 98 q 821 71 821 84 l 821 -94 q 811 -115 821 -107 q 792 -122 801 -122 l 413 -122 l 250 -122 l 113 -122 q 93 -112 100 -122 q 85 -94 85 -102 l 85 868 q 93 887 85 877 q 113 897 100 897 l 174 897 l 413 897 l 602 897 l 792 897 q 811 889 801 897 q 821 869 821 882 l 821 704 q 811 684 821 691 q 792 676 801 676 l 306 676 l 306 498 l 490 498 l 680 498 q 697 491 688 498 q 707 471 707 484 l 707 306 q 697 286 707 293 q 680 278 688 278 l 306 278 l 306 98 z "},"Ĝ":{"ha":906,"x_min":85,"x_max":821,"o":"m 306 676 l 306 98 l 600 98 l 600 233 l 521 233 q 502 240 512 233 q 492 260 492 248 l 492 425 q 502 446 492 439 q 521 453 512 453 l 732 453 l 793 453 q 813 443 806 453 q 821 425 821 433 l 821 117 l 821 -94 q 813 -112 821 -102 q 793 -122 806 -122 l 732 -122 l 250 -122 l 113 -122 q 93 -112 100 -122 q 85 -94 85 -102 l 85 868 q 93 887 85 877 q 113 897 100 897 l 174 897 l 661 897 l 793 897 q 813 887 806 897 q 821 868 821 877 l 821 555 q 813 537 821 547 q 793 527 806 527 l 628 527 q 607 537 614 527 q 600 555 600 547 l 600 676 l 306 676 m 400 1168 l 572 1168 q 597 1158 586 1168 q 613 1139 609 1148 l 677 988 q 678 970 682 981 q 662 960 675 960 l 544 960 q 516 969 530 960 q 496 988 503 979 l 486 1002 l 477 988 q 456 969 471 979 q 429 960 442 960 l 311 960 q 295 970 298 960 q 296 988 292 981 l 360 1139 q 376 1158 364 1148 q 400 1168 387 1168 z "},"ĝ":{"ha":906,"x_min":85,"x_max":821,"o":"m 306 676 l 306 98 l 600 98 l 600 233 l 521 233 q 502 240 512 233 q 492 260 492 248 l 492 425 q 502 446 492 439 q 521 453 512 453 l 732 453 l 793 453 q 813 443 806 453 q 821 425 821 433 l 821 117 l 821 -94 q 813 -112 821 -102 q 793 -122 806 -122 l 732 -122 l 250 -122 l 113 -122 q 93 -112 100 -122 q 85 -94 85 -102 l 85 868 q 93 887 85 877 q 113 897 100 897 l 174 897 l 661 897 l 793 897 q 813 887 806 897 q 821 868 821 877 l 821 555 q 813 537 821 547 q 793 527 806 527 l 628 527 q 607 537 614 527 q 600 555 600 547 l 600 676 l 306 676 m 400 1168 l 572 1168 q 597 1158 586 1168 q 613 1139 609 1148 l 677 988 q 678 970 682 981 q 662 960 675 960 l 544 960 q 516 969 530 960 q 496 988 503 979 l 486 1002 l 477 988 q 456 969 471 979 q 429 960 442 960 l 311 960 q 295 970 298 960 q 296 988 292 981 l 360 1139 q 376 1158 364 1148 q 400 1168 387 1168 z "},"Ğ":{"ha":906,"x_min":85,"x_max":821,"o":"m 304 960 q 279 969 290 960 q 264 988 267 979 l 199 1139 q 198 1157 195 1146 q 215 1168 201 1168 l 332 1168 q 360 1158 346 1168 q 380 1139 374 1148 l 418 1083 l 491 1083 l 530 1139 q 550 1158 536 1148 q 578 1168 564 1168 l 695 1168 q 712 1157 709 1168 q 711 1139 715 1146 l 646 988 q 631 969 642 979 q 606 960 619 960 l 304 960 m 306 676 l 306 98 l 600 98 l 600 233 l 521 233 q 502 240 512 233 q 492 260 492 248 l 492 425 q 502 446 492 439 q 521 453 512 453 l 732 453 l 793 453 q 813 443 806 453 q 821 425 821 433 l 821 117 l 821 -94 q 813 -112 821 -102 q 793 -122 806 -122 l 732 -122 l 250 -122 l 113 -122 q 93 -112 100 -122 q 85 -94 85 -102 l 85 868 q 93 887 85 877 q 113 897 100 897 l 174 897 l 661 897 l 793 897 q 813 887 806 897 q 821 868 821 877 l 821 555 q 813 537 821 547 q 793 527 806 527 l 628 527 q 607 537 614 527 q 600 555 600 547 l 600 676 l 306 676 z "},"ğ":{"ha":906,"x_min":85,"x_max":821,"o":"m 304 960 q 279 969 290 960 q 264 988 267 979 l 199 1139 q 198 1157 195 1146 q 215 1168 201 1168 l 332 1168 q 360 1158 346 1168 q 380 1139 374 1148 l 418 1083 l 491 1083 l 530 1139 q 550 1158 536 1148 q 578 1168 564 1168 l 695 1168 q 712 1157 709 1168 q 711 1139 715 1146 l 646 988 q 631 969 642 979 q 606 960 619 960 l 304 960 m 306 676 l 306 98 l 600 98 l 600 233 l 521 233 q 502 240 512 233 q 492 260 492 248 l 492 425 q 502 446 492 439 q 521 453 512 453 l 732 453 l 793 453 q 813 443 806 453 q 821 425 821 433 l 821 117 l 821 -94 q 813 -112 821 -102 q 793 -122 806 -122 l 732 -122 l 250 -122 l 113 -122 q 93 -112 100 -122 q 85 -94 85 -102 l 85 868 q 93 887 85 877 q 113 897 100 897 l 174 897 l 661 897 l 793 897 q 813 887 806 897 q 821 868 821 877 l 821 555 q 813 537 821 547 q 793 527 806 527 l 628 527 q 607 537 614 527 q 600 555 600 547 l 600 676 l 306 676 z "},"Ġ":{"ha":906,"x_min":85,"x_max":821,"o":"m 538 1162 q 558 1152 551 1162 q 566 1133 566 1142 l 566 989 q 558 970 566 980 q 538 960 551 960 l 373 960 q 353 970 360 960 q 345 989 345 980 l 345 1133 q 353 1152 345 1142 q 373 1162 360 1162 l 538 1162 m 306 676 l 306 98 l 600 98 l 600 233 l 521 233 q 502 240 512 233 q 492 260 492 248 l 492 425 q 502 446 492 439 q 521 453 512 453 l 732 453 l 793 453 q 813 443 806 453 q 821 425 821 433 l 821 117 l 821 -94 q 813 -112 821 -102 q 793 -122 806 -122 l 732 -122 l 250 -122 l 113 -122 q 93 -112 100 -122 q 85 -94 85 -102 l 85 868 q 93 887 85 877 q 113 897 100 897 l 174 897 l 661 897 l 793 897 q 813 887 806 897 q 821 868 821 877 l 821 555 q 813 537 821 547 q 793 527 806 527 l 628 527 q 607 537 614 527 q 600 555 600 547 l 600 676 l 306 676 z "},"ġ":{"ha":906,"x_min":85,"x_max":821,"o":"m 538 1162 q 558 1152 551 1162 q 566 1133 566 1142 l 566 989 q 558 970 566 980 q 538 960 551 960 l 373 960 q 353 970 360 960 q 345 989 345 980 l 345 1133 q 353 1152 345 1142 q 373 1162 360 1162 l 538 1162 m 306 676 l 306 98 l 600 98 l 600 233 l 521 233 q 502 240 512 233 q 492 260 492 248 l 492 425 q 502 446 492 439 q 521 453 512 453 l 732 453 l 793 453 q 813 443 806 453 q 821 425 821 433 l 821 117 l 821 -94 q 813 -112 821 -102 q 793 -122 806 -122 l 732 -122 l 250 -122 l 113 -122 q 93 -112 100 -122 q 85 -94 85 -102 l 85 868 q 93 887 85 877 q 113 897 100 897 l 174 897 l 661 897 l 793 897 q 813 887 806 897 q 821 868 821 877 l 821 555 q 813 537 821 547 q 793 527 806 527 l 628 527 q 607 537 614 527 q 600 555 600 547 l 600 676 l 306 676 z "},"Ģ":{"ha":906,"x_min":85,"x_max":821,"o":"m 374 -144 l 544 -144 q 561 -155 557 -144 q 559 -172 564 -165 l 495 -323 q 480 -342 492 -332 q 455 -352 469 -352 l 284 -352 q 268 -341 271 -352 q 269 -323 264 -330 l 333 -172 q 349 -154 337 -163 q 374 -144 360 -144 m 306 676 l 306 98 l 600 98 l 600 233 l 521 233 q 502 240 512 233 q 492 260 492 248 l 492 425 q 502 446 492 439 q 521 453 512 453 l 732 453 l 793 453 q 813 443 806 453 q 821 425 821 433 l 821 117 l 821 -94 q 813 -112 821 -102 q 793 -122 806 -122 l 732 -122 l 250 -122 l 113 -122 q 93 -112 100 -122 q 85 -94 85 -102 l 85 868 q 93 887 85 877 q 113 897 100 897 l 174 897 l 661 897 l 793 897 q 813 887 806 897 q 821 868 821 877 l 821 555 q 813 537 821 547 q 793 527 806 527 l 628 527 q 607 537 614 527 q 600 555 600 547 l 600 676 l 306 676 z "},"ģ":{"ha":906,"x_min":85,"x_max":821,"o":"m 374 -144 l 544 -144 q 561 -155 557 -144 q 559 -172 564 -165 l 495 -323 q 480 -342 492 -332 q 455 -352 469 -352 l 284 -352 q 268 -341 271 -352 q 269 -323 264 -330 l 333 -172 q 349 -154 337 -163 q 374 -144 360 -144 m 306 676 l 306 98 l 600 98 l 600 233 l 521 233 q 502 240 512 233 q 492 260 492 248 l 492 425 q 502 446 492 439 q 521 453 512 453 l 732 453 l 793 453 q 813 443 806 453 q 821 425 821 433 l 821 117 l 821 -94 q 813 -112 821 -102 q 793 -122 806 -122 l 732 -122 l 250 -122 l 113 -122 q 93 -112 100 -122 q 85 -94 85 -102 l 85 868 q 93 887 85 877 q 113 897 100 897 l 174 897 l 661 897 l 793 897 q 813 887 806 897 q 821 868 821 877 l 821 555 q 813 537 821 547 q 793 527 806 527 l 628 527 q 607 537 614 527 q 600 555 600 547 l 600 676 l 306 676 z "},"Ĥ":{"ha":906,"x_min":85,"x_max":822,"o":"m 360 1168 q 532 1168 360 1168 q 557 1158 546 1168 q 573 1139 569 1148 l 637 988 q 638 970 642 981 q 622 960 635 960 l 504 960 q 476 969 490 960 q 456 988 463 979 l 446 1002 l 437 988 q 416 969 431 979 q 389 960 402 960 l 271 960 q 255 970 258 960 q 256 988 252 981 l 320 1139 q 336 1158 324 1148 q 360 1168 347 1168 m 821 868 l 821 -94 q 814 -112 821 -102 q 793 -122 807 -122 l 629 -122 q 608 -112 616 -122 q 601 -94 601 -102 l 601 292 l 306 292 l 306 -94 q 299 -112 306 -102 q 278 -122 292 -122 l 113 -122 q 93 -112 100 -122 q 85 -94 85 -102 l 85 868 q 93 887 85 877 q 114 897 101 897 l 278 897 q 299 887 292 897 q 306 868 306 877 l 306 513 l 601 513 l 601 868 q 609 887 601 877 q 629 897 616 897 l 793 897 q 814 887 807 897 q 821 868 821 877 z "},"ĥ":{"ha":906,"x_min":85,"x_max":822,"o":"m 360 1168 q 532 1168 360 1168 q 557 1158 546 1168 q 573 1139 569 1148 l 637 988 q 638 970 642 981 q 622 960 635 960 l 504 960 q 476 969 490 960 q 456 988 463 979 l 446 1002 l 437 988 q 416 969 431 979 q 389 960 402 960 l 271 960 q 255 970 258 960 q 256 988 252 981 l 320 1139 q 336 1158 324 1148 q 360 1168 347 1168 m 821 868 l 821 -94 q 814 -112 821 -102 q 793 -122 807 -122 l 629 -122 q 608 -112 616 -122 q 601 -94 601 -102 l 601 292 l 306 292 l 306 -94 q 299 -112 306 -102 q 278 -122 292 -122 l 113 -122 q 93 -112 100 -122 q 85 -94 85 -102 l 85 868 q 93 887 85 877 q 114 897 101 897 l 278 897 q 299 887 292 897 q 306 868 306 877 l 306 513 l 601 513 l 601 868 q 609 887 601 877 q 629 897 616 897 l 793 897 q 814 887 807 897 q 821 868 821 877 z "},"Ħ":{"ha":906,"x_min":-31,"x_max":924,"o":"m 892 751 q 912 743 901 751 q 924 722 924 735 l 924 650 q 912 628 924 635 q 892 621 901 621 l 821 621 l 821 -94 q 814 -112 821 -102 q 793 -122 807 -122 l 629 -122 q 608 -112 616 -122 q 601 -94 601 -102 l 601 292 l 306 292 l 306 -94 q 299 -112 306 -102 q 278 -122 292 -122 l 113 -122 q 93 -112 100 -122 q 85 -94 85 -102 l 85 621 l -1 621 q -20 628 -10 621 q -31 650 -31 635 l -31 722 q -20 743 -31 736 q -1 751 -10 751 l 85 751 l 85 868 q 93 887 85 877 q 114 897 101 897 l 278 897 q 299 887 292 897 q 306 868 306 877 l 306 751 l 601 751 l 601 868 q 609 887 601 877 q 629 897 616 897 l 793 897 q 814 887 807 897 q 821 868 821 877 l 821 751 l 892 751 m 601 621 l 306 621 l 306 513 l 601 513 l 601 621 z "},"ħ":{"ha":906,"x_min":-31,"x_max":924,"o":"m 892 751 q 912 743 901 751 q 924 722 924 735 l 924 650 q 912 628 924 635 q 892 621 901 621 l 821 621 l 821 -94 q 814 -112 821 -102 q 793 -122 807 -122 l 629 -122 q 608 -112 616 -122 q 601 -94 601 -102 l 601 292 l 306 292 l 306 -94 q 299 -112 306 -102 q 278 -122 292 -122 l 113 -122 q 93 -112 100 -122 q 85 -94 85 -102 l 85 621 l -1 621 q -20 628 -10 621 q -31 650 -31 635 l -31 722 q -20 743 -31 736 q -1 751 -10 751 l 85 751 l 85 868 q 93 887 85 877 q 114 897 101 897 l 278 897 q 299 887 292 897 q 306 868 306 877 l 306 751 l 601 751 l 601 868 q 609 887 601 877 q 629 897 616 897 l 793 897 q 814 887 807 897 q 821 868 821 877 l 821 751 l 892 751 m 601 621 l 306 621 l 306 513 l 601 513 l 601 621 z "},"Ĩ":{"ha":606,"x_min":28,"x_max":572,"o":"m 28 933 l 28 1073 q 38 1094 28 1086 q 58 1102 49 1102 l 352 1102 l 352 1145 q 359 1163 352 1154 q 380 1173 367 1173 l 545 1173 q 565 1163 557 1173 q 572 1145 572 1154 l 572 1001 q 561 979 572 987 q 539 972 549 972 l 248 972 l 248 933 q 241 915 248 924 q 220 905 234 905 l 56 905 q 36 915 43 905 q 28 933 28 924 m 193 676 l 114 676 q 95 684 105 676 q 85 704 85 691 l 85 869 q 95 889 85 882 q 114 897 105 897 l 303 897 l 493 897 q 512 889 502 897 q 522 869 522 882 l 522 704 q 512 684 522 691 q 493 676 502 676 l 414 676 l 414 98 l 493 98 q 512 91 502 98 q 522 71 522 84 l 522 -94 q 512 -115 522 -107 q 493 -122 502 -122 l 303 -122 l 114 -122 q 95 -115 105 -122 q 85 -94 85 -107 l 85 71 q 95 91 85 84 q 114 98 105 98 l 193 98 l 193 676 z "},"ĩ":{"ha":606,"x_min":28,"x_max":572,"o":"m 28 933 l 28 1073 q 38 1094 28 1086 q 58 1102 49 1102 l 352 1102 l 352 1145 q 359 1163 352 1154 q 380 1173 367 1173 l 545 1173 q 565 1163 557 1173 q 572 1145 572 1154 l 572 1001 q 561 979 572 987 q 539 972 549 972 l 248 972 l 248 933 q 241 915 248 924 q 220 905 234 905 l 56 905 q 36 915 43 905 q 28 933 28 924 m 193 676 l 114 676 q 95 684 105 676 q 85 704 85 691 l 85 869 q 95 889 85 882 q 114 897 105 897 l 303 897 l 493 897 q 512 889 502 897 q 522 869 522 882 l 522 704 q 512 684 522 691 q 493 676 502 676 l 414 676 l 414 98 l 493 98 q 512 91 502 98 q 522 71 522 84 l 522 -94 q 512 -115 522 -107 q 493 -122 502 -122 l 303 -122 l 114 -122 q 95 -115 105 -122 q 85 -94 85 -107 l 85 71 q 95 91 85 84 q 114 98 105 98 l 193 98 l 193 676 z "},"Ī":{"ha":606,"x_min":85,"x_max":522,"o":"m 474 1090 q 495 1082 484 1090 q 506 1061 506 1075 l 506 989 q 495 967 506 975 q 474 960 484 960 l 123 960 q 104 967 114 960 q 94 989 94 975 l 94 1061 q 104 1082 94 1075 q 123 1090 114 1090 l 474 1090 m 193 676 l 114 676 q 95 684 105 676 q 85 704 85 691 l 85 869 q 95 889 85 882 q 114 897 105 897 l 303 897 l 493 897 q 512 889 502 897 q 522 869 522 882 l 522 704 q 512 684 522 691 q 493 676 502 676 l 414 676 l 414 98 l 493 98 q 512 91 502 98 q 522 71 522 84 l 522 -94 q 512 -115 522 -107 q 493 -122 502 -122 l 303 -122 l 114 -122 q 95 -115 105 -122 q 85 -94 85 -107 l 85 71 q 95 91 85 84 q 114 98 105 98 l 193 98 l 193 676 z "},"ī":{"ha":606,"x_min":85,"x_max":522,"o":"m 474 1090 q 495 1082 484 1090 q 506 1061 506 1075 l 506 989 q 495 967 506 975 q 474 960 484 960 l 123 960 q 104 967 114 960 q 94 989 94 975 l 94 1061 q 104 1082 94 1075 q 123 1090 114 1090 l 474 1090 m 193 676 l 114 676 q 95 684 105 676 q 85 704 85 691 l 85 869 q 95 889 85 882 q 114 897 105 897 l 303 897 l 493 897 q 512 889 502 897 q 522 869 522 882 l 522 704 q 512 684 522 691 q 493 676 502 676 l 414 676 l 414 98 l 493 98 q 512 91 502 98 q 522 71 522 84 l 522 -94 q 512 -115 522 -107 q 493 -122 502 -122 l 303 -122 l 114 -122 q 95 -115 105 -122 q 85 -94 85 -107 l 85 71 q 95 91 85 84 q 114 98 105 98 l 193 98 l 193 676 z "},"Ĭ":{"ha":606,"x_min":43,"x_max":564,"o":"m 152 960 q 127 969 138 960 q 112 988 115 979 l 47 1139 q 46 1157 43 1146 q 63 1168 50 1168 l 180 1168 q 208 1158 194 1168 q 228 1139 222 1148 l 267 1083 l 339 1083 l 378 1139 q 398 1158 385 1148 q 426 1168 412 1168 l 543 1168 q 560 1157 557 1168 q 559 1139 563 1146 l 494 988 q 479 969 490 979 q 454 960 467 960 l 152 960 m 193 676 l 114 676 q 95 684 105 676 q 85 704 85 691 l 85 869 q 95 889 85 882 q 114 897 105 897 l 303 897 l 493 897 q 512 889 502 897 q 522 869 522 882 l 522 704 q 512 684 522 691 q 493 676 502 676 l 414 676 l 414 98 l 493 98 q 512 91 502 98 q 522 71 522 84 l 522 -94 q 512 -115 522 -107 q 493 -122 502 -122 l 303 -122 l 114 -122 q 95 -115 105 -122 q 85 -94 85 -107 l 85 71 q 95 91 85 84 q 114 98 105 98 l 193 98 l 193 676 z "},"ĭ":{"ha":606,"x_min":43,"x_max":564,"o":"m 152 960 q 127 969 138 960 q 112 988 115 979 l 47 1139 q 46 1157 43 1146 q 63 1168 50 1168 l 180 1168 q 208 1158 194 1168 q 228 1139 222 1148 l 267 1083 l 339 1083 l 378 1139 q 398 1158 385 1148 q 426 1168 412 1168 l 543 1168 q 560 1157 557 1168 q 559 1139 563 1146 l 494 988 q 479 969 490 979 q 454 960 467 960 l 152 960 m 193 676 l 114 676 q 95 684 105 676 q 85 704 85 691 l 85 869 q 95 889 85 882 q 114 897 105 897 l 303 897 l 493 897 q 512 889 502 897 q 522 869 522 882 l 522 704 q 512 684 522 691 q 493 676 502 676 l 414 676 l 414 98 l 493 98 q 512 91 502 98 q 522 71 522 84 l 522 -94 q 512 -115 522 -107 q 493 -122 502 -122 l 303 -122 l 114 -122 q 95 -115 105 -122 q 85 -94 85 -107 l 85 71 q 95 91 85 84 q 114 98 105 98 l 193 98 l 193 676 z "},"Į":{"ha":606,"x_min":85,"x_max":522,"o":"m 302 -352 q 277 -342 289 -352 q 262 -323 266 -332 l 198 -172 q 197 -155 193 -165 q 213 -144 200 -144 l 384 -144 q 409 -154 397 -144 q 424 -172 420 -163 l 488 -323 q 490 -341 493 -330 q 473 -352 486 -352 l 302 -352 m 193 676 l 114 676 q 95 684 105 676 q 85 704 85 691 l 85 869 q 95 889 85 882 q 114 897 105 897 l 303 897 l 493 897 q 512 889 502 897 q 522 869 522 882 l 522 704 q 512 684 522 691 q 493 676 502 676 l 414 676 l 414 98 l 493 98 q 512 91 502 98 q 522 71 522 84 l 522 -94 q 512 -115 522 -107 q 493 -122 502 -122 l 303 -122 l 114 -122 q 95 -115 105 -122 q 85 -94 85 -107 l 85 71 q 95 91 85 84 q 114 98 105 98 l 193 98 l 193 676 z "},"į":{"ha":606,"x_min":85,"x_max":522,"o":"m 302 -352 q 277 -342 289 -352 q 262 -323 266 -332 l 198 -172 q 197 -155 193 -165 q 213 -144 200 -144 l 384 -144 q 409 -154 397 -144 q 424 -172 420 -163 l 488 -323 q 490 -341 493 -330 q 473 -352 486 -352 l 302 -352 m 193 676 l 114 676 q 95 684 105 676 q 85 704 85 691 l 85 869 q 95 889 85 882 q 114 897 105 897 l 303 897 l 493 897 q 512 889 502 897 q 522 869 522 882 l 522 704 q 512 684 522 691 q 493 676 502 676 l 414 676 l 414 98 l 493 98 q 512 91 502 98 q 522 71 522 84 l 522 -94 q 512 -115 522 -107 q 493 -122 502 -122 l 303 -122 l 114 -122 q 95 -115 105 -122 q 85 -94 85 -107 l 85 71 q 95 91 85 84 q 114 98 105 98 l 193 98 l 193 676 z "},"İ":{"ha":606,"x_min":85,"x_max":522,"o":"m 390 1162 q 411 1152 404 1162 q 418 1133 418 1142 l 418 989 q 411 970 418 980 q 390 960 404 960 l 225 960 q 205 970 212 960 q 197 989 197 980 l 197 1133 q 205 1152 197 1142 q 225 1162 212 1162 l 390 1162 m 193 676 l 114 676 q 95 684 105 676 q 85 704 85 691 l 85 869 q 95 889 85 882 q 114 897 105 897 l 303 897 l 493 897 q 512 889 502 897 q 522 869 522 882 l 522 704 q 512 684 522 691 q 493 676 502 676 l 414 676 l 414 98 l 493 98 q 512 91 502 98 q 522 71 522 84 l 522 -94 q 512 -115 522 -107 q 493 -122 502 -122 l 303 -122 l 114 -122 q 95 -115 105 -122 q 85 -94 85 -107 l 85 71 q 95 91 85 84 q 114 98 105 98 l 193 98 l 193 676 z "},"ı":{"ha":606,"x_min":85,"x_max":522,"o":"m 193 676 l 114 676 q 95 684 105 676 q 85 704 85 691 l 85 869 q 95 889 85 882 q 114 897 105 897 l 303 897 l 493 897 q 512 889 502 897 q 522 869 522 882 l 522 704 q 512 684 522 691 q 493 676 502 676 l 414 676 l 414 98 l 493 98 q 512 91 502 98 q 522 71 522 84 l 522 -94 q 512 -115 522 -107 q 493 -122 502 -122 l 303 -122 l 114 -122 q 95 -115 105 -122 q 85 -94 85 -107 l 85 71 q 95 91 85 84 q 114 98 105 98 l 193 98 l 193 676 z "},"Ĵ":{"ha":838,"x_min":85,"x_max":822,"o":"m 541 1168 q 713 1168 541 1168 q 738 1158 726 1168 q 753 1139 749 1148 l 817 988 q 819 970 822 981 q 802 960 815 960 l 684 960 q 657 969 671 960 q 637 988 643 979 l 627 1002 l 617 988 q 597 969 611 979 q 569 960 583 960 l 452 960 q 435 970 438 960 q 437 988 432 981 l 500 1139 q 516 1158 505 1148 q 541 1168 528 1168 m 85 -94 l 85 220 q 93 239 85 229 q 113 249 100 249 l 278 249 q 299 239 292 249 q 306 220 307 229 l 306 98 l 533 98 l 533 868 q 541 887 534 877 q 561 897 548 897 l 726 897 q 746 887 739 897 q 753 868 753 877 l 753 -94 q 746 -112 753 -102 q 725 -122 739 -122 l 533 -122 l 113 -122 q 93 -112 100 -122 q 85 -94 85 -102 z "},"ĵ":{"ha":838,"x_min":85,"x_max":822,"o":"m 541 1168 q 713 1168 541 1168 q 738 1158 726 1168 q 753 1139 749 1148 l 817 988 q 819 970 822 981 q 802 960 815 960 l 684 960 q 657 969 671 960 q 637 988 643 979 l 627 1002 l 617 988 q 597 969 611 979 q 569 960 583 960 l 452 960 q 435 970 438 960 q 437 988 432 981 l 500 1139 q 516 1158 505 1148 q 541 1168 528 1168 m 85 -94 l 85 220 q 93 239 85 229 q 113 249 100 249 l 278 249 q 299 239 292 249 q 306 220 307 229 l 306 98 l 533 98 l 533 868 q 541 887 534 877 q 561 897 548 897 l 726 897 q 746 887 739 897 q 753 868 753 877 l 753 -94 q 746 -112 753 -102 q 725 -122 739 -122 l 533 -122 l 113 -122 q 93 -112 100 -122 q 85 -94 85 -102 z "},"Ķ":{"ha":906,"x_min":85,"x_max":860,"o":"m 374 -144 l 544 -144 q 561 -155 557 -144 q 559 -172 564 -165 l 495 -323 q 480 -342 492 -332 q 455 -352 469 -352 l 284 -352 q 268 -341 271 -352 q 269 -323 264 -330 l 333 -172 q 349 -154 337 -163 q 374 -144 360 -144 m 602 897 l 787 897 q 801 886 800 897 q 795 868 802 875 l 541 490 l 854 -94 q 857 -111 859 -100 q 842 -122 855 -122 l 656 -122 q 631 -112 644 -122 q 614 -94 618 -102 l 408 292 l 306 140 l 306 -94 q 299 -112 306 -102 q 278 -122 292 -122 l 113 -122 q 93 -112 100 -122 q 85 -94 85 -102 l 85 868 q 93 887 85 877 q 114 897 101 897 l 278 897 q 299 887 292 897 q 306 868 306 877 l 306 500 l 555 868 q 575 887 562 877 q 602 897 589 897 z "},"ķ":{"ha":906,"x_min":85,"x_max":860,"o":"m 374 -144 l 544 -144 q 561 -155 557 -144 q 559 -172 564 -165 l 495 -323 q 480 -342 492 -332 q 455 -352 469 -352 l 284 -352 q 268 -341 271 -352 q 269 -323 264 -330 l 333 -172 q 349 -154 337 -163 q 374 -144 360 -144 m 602 897 l 787 897 q 801 886 800 897 q 795 868 802 875 l 541 490 l 854 -94 q 857 -111 859 -100 q 842 -122 855 -122 l 656 -122 q 631 -112 644 -122 q 614 -94 618 -102 l 408 292 l 306 140 l 306 -94 q 299 -112 306 -102 q 278 -122 292 -122 l 113 -122 q 93 -112 100 -122 q 85 -94 85 -102 l 85 868 q 93 887 85 877 q 114 897 101 897 l 278 897 q 299 887 292 897 q 306 868 306 877 l 306 500 l 555 868 q 575 887 562 877 q 602 897 589 897 z "},"Ĺ":{"ha":779,"x_min":85,"x_max":694,"o":"m 275 1168 l 446 1168 q 463 1157 460 1168 q 461 1139 466 1146 l 397 988 q 382 969 393 979 q 357 960 370 960 l 186 960 q 170 970 173 960 q 172 988 167 981 l 235 1139 q 251 1158 239 1148 q 275 1168 262 1168 m 85 868 q 93 887 85 877 q 114 897 100 897 l 278 897 q 299 887 292 897 q 306 868 306 877 l 306 98 l 665 98 q 683 91 673 98 q 693 71 693 84 l 693 -94 q 683 -115 693 -107 q 665 -122 673 -122 q 250 -122 449 -122 l 113 -122 q 93 -112 100 -122 q 85 -94 85 -102 l 85 800 l 85 868 z "},"ĺ":{"ha":779,"x_min":85,"x_max":694,"o":"m 275 1168 l 446 1168 q 463 1157 460 1168 q 461 1139 466 1146 l 397 988 q 382 969 393 979 q 357 960 370 960 l 186 960 q 170 970 173 960 q 172 988 167 981 l 235 1139 q 251 1158 239 1148 q 275 1168 262 1168 m 85 868 q 93 887 85 877 q 114 897 100 897 l 278 897 q 299 887 292 897 q 306 868 306 877 l 306 98 l 665 98 q 683 91 673 98 q 693 71 693 84 l 693 -94 q 683 -115 693 -107 q 665 -122 673 -122 q 250 -122 449 -122 l 113 -122 q 93 -112 100 -122 q 85 -94 85 -102 l 85 800 l 85 868 z "},"Ļ":{"ha":779,"x_min":85,"x_max":694,"o":"m 321 -144 l 491 -144 q 508 -155 505 -144 q 507 -172 511 -165 l 442 -323 q 427 -342 439 -332 q 402 -352 416 -352 l 231 -352 q 215 -341 218 -352 q 216 -323 212 -330 l 280 -172 q 296 -154 284 -163 q 321 -144 307 -144 m 85 868 q 93 887 85 877 q 114 897 100 897 l 278 897 q 299 887 292 897 q 306 868 306 877 l 306 98 l 665 98 q 683 91 673 98 q 693 71 693 84 l 693 -94 q 683 -115 693 -107 q 665 -122 673 -122 q 250 -122 449 -122 l 113 -122 q 93 -112 100 -122 q 85 -94 85 -102 l 85 800 l 85 868 z "},"ļ":{"ha":779,"x_min":85,"x_max":694,"o":"m 321 -144 l 491 -144 q 508 -155 505 -144 q 507 -172 511 -165 l 442 -323 q 427 -342 439 -332 q 402 -352 416 -352 l 231 -352 q 215 -341 218 -352 q 216 -323 212 -330 l 280 -172 q 296 -154 284 -163 q 321 -144 307 -144 m 85 868 q 93 887 85 877 q 114 897 100 897 l 278 897 q 299 887 292 897 q 306 868 306 877 l 306 98 l 665 98 q 683 91 673 98 q 693 71 693 84 l 693 -94 q 683 -115 693 -107 q 665 -122 673 -122 q 250 -122 449 -122 l 113 -122 q 93 -112 100 -122 q 85 -94 85 -102 l 85 800 l 85 868 z "},"Ľ":{"ha":779,"x_min":85,"x_max":707,"o":"m 515 897 q 686 897 515 897 q 703 886 700 897 q 701 868 706 875 l 578 589 q 563 570 574 580 q 538 560 551 560 l 368 560 q 351 571 354 560 q 352 589 348 582 l 475 868 q 491 887 479 877 q 515 897 503 897 m 85 868 q 93 887 85 877 q 114 897 100 897 l 278 897 q 299 887 292 897 q 306 868 306 877 l 306 98 l 665 98 q 683 91 673 98 q 693 71 693 84 l 693 -94 q 683 -115 693 -107 q 665 -122 673 -122 q 250 -122 449 -122 l 113 -122 q 93 -112 100 -122 q 85 -94 85 -102 l 85 800 l 85 868 z "},"ľ":{"ha":779,"x_min":85,"x_max":707,"o":"m 515 897 q 686 897 515 897 q 703 886 700 897 q 701 868 706 875 l 578 589 q 563 570 574 580 q 538 560 551 560 l 368 560 q 351 571 354 560 q 352 589 348 582 l 475 868 q 491 887 479 877 q 515 897 503 897 m 85 868 q 93 887 85 877 q 114 897 100 897 l 278 897 q 299 887 292 897 q 306 868 306 877 l 306 98 l 665 98 q 683 91 673 98 q 693 71 693 84 l 693 -94 q 683 -115 693 -107 q 665 -122 673 -122 q 250 -122 449 -122 l 113 -122 q 93 -112 100 -122 q 85 -94 85 -102 l 85 800 l 85 868 z "},"Ł":{"ha":779,"x_min":0,"x_max":694,"o":"m 85 868 q 93 887 85 877 q 114 897 100 897 l 278 897 q 299 887 292 897 q 306 868 306 877 l 306 579 l 506 668 q 524 670 513 673 q 534 653 534 667 l 534 482 q 525 458 534 469 q 506 442 515 446 l 306 353 l 306 98 l 665 98 q 683 91 673 98 q 693 71 693 84 l 693 -94 q 683 -115 693 -107 q 665 -122 673 -122 q 250 -122 449 -122 l 113 -122 q 93 -112 100 -122 q 85 -94 85 -102 l 85 255 l 28 230 q 11 228 22 225 q 0 245 0 231 l 0 416 q 10 440 0 429 q 28 456 20 452 l 85 481 l 85 800 l 85 868 z "},"ł":{"ha":779,"x_min":0,"x_max":694,"o":"m 85 868 q 93 887 85 877 q 114 897 100 897 l 278 897 q 299 887 292 897 q 306 868 306 877 l 306 579 l 506 668 q 524 670 513 673 q 534 653 534 667 l 534 482 q 525 458 534 469 q 506 442 515 446 l 306 353 l 306 98 l 665 98 q 683 91 673 98 q 693 71 693 84 l 693 -94 q 683 -115 693 -107 q 665 -122 673 -122 q 250 -122 449 -122 l 113 -122 q 93 -112 100 -122 q 85 -94 85 -102 l 85 255 l 28 230 q 11 228 22 225 q 0 245 0 231 l 0 416 q 10 440 0 429 q 28 456 20 452 l 85 481 l 85 800 l 85 868 z "},"Ń":{"ha":906,"x_min":85,"x_max":822,"o":"m 411 1168 l 582 1168 q 598 1157 595 1168 q 597 1139 602 1146 l 533 988 q 517 969 529 979 q 493 960 506 960 l 322 960 q 306 970 309 960 q 307 988 302 981 l 371 1139 q 387 1158 375 1148 q 411 1168 398 1168 m 313 897 q 338 887 327 897 q 354 868 350 877 l 601 314 l 601 868 q 609 887 601 877 q 629 897 616 897 l 793 897 q 814 887 807 897 q 821 868 821 877 l 821 -94 q 814 -112 821 -102 q 793 -122 807 -122 l 768 -122 l 768 -123 l 597 -123 q 572 -113 584 -123 q 557 -94 561 -103 l 306 469 l 306 -94 q 299 -112 306 -102 q 278 -122 292 -122 l 113 -122 q 93 -112 100 -122 q 85 -94 85 -102 l 85 868 q 93 887 85 877 q 114 897 101 897 l 313 897 z "},"ń":{"ha":906,"x_min":85,"x_max":822,"o":"m 411 1168 l 582 1168 q 598 1157 595 1168 q 597 1139 602 1146 l 533 988 q 517 969 529 979 q 493 960 506 960 l 322 960 q 306 970 309 960 q 307 988 302 981 l 371 1139 q 387 1158 375 1148 q 411 1168 398 1168 m 313 897 q 338 887 327 897 q 354 868 350 877 l 601 314 l 601 868 q 609 887 601 877 q 629 897 616 897 l 793 897 q 814 887 807 897 q 821 868 821 877 l 821 -94 q 814 -112 821 -102 q 793 -122 807 -122 l 768 -122 l 768 -123 l 597 -123 q 572 -113 584 -123 q 557 -94 561 -103 l 306 469 l 306 -94 q 299 -112 306 -102 q 278 -122 292 -122 l 113 -122 q 93 -112 100 -122 q 85 -94 85 -102 l 85 868 q 93 887 85 877 q 114 897 101 897 l 313 897 z "},"Ņ":{"ha":906,"x_min":85,"x_max":822,"o":"m 374 -144 l 544 -144 q 561 -155 557 -144 q 559 -172 564 -165 l 495 -323 q 480 -342 492 -332 q 455 -352 469 -352 l 284 -352 q 268 -341 271 -352 q 269 -323 264 -330 l 333 -172 q 349 -154 337 -163 q 374 -144 360 -144 m 313 897 q 338 887 327 897 q 354 868 350 877 l 601 314 l 601 868 q 609 887 601 877 q 629 897 616 897 l 793 897 q 814 887 807 897 q 821 868 821 877 l 821 -94 q 814 -112 821 -102 q 793 -122 807 -122 l 768 -122 l 768 -123 l 597 -123 q 572 -113 584 -123 q 557 -94 561 -103 l 306 469 l 306 -94 q 299 -112 306 -102 q 278 -122 292 -122 l 113 -122 q 93 -112 100 -122 q 85 -94 85 -102 l 85 868 q 93 887 85 877 q 114 897 101 897 l 313 897 z "},"ņ":{"ha":906,"x_min":85,"x_max":822,"o":"m 374 -144 l 544 -144 q 561 -155 557 -144 q 559 -172 564 -165 l 495 -323 q 480 -342 492 -332 q 455 -352 469 -352 l 284 -352 q 268 -341 271 -352 q 269 -323 264 -330 l 333 -172 q 349 -154 337 -163 q 374 -144 360 -144 m 313 897 q 338 887 327 897 q 354 868 350 877 l 601 314 l 601 868 q 609 887 601 877 q 629 897 616 897 l 793 897 q 814 887 807 897 q 821 868 821 877 l 821 -94 q 814 -112 821 -102 q 793 -122 807 -122 l 768 -122 l 768 -123 l 597 -123 q 572 -113 584 -123 q 557 -94 561 -103 l 306 469 l 306 -94 q 299 -112 306 -102 q 278 -122 292 -122 l 113 -122 q 93 -112 100 -122 q 85 -94 85 -102 l 85 868 q 93 887 85 877 q 114 897 101 897 l 313 897 z "},"Ň":{"ha":906,"x_min":85,"x_max":822,"o":"m 544 926 l 372 926 q 347 936 359 926 q 332 954 336 945 l 268 1105 q 266 1123 263 1112 q 283 1134 269 1134 l 400 1134 q 428 1124 414 1134 q 448 1105 442 1114 l 458 1091 l 468 1105 q 488 1124 474 1114 q 515 1134 502 1134 l 633 1134 q 650 1123 646 1134 q 648 1105 653 1112 l 585 954 q 569 936 581 945 q 544 926 557 926 m 313 897 q 338 887 327 897 q 354 868 350 877 l 601 314 l 601 868 q 609 887 601 877 q 629 897 616 897 l 793 897 q 814 887 807 897 q 821 868 821 877 l 821 -94 q 814 -112 821 -102 q 793 -122 807 -122 l 768 -122 l 768 -123 l 597 -123 q 572 -113 584 -123 q 557 -94 561 -103 l 306 469 l 306 -94 q 299 -112 306 -102 q 278 -122 292 -122 l 113 -122 q 93 -112 100 -122 q 85 -94 85 -102 l 85 868 q 93 887 85 877 q 114 897 101 897 l 313 897 z "},"ň":{"ha":906,"x_min":85,"x_max":822,"o":"m 544 926 l 372 926 q 347 936 359 926 q 332 954 336 945 l 268 1105 q 266 1123 263 1112 q 283 1134 269 1134 l 400 1134 q 428 1124 414 1134 q 448 1105 442 1114 l 458 1091 l 468 1105 q 488 1124 474 1114 q 515 1134 502 1134 l 633 1134 q 650 1123 646 1134 q 648 1105 653 1112 l 585 954 q 569 936 581 945 q 544 926 557 926 m 313 897 q 338 887 327 897 q 354 868 350 877 l 601 314 l 601 868 q 609 887 601 877 q 629 897 616 897 l 793 897 q 814 887 807 897 q 821 868 821 877 l 821 -94 q 814 -112 821 -102 q 793 -122 807 -122 l 768 -122 l 768 -123 l 597 -123 q 572 -113 584 -123 q 557 -94 561 -103 l 306 469 l 306 -94 q 299 -112 306 -102 q 278 -122 292 -122 l 113 -122 q 93 -112 100 -122 q 85 -94 85 -102 l 85 868 q 93 887 85 877 q 114 897 101 897 l 313 897 z "},"Ō":{"ha":974,"x_min":85,"x_max":888,"o":"m 671 1090 q 692 1082 681 1090 q 703 1061 703 1075 l 703 989 q 692 967 703 975 q 671 960 682 960 l 321 960 q 302 967 312 960 q 292 989 292 975 l 292 1061 q 302 1082 292 1075 q 321 1090 312 1090 l 671 1090 m 888 868 l 888 -94 q 881 -112 888 -102 q 861 -122 873 -122 l 724 -122 q 448 -122 643 -122 q 174 -122 254 -122 l 113 -122 q 93 -112 100 -122 q 85 -94 85 -102 l 85 868 q 93 887 85 877 q 113 897 100 897 l 245 897 q 522 897 326 897 q 800 897 718 897 l 861 897 q 881 887 873 897 q 888 868 888 877 m 668 98 l 668 676 l 306 676 l 306 98 l 668 98 z "},"ō":{"ha":974,"x_min":85,"x_max":888,"o":"m 671 1090 q 692 1082 681 1090 q 703 1061 703 1075 l 703 989 q 692 967 703 975 q 671 960 682 960 l 321 960 q 302 967 312 960 q 292 989 292 975 l 292 1061 q 302 1082 292 1075 q 321 1090 312 1090 l 671 1090 m 888 868 l 888 -94 q 881 -112 888 -102 q 861 -122 873 -122 l 724 -122 q 448 -122 643 -122 q 174 -122 254 -122 l 113 -122 q 93 -112 100 -122 q 85 -94 85 -102 l 85 868 q 93 887 85 877 q 113 897 100 897 l 245 897 q 522 897 326 897 q 800 897 718 897 l 861 897 q 881 887 873 897 q 888 868 888 877 m 668 98 l 668 676 l 306 676 l 306 98 l 668 98 z "},"Ŏ":{"ha":974,"x_min":85,"x_max":888,"o":"m 345 960 q 320 969 332 960 q 305 988 309 979 l 241 1139 q 239 1157 236 1146 q 256 1168 243 1168 l 374 1168 q 401 1158 387 1168 q 421 1139 415 1148 l 460 1083 l 532 1083 l 571 1139 q 592 1158 578 1148 q 619 1168 606 1168 l 736 1168 q 753 1157 750 1168 q 752 1139 756 1146 l 688 988 q 672 969 684 979 q 648 960 661 960 l 345 960 m 888 868 l 888 -94 q 881 -112 888 -102 q 861 -122 873 -122 l 724 -122 q 448 -122 643 -122 q 174 -122 254 -122 l 113 -122 q 93 -112 100 -122 q 85 -94 85 -102 l 85 868 q 93 887 85 877 q 113 897 100 897 l 245 897 q 522 897 326 897 q 800 897 718 897 l 861 897 q 881 887 873 897 q 888 868 888 877 m 668 98 l 668 676 l 306 676 l 306 98 l 668 98 z "},"ŏ":{"ha":974,"x_min":85,"x_max":888,"o":"m 345 960 q 320 969 332 960 q 305 988 309 979 l 241 1139 q 239 1157 236 1146 q 256 1168 243 1168 l 374 1168 q 401 1158 387 1168 q 421 1139 415 1148 l 460 1083 l 532 1083 l 571 1139 q 592 1158 578 1148 q 619 1168 606 1168 l 736 1168 q 753 1157 750 1168 q 752 1139 756 1146 l 688 988 q 672 969 684 979 q 648 960 661 960 l 345 960 m 888 868 l 888 -94 q 881 -112 888 -102 q 861 -122 873 -122 l 724 -122 q 448 -122 643 -122 q 174 -122 254 -122 l 113 -122 q 93 -112 100 -122 q 85 -94 85 -102 l 85 868 q 93 887 85 877 q 113 897 100 897 l 245 897 q 522 897 326 897 q 800 897 718 897 l 861 897 q 881 887 873 897 q 888 868 888 877 m 668 98 l 668 676 l 306 676 l 306 98 l 668 98 z "},"Ő":{"ha":974,"x_min":85,"x_max":888,"o":"m 582 1168 l 753 1168 q 769 1157 766 1168 q 768 1139 772 1146 l 704 988 q 688 969 700 979 q 664 960 677 960 l 493 960 q 476 970 479 960 q 478 988 473 981 l 542 1139 q 557 1158 546 1148 q 582 1168 569 1168 m 311 1168 l 481 1168 q 498 1157 495 1168 q 496 1139 501 1146 l 433 988 q 417 969 429 979 q 393 960 406 960 l 222 960 q 205 970 208 960 q 207 988 202 981 l 271 1139 q 286 1158 275 1148 q 311 1168 298 1168 m 888 868 l 888 -94 q 881 -112 888 -102 q 861 -122 873 -122 l 724 -122 l 174 -122 l 113 -122 q 93 -112 100 -122 q 85 -94 85 -102 l 85 868 q 93 887 85 877 q 113 897 100 897 l 245 897 l 800 897 l 861 897 q 881 887 873 897 q 888 868 888 877 m 668 98 l 668 676 l 306 676 l 306 98 l 668 98 z "},"ő":{"ha":974,"x_min":85,"x_max":888,"o":"m 582 1168 l 753 1168 q 769 1157 766 1168 q 768 1139 772 1146 l 704 988 q 688 969 700 979 q 664 960 677 960 l 493 960 q 476 970 479 960 q 478 988 473 981 l 542 1139 q 557 1158 546 1148 q 582 1168 569 1168 m 311 1168 l 481 1168 q 498 1157 495 1168 q 496 1139 501 1146 l 433 988 q 417 969 429 979 q 393 960 406 960 l 222 960 q 205 970 208 960 q 207 988 202 981 l 271 1139 q 286 1158 275 1148 q 311 1168 298 1168 m 888 868 l 888 -94 q 881 -112 888 -102 q 861 -122 873 -122 l 724 -122 l 174 -122 l 113 -122 q 93 -112 100 -122 q 85 -94 85 -102 l 85 868 q 93 887 85 877 q 113 897 100 897 l 245 897 l 800 897 l 861 897 q 881 887 873 897 q 888 868 888 877 m 668 98 l 668 676 l 306 676 l 306 98 l 668 98 z "},"Œ":{"ha":1186,"x_min":85,"x_max":1092,"o":"m 492 676 l 306 676 l 306 98 l 492 98 l 492 676 m 820 -122 l 174 -122 l 113 -122 q 93 -112 100 -122 q 85 -94 85 -102 l 85 868 q 93 887 85 877 q 113 897 100 897 l 245 897 q 621 897 318 897 q 1009 897 923 897 l 1063 897 q 1082 889 1072 897 q 1092 869 1092 882 l 1092 704 q 1082 684 1092 691 q 1063 676 1072 676 l 713 676 l 713 498 l 897 498 l 951 498 q 969 491 959 498 q 979 471 979 484 l 979 306 q 969 286 979 293 q 951 278 959 278 l 713 278 l 713 98 l 1009 98 l 1063 98 q 1082 91 1072 98 q 1092 71 1092 84 l 1092 -94 q 1082 -115 1092 -107 q 1063 -122 1072 -122 l 820 -122 z "},"œ":{"ha":1186,"x_min":85,"x_max":1092,"o":"m 492 676 l 306 676 l 306 98 l 492 98 l 492 676 m 820 -122 l 174 -122 l 113 -122 q 93 -112 100 -122 q 85 -94 85 -102 l 85 868 q 93 887 85 877 q 113 897 100 897 l 245 897 q 621 897 318 897 q 1009 897 923 897 l 1063 897 q 1082 889 1072 897 q 1092 869 1092 882 l 1092 704 q 1082 684 1092 691 q 1063 676 1072 676 l 713 676 l 713 498 l 897 498 l 951 498 q 969 491 959 498 q 979 471 979 484 l 979 306 q 969 286 979 293 q 951 278 959 278 l 713 278 l 713 98 l 1009 98 l 1063 98 q 1082 91 1072 98 q 1092 71 1092 84 l 1092 -94 q 1082 -115 1092 -107 q 1063 -122 1072 -122 l 820 -122 z "},"Ŕ":{"ha":906,"x_min":85,"x_max":841,"o":"m 411 1168 l 582 1168 q 598 1157 595 1168 q 597 1139 602 1146 l 533 988 q 517 969 529 979 q 493 960 506 960 l 322 960 q 306 970 309 960 q 307 988 302 981 l 371 1139 q 387 1158 375 1148 q 411 1168 398 1168 m 600 676 l 306 676 l 306 482 l 490 482 l 600 482 l 600 676 m 85 868 q 88 876 86 871 q 97 889 90 881 q 113 897 104 897 l 174 897 l 628 897 l 792 897 q 812 887 805 897 q 820 868 820 877 l 820 290 q 812 272 820 281 q 792 262 805 262 l 680 262 l 836 -94 q 837 -111 840 -100 q 821 -122 834 -122 l 650 -122 q 625 -112 637 -122 q 610 -94 614 -102 l 454 262 l 306 262 l 306 -94 q 298 -112 306 -102 q 278 -122 291 -122 l 113 -122 q 93 -112 100 -122 q 85 -94 85 -102 l 85 868 z "},"ŕ":{"ha":906,"x_min":85,"x_max":841,"o":"m 411 1168 l 582 1168 q 598 1157 595 1168 q 597 1139 602 1146 l 533 988 q 517 969 529 979 q 493 960 506 960 l 322 960 q 306 970 309 960 q 307 988 302 981 l 371 1139 q 387 1158 375 1148 q 411 1168 398 1168 m 600 676 l 306 676 l 306 482 l 490 482 l 600 482 l 600 676 m 85 868 q 88 876 86 871 q 97 889 90 881 q 113 897 104 897 l 174 897 l 628 897 l 792 897 q 812 887 805 897 q 820 868 820 877 l 820 290 q 812 272 820 281 q 792 262 805 262 l 680 262 l 836 -94 q 837 -111 840 -100 q 821 -122 834 -122 l 650 -122 q 625 -112 637 -122 q 610 -94 614 -102 l 454 262 l 306 262 l 306 -94 q 298 -112 306 -102 q 278 -122 291 -122 l 113 -122 q 93 -112 100 -122 q 85 -94 85 -102 l 85 868 z "},"Ŗ":{"ha":906,"x_min":85,"x_max":841,"o":"m 374 -144 l 544 -144 q 561 -155 557 -144 q 559 -172 564 -165 l 495 -323 q 480 -342 492 -332 q 455 -352 469 -352 l 284 -352 q 268 -341 271 -352 q 269 -323 264 -330 l 333 -172 q 349 -154 337 -163 q 374 -144 360 -144 m 600 676 l 306 676 l 306 482 l 490 482 l 600 482 l 600 676 m 85 868 q 88 876 86 871 q 97 889 90 881 q 113 897 104 897 l 174 897 l 628 897 l 792 897 q 812 887 805 897 q 820 868 820 877 l 820 290 q 812 272 820 281 q 792 262 805 262 l 680 262 l 836 -94 q 837 -111 840 -100 q 821 -122 834 -122 l 650 -122 q 625 -112 637 -122 q 610 -94 614 -102 l 454 262 l 306 262 l 306 -94 q 298 -112 306 -102 q 278 -122 291 -122 l 113 -122 q 93 -112 100 -122 q 85 -94 85 -102 l 85 868 z "},"ŗ":{"ha":906,"x_min":85,"x_max":841,"o":"m 374 -144 l 544 -144 q 561 -155 557 -144 q 559 -172 564 -165 l 495 -323 q 480 -342 492 -332 q 455 -352 469 -352 l 284 -352 q 268 -341 271 -352 q 269 -323 264 -330 l 333 -172 q 349 -154 337 -163 q 374 -144 360 -144 m 600 676 l 306 676 l 306 482 l 490 482 l 600 482 l 600 676 m 85 868 q 88 876 86 871 q 97 889 90 881 q 113 897 104 897 l 174 897 l 628 897 l 792 897 q 812 887 805 897 q 820 868 820 877 l 820 290 q 812 272 820 281 q 792 262 805 262 l 680 262 l 836 -94 q 837 -111 840 -100 q 821 -122 834 -122 l 650 -122 q 625 -112 637 -122 q 610 -94 614 -102 l 454 262 l 306 262 l 306 -94 q 298 -112 306 -102 q 278 -122 291 -122 l 113 -122 q 93 -112 100 -122 q 85 -94 85 -102 l 85 868 z "},"Ř":{"ha":906,"x_min":85,"x_max":841,"o":"m 532 926 l 360 926 q 336 936 347 926 q 320 954 324 945 l 256 1105 q 255 1123 252 1112 q 271 1134 258 1134 l 389 1134 q 416 1124 402 1134 q 437 1105 431 1114 l 446 1091 l 456 1105 q 476 1124 463 1114 q 504 1134 490 1134 l 622 1134 q 638 1123 635 1134 q 637 1105 642 1112 l 573 954 q 557 936 569 945 q 532 926 546 926 m 600 676 l 306 676 l 306 482 l 490 482 l 600 482 l 600 676 m 85 868 q 88 876 86 871 q 97 889 90 881 q 113 897 104 897 l 174 897 l 628 897 l 792 897 q 812 887 805 897 q 820 868 820 877 l 820 290 q 812 272 820 281 q 792 262 805 262 l 680 262 l 836 -94 q 837 -111 840 -100 q 821 -122 834 -122 l 650 -122 q 625 -112 637 -122 q 610 -94 614 -102 l 454 262 l 306 262 l 306 -94 q 298 -112 306 -102 q 278 -122 291 -122 l 113 -122 q 93 -112 100 -122 q 85 -94 85 -102 l 85 868 z "},"ř":{"ha":906,"x_min":85,"x_max":841,"o":"m 532 926 l 360 926 q 336 936 347 926 q 320 954 324 945 l 256 1105 q 255 1123 252 1112 q 271 1134 258 1134 l 389 1134 q 416 1124 402 1134 q 437 1105 431 1114 l 446 1091 l 456 1105 q 476 1124 463 1114 q 504 1134 490 1134 l 622 1134 q 638 1123 635 1134 q 637 1105 642 1112 l 573 954 q 557 936 569 945 q 532 926 546 926 m 600 676 l 306 676 l 306 482 l 490 482 l 600 482 l 600 676 m 85 868 q 88 876 86 871 q 97 889 90 881 q 113 897 104 897 l 174 897 l 628 897 l 792 897 q 812 887 805 897 q 820 868 820 877 l 820 290 q 812 272 820 281 q 792 262 805 262 l 680 262 l 836 -94 q 837 -111 840 -100 q 821 -122 834 -122 l 650 -122 q 625 -112 637 -122 q 610 -94 614 -102 l 454 262 l 306 262 l 306 -94 q 298 -112 306 -102 q 278 -122 291 -122 l 113 -122 q 93 -112 100 -122 q 85 -94 85 -102 l 85 868 z "},"Ś":{"ha":906,"x_min":85,"x_max":821,"o":"m 411 1168 l 582 1168 q 598 1157 595 1168 q 597 1139 602 1146 l 533 988 q 517 969 529 979 q 493 960 506 960 l 322 960 q 306 970 309 960 q 307 988 302 981 l 371 1139 q 387 1158 375 1148 q 411 1168 398 1168 m 600 675 l 306 675 l 306 496 l 521 496 l 732 496 l 793 496 q 813 486 806 496 q 821 467 821 476 l 821 -94 q 813 -112 821 -102 q 793 -122 806 -122 l 732 -122 l 117 -122 q 98 -115 108 -122 q 88 -94 88 -107 l 88 149 q 95 167 88 157 q 116 177 102 177 l 281 177 q 301 167 294 177 q 309 149 309 157 l 309 98 l 600 98 l 600 275 l 174 275 l 113 275 q 93 285 100 275 q 85 304 85 295 l 85 867 q 93 885 85 876 q 113 895 100 895 l 250 895 l 658 895 l 661 895 l 793 895 q 813 885 806 895 q 821 867 821 876 l 821 622 q 813 603 821 613 q 793 593 806 593 l 628 593 q 607 603 614 593 q 600 622 600 613 l 600 675 z "},"ś":{"ha":906,"x_min":85,"x_max":821,"o":"m 411 1168 l 582 1168 q 598 1157 595 1168 q 597 1139 602 1146 l 533 988 q 517 969 529 979 q 493 960 506 960 l 322 960 q 306 970 309 960 q 307 988 302 981 l 371 1139 q 387 1158 375 1148 q 411 1168 398 1168 m 600 675 l 306 675 l 306 496 l 521 496 l 732 496 l 793 496 q 813 486 806 496 q 821 467 821 476 l 821 -94 q 813 -112 821 -102 q 793 -122 806 -122 l 732 -122 l 117 -122 q 98 -115 108 -122 q 88 -94 88 -107 l 88 149 q 95 167 88 157 q 116 177 102 177 l 281 177 q 301 167 294 177 q 309 149 309 157 l 309 98 l 600 98 l 600 275 l 174 275 l 113 275 q 93 285 100 275 q 85 304 85 295 l 85 867 q 93 885 85 876 q 113 895 100 895 l 250 895 l 658 895 l 661 895 l 793 895 q 813 885 806 895 q 821 867 821 876 l 821 622 q 813 603 821 613 q 793 593 806 593 l 628 593 q 607 603 614 593 q 600 622 600 613 l 600 675 z "},"Ŝ":{"ha":906,"x_min":85,"x_max":821,"o":"m 368 1168 q 541 1168 368 1168 q 566 1158 554 1168 q 581 1139 577 1148 l 645 988 q 646 970 650 981 q 630 960 643 960 l 512 960 q 485 969 498 960 q 465 988 471 979 l 454 1002 l 445 988 q 425 969 439 979 q 397 960 410 960 l 279 960 q 263 970 266 960 q 264 988 260 981 l 328 1139 q 344 1158 332 1148 q 368 1168 355 1168 m 600 675 l 306 675 l 306 496 l 521 496 l 732 496 l 793 496 q 813 486 806 496 q 821 467 821 476 l 821 -94 q 813 -112 821 -102 q 793 -122 806 -122 l 732 -122 l 117 -122 q 98 -115 108 -122 q 88 -94 88 -107 l 88 149 q 95 167 88 157 q 116 177 102 177 l 281 177 q 301 167 294 177 q 309 149 309 157 l 309 98 l 600 98 l 600 275 l 174 275 l 113 275 q 93 285 100 275 q 85 304 85 295 l 85 867 q 93 885 85 876 q 113 895 100 895 l 250 895 l 658 895 l 661 895 l 793 895 q 813 885 806 895 q 821 867 821 876 l 821 622 q 813 603 821 613 q 793 593 806 593 l 628 593 q 607 603 614 593 q 600 622 600 613 l 600 675 z "},"ŝ":{"ha":906,"x_min":85,"x_max":821,"o":"m 368 1168 q 541 1168 368 1168 q 566 1158 554 1168 q 581 1139 577 1148 l 645 988 q 646 970 650 981 q 630 960 643 960 l 512 960 q 485 969 498 960 q 465 988 471 979 l 454 1002 l 445 988 q 425 969 439 979 q 397 960 410 960 l 279 960 q 263 970 266 960 q 264 988 260 981 l 328 1139 q 344 1158 332 1148 q 368 1168 355 1168 m 600 675 l 306 675 l 306 496 l 521 496 l 732 496 l 793 496 q 813 486 806 496 q 821 467 821 476 l 821 -94 q 813 -112 821 -102 q 793 -122 806 -122 l 732 -122 l 117 -122 q 98 -115 108 -122 q 88 -94 88 -107 l 88 149 q 95 167 88 157 q 116 177 102 177 l 281 177 q 301 167 294 177 q 309 149 309 157 l 309 98 l 600 98 l 600 275 l 174 275 l 113 275 q 93 285 100 275 q 85 304 85 295 l 85 867 q 93 885 85 876 q 113 895 100 895 l 250 895 l 658 895 l 661 895 l 793 895 q 813 885 806 895 q 821 867 821 876 l 821 622 q 813 603 821 613 q 793 593 806 593 l 628 593 q 607 603 614 593 q 600 622 600 613 l 600 675 z "},"Ş":{"ha":906,"x_min":85,"x_max":821,"o":"m 374 -144 q 544 -144 374 -144 q 561 -155 557 -144 q 559 -172 564 -165 l 495 -323 q 480 -342 492 -332 q 455 -352 469 -352 l 284 -352 q 268 -341 271 -352 q 269 -323 264 -330 l 333 -172 q 349 -154 337 -163 q 374 -144 360 -144 m 600 675 l 306 675 l 306 496 l 521 496 l 732 496 l 793 496 q 813 486 806 496 q 821 467 821 476 l 821 -94 q 813 -112 821 -102 q 793 -122 806 -122 l 732 -122 l 117 -122 q 98 -115 108 -122 q 88 -94 88 -107 l 88 149 q 95 167 88 157 q 116 177 102 177 l 281 177 q 301 167 294 177 q 309 149 309 157 l 309 98 l 600 98 l 600 275 l 174 275 l 113 275 q 93 285 100 275 q 85 304 85 295 l 85 867 q 93 885 85 876 q 113 895 100 895 l 250 895 l 658 895 l 661 895 l 793 895 q 813 885 806 895 q 821 867 821 876 l 821 622 q 813 603 821 613 q 793 593 806 593 l 628 593 q 607 603 614 593 q 600 622 600 613 l 600 675 z "},"ş":{"ha":906,"x_min":85,"x_max":821,"o":"m 374 -144 q 544 -144 374 -144 q 561 -155 557 -144 q 559 -172 564 -165 l 495 -323 q 480 -342 492 -332 q 455 -352 469 -352 l 284 -352 q 268 -341 271 -352 q 269 -323 264 -330 l 333 -172 q 349 -154 337 -163 q 374 -144 360 -144 m 600 675 l 306 675 l 306 496 l 521 496 l 732 496 l 793 496 q 813 486 806 496 q 821 467 821 476 l 821 -94 q 813 -112 821 -102 q 793 -122 806 -122 l 732 -122 l 117 -122 q 98 -115 108 -122 q 88 -94 88 -107 l 88 149 q 95 167 88 157 q 116 177 102 177 l 281 177 q 301 167 294 177 q 309 149 309 157 l 309 98 l 600 98 l 600 275 l 174 275 l 113 275 q 93 285 100 275 q 85 304 85 295 l 85 867 q 93 885 85 876 q 113 895 100 895 l 250 895 l 658 895 l 661 895 l 793 895 q 813 885 806 895 q 821 867 821 876 l 821 622 q 813 603 821 613 q 793 593 806 593 l 628 593 q 607 603 614 593 q 600 622 600 613 l 600 675 z "},"Š":{"ha":906,"x_min":85,"x_max":821,"o":"m 532 926 l 360 926 q 336 936 347 926 q 320 954 324 945 l 256 1105 q 255 1123 252 1112 q 271 1134 258 1134 l 389 1134 q 416 1124 402 1134 q 437 1105 431 1114 l 446 1091 l 456 1105 q 476 1124 463 1114 q 504 1134 490 1134 l 622 1134 q 638 1123 635 1134 q 637 1105 642 1112 l 573 954 q 557 936 569 945 q 532 926 546 926 m 600 675 l 306 675 l 306 496 l 521 496 l 732 496 l 793 496 q 813 486 806 496 q 821 467 821 476 l 821 -94 q 813 -112 821 -102 q 793 -122 806 -122 l 732 -122 l 117 -122 q 98 -115 108 -122 q 88 -94 88 -107 l 88 149 q 95 167 88 157 q 116 177 102 177 l 281 177 q 301 167 294 177 q 309 149 309 157 l 309 98 l 600 98 l 600 275 l 174 275 l 113 275 q 93 285 100 275 q 85 304 85 295 l 85 867 q 93 885 85 876 q 113 895 100 895 l 250 895 l 658 895 l 661 895 l 793 895 q 813 885 806 895 q 821 867 821 876 l 821 622 q 813 603 821 613 q 793 593 806 593 l 628 593 q 607 603 614 593 q 600 622 600 613 l 600 675 z "},"š":{"ha":906,"x_min":85,"x_max":821,"o":"m 532 926 l 360 926 q 336 936 347 926 q 320 954 324 945 l 256 1105 q 255 1123 252 1112 q 271 1134 258 1134 l 389 1134 q 416 1124 402 1134 q 437 1105 431 1114 l 446 1091 l 456 1105 q 476 1124 463 1114 q 504 1134 490 1134 l 622 1134 q 638 1123 635 1134 q 637 1105 642 1112 l 573 954 q 557 936 569 945 q 532 926 546 926 m 600 675 l 306 675 l 306 496 l 521 496 l 732 496 l 793 496 q 813 486 806 496 q 821 467 821 476 l 821 -94 q 813 -112 821 -102 q 793 -122 806 -122 l 732 -122 l 117 -122 q 98 -115 108 -122 q 88 -94 88 -107 l 88 149 q 95 167 88 157 q 116 177 102 177 l 281 177 q 301 167 294 177 q 309 149 309 157 l 309 98 l 600 98 l 600 275 l 174 275 l 113 275 q 93 285 100 275 q 85 304 85 295 l 85 867 q 93 885 85 876 q 113 895 100 895 l 250 895 l 658 895 l 661 895 l 793 895 q 813 885 806 895 q 821 867 821 876 l 821 622 q 813 603 821 613 q 793 593 806 593 l 628 593 q 607 603 614 593 q 600 622 600 613 l 600 675 z "},"Ţ":{"ha":946,"x_min":85,"x_max":861,"o":"m 386 -144 q 556 -144 386 -144 q 573 -155 570 -144 q 572 -172 576 -165 l 507 -323 q 492 -342 504 -332 q 467 -352 481 -352 l 296 -352 q 280 -341 283 -352 q 281 -323 277 -330 l 345 -172 q 361 -154 349 -163 q 386 -144 372 -144 m 363 676 l 114 676 q 95 684 105 676 q 85 704 85 691 l 85 869 q 95 889 85 882 q 114 897 105 897 l 473 897 l 832 897 q 851 889 841 897 q 861 869 861 882 l 861 704 q 851 684 861 691 q 832 676 841 676 l 583 676 l 583 -94 q 576 -112 583 -102 q 555 -122 568 -122 l 391 -122 q 370 -112 377 -122 q 363 -94 363 -102 l 363 676 z "},"ţ":{"ha":946,"x_min":85,"x_max":861,"o":"m 386 -144 q 556 -144 386 -144 q 573 -155 570 -144 q 572 -172 576 -165 l 507 -323 q 492 -342 504 -332 q 467 -352 481 -352 l 296 -352 q 280 -341 283 -352 q 281 -323 277 -330 l 345 -172 q 361 -154 349 -163 q 386 -144 372 -144 m 363 676 l 114 676 q 95 684 105 676 q 85 704 85 691 l 85 869 q 95 889 85 882 q 114 897 105 897 l 473 897 l 832 897 q 851 889 841 897 q 861 869 861 882 l 861 704 q 851 684 861 691 q 832 676 841 676 l 583 676 l 583 -94 q 576 -112 583 -102 q 555 -122 568 -122 l 391 -122 q 370 -112 377 -122 q 363 -94 363 -102 l 363 676 z "},"Ť":{"ha":946,"x_min":85,"x_max":861,"o":"m 564 926 l 391 926 q 367 936 378 926 q 351 954 355 945 l 288 1105 q 286 1123 283 1112 q 302 1134 289 1134 l 420 1134 q 448 1124 433 1134 q 468 1105 462 1114 l 477 1091 l 488 1105 q 508 1124 494 1114 q 535 1134 522 1134 l 653 1134 q 669 1123 666 1134 q 668 1105 673 1112 l 604 954 q 589 936 600 945 q 564 926 577 926 m 363 676 l 114 676 q 95 684 105 676 q 85 704 85 691 l 85 869 q 95 889 85 882 q 114 897 105 897 l 473 897 l 832 897 q 851 889 841 897 q 861 869 861 882 l 861 704 q 851 684 861 691 q 832 676 841 676 l 583 676 l 583 -94 q 576 -112 583 -102 q 555 -122 568 -122 l 391 -122 q 370 -112 377 -122 q 363 -94 363 -102 l 363 676 z "},"ť":{"ha":946,"x_min":85,"x_max":861,"o":"m 564 926 l 391 926 q 367 936 378 926 q 351 954 355 945 l 288 1105 q 286 1123 283 1112 q 302 1134 289 1134 l 420 1134 q 448 1124 433 1134 q 468 1105 462 1114 l 477 1091 l 488 1105 q 508 1124 494 1114 q 535 1134 522 1134 l 653 1134 q 669 1123 666 1134 q 668 1105 673 1112 l 604 954 q 589 936 600 945 q 564 926 577 926 m 363 676 l 114 676 q 95 684 105 676 q 85 704 85 691 l 85 869 q 95 889 85 882 q 114 897 105 897 l 473 897 l 832 897 q 851 889 841 897 q 861 869 861 882 l 861 704 q 851 684 861 691 q 832 676 841 676 l 583 676 l 583 -94 q 576 -112 583 -102 q 555 -122 568 -122 l 391 -122 q 370 -112 377 -122 q 363 -94 363 -102 l 363 676 z "},"Ũ":{"ha":906,"x_min":85,"x_max":822,"o":"m 184 933 l 184 1073 q 194 1094 184 1086 q 214 1102 205 1102 l 508 1102 l 508 1145 q 515 1163 508 1154 q 536 1173 523 1173 l 701 1173 q 721 1163 713 1173 q 728 1145 728 1154 l 728 1001 q 717 979 728 987 q 695 972 705 972 l 404 972 l 404 933 q 397 915 404 924 q 376 905 390 905 l 212 905 q 192 915 199 905 q 184 933 184 924 m 85 -94 l 85 868 q 93 887 85 877 q 113 897 100 897 l 278 897 q 299 887 292 897 q 306 868 307 877 l 306 98 l 601 98 l 601 868 q 609 887 602 877 q 629 897 616 897 l 793 897 q 814 887 807 897 q 821 868 821 877 l 821 -94 q 814 -112 821 -102 q 793 -122 806 -122 l 601 -122 l 113 -122 q 93 -112 100 -122 q 85 -94 85 -102 z "},"ũ":{"ha":906,"x_min":85,"x_max":822,"o":"m 184 933 l 184 1073 q 194 1094 184 1086 q 214 1102 205 1102 l 508 1102 l 508 1145 q 515 1163 508 1154 q 536 1173 523 1173 l 701 1173 q 721 1163 713 1173 q 728 1145 728 1154 l 728 1001 q 717 979 728 987 q 695 972 705 972 l 404 972 l 404 933 q 397 915 404 924 q 376 905 390 905 l 212 905 q 192 915 199 905 q 184 933 184 924 m 85 -94 l 85 868 q 93 887 85 877 q 113 897 100 897 l 278 897 q 299 887 292 897 q 306 868 307 877 l 306 98 l 601 98 l 601 868 q 609 887 602 877 q 629 897 616 897 l 793 897 q 814 887 807 897 q 821 868 821 877 l 821 -94 q 814 -112 821 -102 q 793 -122 806 -122 l 601 -122 l 113 -122 q 93 -112 100 -122 q 85 -94 85 -102 z "},"Ū":{"ha":906,"x_min":85,"x_max":822,"o":"m 621 1090 q 641 1082 630 1090 q 652 1061 652 1075 l 652 989 q 642 967 652 975 q 621 960 631 960 l 271 960 q 251 967 261 960 q 241 989 241 975 l 241 1061 q 251 1082 241 1075 q 271 1090 261 1090 l 621 1090 m 85 -94 l 85 868 q 93 887 85 877 q 113 897 100 897 l 278 897 q 299 887 292 897 q 306 868 307 877 l 306 98 l 601 98 l 601 868 q 609 887 602 877 q 629 897 616 897 l 793 897 q 814 887 807 897 q 821 868 821 877 l 821 -94 q 814 -112 821 -102 q 793 -122 806 -122 l 601 -122 l 113 -122 q 93 -112 100 -122 q 85 -94 85 -102 z "},"ū":{"ha":906,"x_min":85,"x_max":822,"o":"m 621 1090 q 641 1082 630 1090 q 652 1061 652 1075 l 652 989 q 642 967 652 975 q 621 960 631 960 l 271 960 q 251 967 261 960 q 241 989 241 975 l 241 1061 q 251 1082 241 1075 q 271 1090 261 1090 l 621 1090 m 85 -94 l 85 868 q 93 887 85 877 q 113 897 100 897 l 278 897 q 299 887 292 897 q 306 868 307 877 l 306 98 l 601 98 l 601 868 q 609 887 602 877 q 629 897 616 897 l 793 897 q 814 887 807 897 q 821 868 821 877 l 821 -94 q 814 -112 821 -102 q 793 -122 806 -122 l 601 -122 l 113 -122 q 93 -112 100 -122 q 85 -94 85 -102 z "},"Ŭ":{"ha":906,"x_min":85,"x_max":822,"o":"m 304 960 q 279 969 290 960 q 264 988 267 979 l 199 1139 q 198 1157 195 1146 q 215 1168 201 1168 l 332 1168 q 360 1158 346 1168 q 380 1139 374 1148 l 418 1083 l 491 1083 l 530 1139 q 550 1158 536 1148 q 578 1168 564 1168 l 695 1168 q 712 1157 709 1168 q 711 1139 715 1146 l 646 988 q 631 969 642 979 q 606 960 619 960 l 304 960 m 85 -94 l 85 868 q 93 887 85 877 q 113 897 100 897 l 278 897 q 299 887 292 897 q 306 868 307 877 l 306 98 l 601 98 l 601 868 q 609 887 602 877 q 629 897 616 897 l 793 897 q 814 887 807 897 q 821 868 821 877 l 821 -94 q 814 -112 821 -102 q 793 -122 806 -122 l 601 -122 l 113 -122 q 93 -112 100 -122 q 85 -94 85 -102 z "},"ŭ":{"ha":906,"x_min":85,"x_max":822,"o":"m 304 960 q 279 969 290 960 q 264 988 267 979 l 199 1139 q 198 1157 195 1146 q 215 1168 201 1168 l 332 1168 q 360 1158 346 1168 q 380 1139 374 1148 l 418 1083 l 491 1083 l 530 1139 q 550 1158 536 1148 q 578 1168 564 1168 l 695 1168 q 712 1157 709 1168 q 711 1139 715 1146 l 646 988 q 631 969 642 979 q 606 960 619 960 l 304 960 m 85 -94 l 85 868 q 93 887 85 877 q 113 897 100 897 l 278 897 q 299 887 292 897 q 306 868 307 877 l 306 98 l 601 98 l 601 868 q 609 887 602 877 q 629 897 616 897 l 793 897 q 814 887 807 897 q 821 868 821 877 l 821 -94 q 814 -112 821 -102 q 793 -122 806 -122 l 601 -122 l 113 -122 q 93 -112 100 -122 q 85 -94 85 -102 z "},"Ů":{"ha":906,"x_min":85,"x_max":822,"o":"m 560 1178 q 590 1164 579 1178 q 601 1137 601 1149 l 601 943 q 590 916 601 930 q 560 901 579 901 l 353 901 q 323 916 334 901 q 312 943 312 930 l 312 1137 q 323 1164 312 1149 q 353 1178 334 1178 l 560 1178 m 481 1066 l 431 1066 q 421 1061 425 1066 q 417 1052 417 1056 l 417 1028 q 421 1018 417 1023 q 431 1013 425 1013 l 481 1013 q 492 1018 488 1013 q 496 1028 496 1023 l 496 1052 q 492 1061 496 1056 q 481 1066 488 1066 m 85 -94 l 85 868 q 93 887 85 877 q 113 897 100 897 l 278 897 q 299 887 292 897 q 306 868 307 877 l 306 98 l 601 98 l 601 868 q 609 887 602 877 q 629 897 616 897 l 793 897 q 814 887 807 897 q 821 868 821 877 l 821 -94 q 814 -112 821 -102 q 793 -122 806 -122 l 601 -122 l 113 -122 q 93 -112 100 -122 q 85 -94 85 -102 z "},"ů":{"ha":906,"x_min":85,"x_max":822,"o":"m 560 1178 q 590 1164 579 1178 q 601 1137 601 1149 l 601 943 q 590 916 601 930 q 560 901 579 901 l 353 901 q 323 916 334 901 q 312 943 312 930 l 312 1137 q 323 1164 312 1149 q 353 1178 334 1178 l 560 1178 m 481 1066 l 431 1066 q 421 1061 425 1066 q 417 1052 417 1056 l 417 1028 q 421 1018 417 1023 q 431 1013 425 1013 l 481 1013 q 492 1018 488 1013 q 496 1028 496 1023 l 496 1052 q 492 1061 496 1056 q 481 1066 488 1066 m 85 -94 l 85 868 q 93 887 85 877 q 113 897 100 897 l 278 897 q 299 887 292 897 q 306 868 307 877 l 306 98 l 601 98 l 601 868 q 609 887 602 877 q 629 897 616 897 l 793 897 q 814 887 807 897 q 821 868 821 877 l 821 -94 q 814 -112 821 -102 q 793 -122 806 -122 l 601 -122 l 113 -122 q 93 -112 100 -122 q 85 -94 85 -102 z "},"Ű":{"ha":906,"x_min":85,"x_max":822,"o":"m 547 1168 l 718 1168 q 734 1157 731 1168 q 732 1139 737 1146 l 669 988 q 653 969 665 979 q 629 960 642 960 l 458 960 q 441 970 444 960 q 443 988 438 981 l 507 1139 q 522 1158 511 1148 q 547 1168 534 1168 m 275 1168 l 446 1168 q 463 1157 460 1168 q 461 1139 466 1146 l 397 988 q 382 969 393 979 q 357 960 370 960 l 186 960 q 170 970 173 960 q 172 988 167 981 l 235 1139 q 251 1158 239 1148 q 275 1168 262 1168 m 85 -94 l 85 868 q 93 887 85 877 q 113 897 100 897 l 278 897 q 299 887 292 897 q 306 868 307 877 l 306 98 l 601 98 l 601 868 q 609 887 602 877 q 629 897 616 897 l 793 897 q 814 887 807 897 q 821 868 821 877 l 821 -94 q 814 -112 821 -102 q 793 -122 806 -122 l 601 -122 l 113 -122 q 93 -112 100 -122 q 85 -94 85 -102 z "},"ű":{"ha":906,"x_min":85,"x_max":822,"o":"m 547 1168 l 718 1168 q 734 1157 731 1168 q 732 1139 737 1146 l 669 988 q 653 969 665 979 q 629 960 642 960 l 458 960 q 441 970 444 960 q 443 988 438 981 l 507 1139 q 522 1158 511 1148 q 547 1168 534 1168 m 275 1168 l 446 1168 q 463 1157 460 1168 q 461 1139 466 1146 l 397 988 q 382 969 393 979 q 357 960 370 960 l 186 960 q 170 970 173 960 q 172 988 167 981 l 235 1139 q 251 1158 239 1148 q 275 1168 262 1168 m 85 -94 l 85 868 q 93 887 85 877 q 113 897 100 897 l 278 897 q 299 887 292 897 q 306 868 307 877 l 306 98 l 601 98 l 601 868 q 609 887 602 877 q 629 897 616 897 l 793 897 q 814 887 807 897 q 821 868 821 877 l 821 -94 q 814 -112 821 -102 q 793 -122 806 -122 l 601 -122 l 113 -122 q 93 -112 100 -122 q 85 -94 85 -102 z "},"Ų":{"ha":906,"x_min":85,"x_max":822,"o":"m 587 -352 q 562 -342 573 -352 q 546 -323 550 -332 l 482 -172 q 481 -155 477 -165 q 497 -144 484 -144 l 668 -144 q 693 -154 682 -144 q 708 -172 705 -163 l 772 -323 q 774 -341 777 -330 q 757 -352 770 -352 l 587 -352 m 85 -94 l 85 868 q 93 887 85 877 q 113 897 100 897 l 278 897 q 299 887 292 897 q 306 868 307 877 l 306 98 l 601 98 l 601 868 q 609 887 602 877 q 629 897 616 897 l 793 897 q 814 887 807 897 q 821 868 821 877 l 821 -94 q 814 -112 821 -102 q 793 -122 806 -122 l 601 -122 l 113 -122 q 93 -112 100 -122 q 85 -94 85 -102 z "},"ų":{"ha":906,"x_min":85,"x_max":822,"o":"m 587 -352 q 562 -342 573 -352 q 546 -323 550 -332 l 482 -172 q 481 -155 477 -165 q 497 -144 484 -144 l 668 -144 q 693 -154 682 -144 q 708 -172 705 -163 l 772 -323 q 774 -341 777 -330 q 757 -352 770 -352 l 587 -352 m 85 -94 l 85 868 q 93 887 85 877 q 113 897 100 897 l 278 897 q 299 887 292 897 q 306 868 307 877 l 306 98 l 601 98 l 601 868 q 609 887 602 877 q 629 897 616 897 l 793 897 q 814 887 807 897 q 821 868 821 877 l 821 -94 q 814 -112 821 -102 q 793 -122 806 -122 l 601 -122 l 113 -122 q 93 -112 100 -122 q 85 -94 85 -102 z "},"Ÿ":{"ha":810,"x_min":5,"x_max":806,"o":"m 331 1162 q 351 1152 344 1162 q 359 1133 359 1142 l 359 989 q 351 970 359 980 q 331 960 344 960 l 166 960 q 146 970 153 960 q 138 989 138 980 l 138 1133 q 146 1152 138 1142 q 166 1162 153 1162 l 331 1162 m 650 1162 q 670 1152 663 1162 q 677 1133 677 1142 l 677 989 q 670 970 677 980 q 650 960 663 960 l 485 960 q 465 970 472 960 q 457 989 457 980 l 457 1133 q 465 1152 457 1142 q 485 1162 472 1162 l 650 1162 m 196 897 q 221 887 210 897 q 237 868 233 877 l 405 488 l 575 868 q 591 887 579 877 q 616 897 602 897 l 786 897 q 803 886 800 897 q 802 868 806 875 l 517 234 l 517 -94 q 510 -112 517 -102 q 490 -122 503 -122 l 325 -122 q 304 -112 311 -122 q 297 -94 297 -102 l 297 222 l 10 868 q 9 886 5 875 q 26 897 12 897 l 196 897 z "},"Ź":{"ha":684,"x_min":7,"x_max":672,"o":"m 313 1168 l 484 1168 q 500 1157 497 1168 q 498 1139 503 1146 l 435 988 q 419 969 431 979 q 395 960 408 960 l 224 960 q 207 970 210 960 q 209 988 204 981 l 273 1139 q 288 1158 277 1148 q 313 1168 300 1168 m 541 897 l 652 897 q 669 886 665 897 q 667 868 672 875 l 323 98 l 638 98 q 657 91 647 98 q 667 70 667 83 l 667 -95 q 657 -115 667 -108 q 638 -123 647 -123 l 144 -123 l 27 -123 q 10 -112 14 -123 q 12 -94 7 -101 l 355 676 l 46 676 q 27 684 37 676 q 18 704 18 691 l 18 869 q 27 889 18 882 q 46 897 37 897 l 541 897 z "},"ź":{"ha":684,"x_min":7,"x_max":672,"o":"m 313 1168 l 484 1168 q 500 1157 497 1168 q 498 1139 503 1146 l 435 988 q 419 969 431 979 q 395 960 408 960 l 224 960 q 207 970 210 960 q 209 988 204 981 l 273 1139 q 288 1158 277 1148 q 313 1168 300 1168 m 541 897 l 652 897 q 669 886 665 897 q 667 868 672 875 l 323 98 l 638 98 q 657 91 647 98 q 667 70 667 83 l 667 -95 q 657 -115 667 -108 q 638 -123 647 -123 l 144 -123 l 27 -123 q 10 -112 14 -123 q 12 -94 7 -101 l 355 676 l 46 676 q 27 684 37 676 q 18 704 18 691 l 18 869 q 27 889 18 882 q 46 897 37 897 l 541 897 z "},"Ż":{"ha":684,"x_min":7,"x_max":672,"o":"m 438 1162 q 459 1152 452 1162 q 466 1133 466 1142 l 466 989 q 459 970 466 980 q 438 960 452 960 l 273 960 q 253 970 260 960 q 245 989 245 980 l 245 1133 q 253 1152 245 1142 q 273 1162 260 1162 l 438 1162 m 541 897 l 652 897 q 669 886 665 897 q 667 868 672 875 l 323 98 l 638 98 q 657 91 647 98 q 667 70 667 83 l 667 -95 q 657 -115 667 -108 q 638 -123 647 -123 l 144 -123 l 27 -123 q 10 -112 14 -123 q 12 -94 7 -101 l 355 676 l 46 676 q 27 684 37 676 q 18 704 18 691 l 18 869 q 27 889 18 882 q 46 897 37 897 l 541 897 z "},"ż":{"ha":684,"x_min":7,"x_max":672,"o":"m 438 1162 q 459 1152 452 1162 q 466 1133 466 1142 l 466 989 q 459 970 466 980 q 438 960 452 960 l 273 960 q 253 970 260 960 q 245 989 245 980 l 245 1133 q 253 1152 245 1142 q 273 1162 260 1162 l 438 1162 m 541 897 l 652 897 q 669 886 665 897 q 667 868 672 875 l 323 98 l 638 98 q 657 91 647 98 q 667 70 667 83 l 667 -95 q 657 -115 667 -108 q 638 -123 647 -123 l 144 -123 l 27 -123 q 10 -112 14 -123 q 12 -94 7 -101 l 355 676 l 46 676 q 27 684 37 676 q 18 704 18 691 l 18 869 q 27 889 18 882 q 46 897 37 897 l 541 897 z "},"Ž":{"ha":684,"x_min":7,"x_max":672,"o":"m 431 926 l 259 926 q 235 936 246 926 q 219 954 223 945 l 155 1105 q 154 1123 151 1112 q 170 1134 157 1134 l 288 1134 q 315 1124 301 1134 q 336 1105 330 1114 l 345 1091 l 355 1105 q 375 1124 361 1114 q 403 1134 389 1134 l 521 1134 q 537 1123 534 1134 q 536 1105 541 1112 l 472 954 q 456 936 468 945 q 431 926 445 926 m 541 897 l 652 897 q 669 886 665 897 q 667 868 672 875 l 323 98 l 638 98 q 657 91 647 98 q 667 70 667 83 l 667 -95 q 657 -115 667 -108 q 638 -123 647 -123 l 144 -123 l 27 -123 q 10 -112 14 -123 q 12 -94 7 -101 l 355 676 l 46 676 q 27 684 37 676 q 18 704 18 691 l 18 869 q 27 889 18 882 q 46 897 37 897 l 541 897 z "},"ž":{"ha":684,"x_min":7,"x_max":672,"o":"m 431 926 l 259 926 q 235 936 246 926 q 219 954 223 945 l 155 1105 q 154 1123 151 1112 q 170 1134 157 1134 l 288 1134 q 315 1124 301 1134 q 336 1105 330 1114 l 345 1091 l 355 1105 q 375 1124 361 1114 q 403 1134 389 1134 l 521 1134 q 537 1123 534 1134 q 536 1105 541 1112 l 472 954 q 456 936 468 945 q 431 926 445 926 m 541 897 l 652 897 q 669 886 665 897 q 667 868 672 875 l 323 98 l 638 98 q 657 91 647 98 q 667 70 667 83 l 667 -95 q 657 -115 667 -108 q 638 -123 647 -123 l 144 -123 l 27 -123 q 10 -112 14 -123 q 12 -94 7 -101 l 355 676 l 46 676 q 27 684 37 676 q 18 704 18 691 l 18 869 q 27 889 18 882 q 46 897 37 897 l 541 897 z "},"Ə":{"ha":906,"x_min":85,"x_max":821,"o":"m 488 519 l 600 519 l 600 676 l 306 676 l 306 657 q 298 638 306 648 q 278 629 291 629 l 113 629 q 93 638 100 629 q 85 657 85 648 l 85 868 q 93 887 85 877 q 113 897 100 897 l 245 897 l 732 897 l 793 897 q 813 887 806 897 q 821 868 821 877 l 821 -94 q 813 -112 821 -102 q 793 -122 806 -122 l 656 -122 l 174 -122 l 113 -122 q 93 -112 100 -122 q 85 -94 85 -102 l 85 491 q 93 510 85 500 q 113 519 100 519 l 210 519 l 488 519 m 306 299 l 306 98 l 600 98 l 600 299 l 306 299 z "},"ƒ":{"ha":829,"x_min":85,"x_max":725,"o":"m 667 500 q 687 492 676 500 q 699 471 699 484 l 699 331 q 687 310 699 317 q 667 302 676 302 l 515 302 l 515 -94 q 508 -112 515 -102 q 488 -122 500 -122 l 427 -122 l 114 -122 q 95 -115 105 -122 q 85 -94 85 -107 l 85 71 q 95 91 85 84 q 114 98 105 98 l 295 98 l 295 302 l 166 302 q 146 309 157 302 q 136 331 136 317 l 136 471 q 146 492 136 485 q 166 500 157 500 l 295 500 l 295 868 q 303 888 295 879 q 323 897 311 897 l 384 897 l 696 897 q 715 889 705 897 q 725 869 725 882 l 725 704 q 715 684 725 691 q 696 676 705 676 l 515 676 l 515 500 l 667 500 z "},"Ơ":{"ha":974,"x_min":85,"x_max":998,"o":"m 806 1076 l 977 1076 q 994 1065 991 1076 q 993 1048 997 1055 l 928 897 q 913 878 925 888 q 888 868 901 868 l 888 -94 q 881 -112 888 -102 q 861 -122 873 -122 l 724 -122 l 113 -122 q 93 -112 100 -122 q 85 -94 85 -102 l 85 868 q 93 887 85 877 q 113 897 100 897 l 703 897 l 766 1048 q 782 1067 770 1057 q 806 1076 793 1076 m 668 98 l 668 676 l 306 676 l 306 98 l 668 98 z "},"ơ":{"ha":974,"x_min":85,"x_max":998,"o":"m 806 1076 l 977 1076 q 994 1065 991 1076 q 993 1048 997 1055 l 928 897 q 913 878 925 888 q 888 868 901 868 l 888 -94 q 881 -112 888 -102 q 861 -122 873 -122 l 724 -122 l 113 -122 q 93 -112 100 -122 q 85 -94 85 -102 l 85 868 q 93 887 85 877 q 113 897 100 897 l 703 897 l 766 1048 q 782 1067 770 1057 q 806 1076 793 1076 m 668 98 l 668 676 l 306 676 l 306 98 l 668 98 z "},"Ư":{"ha":906,"x_min":85,"x_max":930,"o":"m 85 -94 l 85 868 q 93 887 85 877 q 113 897 100 897 l 278 897 q 299 887 292 897 q 306 868 307 877 l 306 98 l 601 98 l 601 868 q 609 887 602 877 q 629 897 616 897 l 652 897 l 700 1009 q 715 1028 703 1019 q 740 1038 726 1038 l 911 1038 q 927 1027 924 1038 q 926 1009 930 1016 l 862 858 q 846 839 858 849 q 821 829 835 829 l 821 -94 q 814 -112 821 -102 q 793 -122 806 -122 l 601 -122 l 113 -122 q 93 -112 100 -122 q 85 -94 85 -102 z "},"ư":{"ha":906,"x_min":85,"x_max":930,"o":"m 85 -94 l 85 868 q 93 887 85 877 q 113 897 100 897 l 278 897 q 299 887 292 897 q 306 868 307 877 l 306 98 l 601 98 l 601 868 q 609 887 602 877 q 629 897 616 897 l 652 897 l 700 1009 q 715 1028 703 1019 q 740 1038 726 1038 l 911 1038 q 927 1027 924 1038 q 926 1009 930 1016 l 862 858 q 846 839 858 849 q 821 829 835 829 l 821 -94 q 814 -112 821 -102 q 793 -122 806 -122 l 601 -122 l 113 -122 q 93 -112 100 -122 q 85 -94 85 -102 z "},"Ǎ":{"ha":772,"x_min":12,"x_max":764,"o":"m 448 232 l 387 464 l 326 232 l 448 232 m 507 867 l 761 -94 q 759 -112 763 -102 q 741 -122 754 -122 l 570 -122 q 547 -112 557 -122 q 534 -94 537 -102 l 507 12 l 269 12 l 241 -94 q 229 -112 238 -102 q 205 -122 219 -122 l 35 -122 q 17 -112 22 -122 q 14 -94 12 -102 l 267 867 q 278 885 269 876 q 302 895 288 895 l 472 895 q 495 885 486 895 q 507 867 505 876 m 475 960 l 302 960 q 278 969 290 960 q 262 988 267 979 l 199 1139 q 197 1157 194 1146 q 214 1168 200 1168 l 331 1168 q 359 1158 345 1168 q 379 1139 373 1148 l 389 1125 l 399 1139 q 419 1158 405 1148 q 446 1168 433 1168 l 564 1168 q 581 1157 577 1168 q 579 1139 584 1146 l 515 988 q 500 969 511 979 q 475 960 488 960 z "},"ǎ":{"ha":772,"x_min":12,"x_max":764,"o":"m 448 232 l 387 464 l 326 232 l 448 232 m 507 867 l 761 -94 q 759 -112 763 -102 q 741 -122 754 -122 l 570 -122 q 547 -112 557 -122 q 534 -94 537 -102 l 507 12 l 269 12 l 241 -94 q 229 -112 238 -102 q 205 -122 219 -122 l 35 -122 q 17 -112 22 -122 q 14 -94 12 -102 l 267 867 q 278 885 269 876 q 302 895 288 895 l 472 895 q 495 885 486 895 q 507 867 505 876 m 475 960 l 302 960 q 278 969 290 960 q 262 988 267 979 l 199 1139 q 197 1157 194 1146 q 214 1168 200 1168 l 331 1168 q 359 1158 345 1168 q 379 1139 373 1148 l 389 1125 l 399 1139 q 419 1158 405 1148 q 446 1168 433 1168 l 564 1168 q 581 1157 577 1168 q 579 1139 584 1146 l 515 988 q 500 969 511 979 q 475 960 488 960 z "},"Ǐ":{"ha":606,"x_min":85,"x_max":522,"o":"m 391 960 q 218 960 391 960 q 194 969 205 960 q 178 988 182 979 l 115 1139 q 113 1157 110 1146 q 130 1168 116 1168 l 247 1168 q 275 1158 260 1168 q 295 1139 289 1148 l 304 1125 l 315 1139 q 335 1158 321 1148 q 362 1168 349 1168 l 480 1168 q 496 1157 493 1168 q 495 1139 500 1146 l 431 988 q 416 969 427 979 q 391 960 404 960 m 193 676 l 114 676 q 95 684 105 676 q 85 704 85 691 l 85 869 q 95 889 85 882 q 114 897 105 897 l 303 897 l 493 897 q 512 889 502 897 q 522 869 522 882 l 522 704 q 512 684 522 691 q 493 676 502 676 l 414 676 l 414 98 l 493 98 q 512 91 502 98 q 522 71 522 84 l 522 -94 q 512 -115 522 -107 q 493 -122 502 -122 l 303 -122 l 114 -122 q 95 -115 105 -122 q 85 -94 85 -107 l 85 71 q 95 91 85 84 q 114 98 105 98 l 193 98 l 193 676 z "},"ǐ":{"ha":606,"x_min":85,"x_max":522,"o":"m 391 960 q 218 960 391 960 q 194 969 205 960 q 178 988 182 979 l 115 1139 q 113 1157 110 1146 q 130 1168 116 1168 l 247 1168 q 275 1158 260 1168 q 295 1139 289 1148 l 304 1125 l 315 1139 q 335 1158 321 1148 q 362 1168 349 1168 l 480 1168 q 496 1157 493 1168 q 495 1139 500 1146 l 431 988 q 416 969 427 979 q 391 960 404 960 m 193 676 l 114 676 q 95 684 105 676 q 85 704 85 691 l 85 869 q 95 889 85 882 q 114 897 105 897 l 303 897 l 493 897 q 512 889 502 897 q 522 869 522 882 l 522 704 q 512 684 522 691 q 493 676 502 676 l 414 676 l 414 98 l 493 98 q 512 91 502 98 q 522 71 522 84 l 522 -94 q 512 -115 522 -107 q 493 -122 502 -122 l 303 -122 l 114 -122 q 95 -115 105 -122 q 85 -94 85 -107 l 85 71 q 95 91 85 84 q 114 98 105 98 l 193 98 l 193 676 z "},"Ǒ":{"ha":974,"x_min":85,"x_max":888,"o":"m 572 960 q 400 960 572 960 q 376 969 387 960 q 360 988 364 979 l 296 1139 q 295 1157 292 1146 q 311 1168 298 1168 l 429 1168 q 456 1158 442 1168 q 477 1139 471 1148 l 486 1125 l 496 1139 q 516 1158 503 1148 q 544 1168 530 1168 l 662 1168 q 678 1157 675 1168 q 677 1139 682 1146 l 613 988 q 597 969 609 979 q 572 960 586 960 m 888 868 l 888 -94 q 881 -112 888 -102 q 861 -122 873 -122 l 724 -122 l 174 -122 l 113 -122 q 93 -112 100 -122 q 85 -94 85 -102 l 85 868 q 93 887 85 877 q 113 897 100 897 l 245 897 l 800 897 l 861 897 q 881 887 873 897 q 888 868 888 877 m 668 98 l 668 676 l 306 676 l 306 98 l 668 98 z "},"ǒ":{"ha":974,"x_min":85,"x_max":888,"o":"m 572 960 q 400 960 572 960 q 376 969 387 960 q 360 988 364 979 l 296 1139 q 295 1157 292 1146 q 311 1168 298 1168 l 429 1168 q 456 1158 442 1168 q 477 1139 471 1148 l 486 1125 l 496 1139 q 516 1158 503 1148 q 544 1168 530 1168 l 662 1168 q 678 1157 675 1168 q 677 1139 682 1146 l 613 988 q 597 969 609 979 q 572 960 586 960 m 888 868 l 888 -94 q 881 -112 888 -102 q 861 -122 873 -122 l 724 -122 l 174 -122 l 113 -122 q 93 -112 100 -122 q 85 -94 85 -102 l 85 868 q 93 887 85 877 q 113 897 100 897 l 245 897 l 800 897 l 861 897 q 881 887 873 897 q 888 868 888 877 m 668 98 l 668 676 l 306 676 l 306 98 l 668 98 z "},"Ǔ":{"ha":906,"x_min":85,"x_max":822,"o":"m 532 960 q 360 960 532 960 q 336 969 347 960 q 320 988 324 979 l 256 1139 q 255 1157 252 1146 q 271 1168 258 1168 l 389 1168 q 416 1158 402 1168 q 437 1139 431 1148 l 446 1125 l 456 1139 q 476 1158 463 1148 q 504 1168 490 1168 l 622 1168 q 638 1157 635 1168 q 637 1139 642 1146 l 573 988 q 557 969 569 979 q 532 960 546 960 m 85 -94 l 85 868 q 93 887 85 877 q 113 897 100 897 l 278 897 q 299 887 292 897 q 306 868 307 877 l 306 98 l 601 98 l 601 868 q 609 887 602 877 q 629 897 616 897 l 793 897 q 814 887 807 897 q 821 868 821 877 l 821 -94 q 814 -112 821 -102 q 793 -122 806 -122 l 601 -122 l 113 -122 q 93 -112 100 -122 q 85 -94 85 -102 z "},"ǔ":{"ha":906,"x_min":85,"x_max":822,"o":"m 532 960 q 360 960 532 960 q 336 969 347 960 q 320 988 324 979 l 256 1139 q 255 1157 252 1146 q 271 1168 258 1168 l 389 1168 q 416 1158 402 1168 q 437 1139 431 1148 l 446 1125 l 456 1139 q 476 1158 463 1148 q 504 1168 490 1168 l 622 1168 q 638 1157 635 1168 q 637 1139 642 1146 l 573 988 q 557 969 569 979 q 532 960 546 960 m 85 -94 l 85 868 q 93 887 85 877 q 113 897 100 897 l 278 897 q 299 887 292 897 q 306 868 307 877 l 306 98 l 601 98 l 601 868 q 609 887 602 877 q 629 897 616 897 l 793 897 q 814 887 807 897 q 821 868 821 877 l 821 -94 q 814 -112 821 -102 q 793 -122 806 -122 l 601 -122 l 113 -122 q 93 -112 100 -122 q 85 -94 85 -102 z "},"Ǖ":{"ha":906,"x_min":85,"x_max":822,"o":"m 621 1178 q 641 1171 630 1178 q 652 1149 652 1163 l 652 1077 q 642 1055 652 1063 q 621 1048 631 1048 l 271 1048 q 251 1055 261 1048 q 241 1077 241 1063 l 241 1149 q 251 1171 241 1163 q 271 1178 261 1178 l 621 1178 m 376 1013 q 397 1003 390 1013 q 404 984 404 993 l 404 941 q 397 923 404 932 q 376 913 390 913 l 212 913 q 191 923 199 913 q 184 941 184 932 l 184 984 q 191 1003 184 993 q 212 1013 199 1013 l 376 1013 m 695 1013 q 716 1003 709 1013 q 723 984 723 993 l 723 941 q 716 923 723 932 q 695 913 709 913 l 530 913 q 510 923 517 913 q 503 941 503 932 l 503 984 q 510 1003 503 993 q 530 1013 517 1013 l 695 1013 m 85 -94 l 85 868 q 93 887 85 877 q 113 897 100 897 l 278 897 q 299 887 292 897 q 306 868 307 877 l 306 98 l 601 98 l 601 868 q 609 887 602 877 q 629 897 616 897 l 793 897 q 814 887 807 897 q 821 868 821 877 l 821 -94 q 814 -112 821 -102 q 793 -122 806 -122 l 601 -122 l 113 -122 q 93 -112 100 -122 q 85 -94 85 -102 z "},"ǖ":{"ha":906,"x_min":85,"x_max":822,"o":"m 621 1178 q 641 1171 630 1178 q 652 1149 652 1163 l 652 1077 q 642 1055 652 1063 q 621 1048 631 1048 l 271 1048 q 251 1055 261 1048 q 241 1077 241 1063 l 241 1149 q 251 1171 241 1163 q 271 1178 261 1178 l 621 1178 m 376 1013 q 397 1003 390 1013 q 404 984 404 993 l 404 941 q 397 923 404 932 q 376 913 390 913 l 212 913 q 191 923 199 913 q 184 941 184 932 l 184 984 q 191 1003 184 993 q 212 1013 199 1013 l 376 1013 m 695 1013 q 716 1003 709 1013 q 723 984 723 993 l 723 941 q 716 923 723 932 q 695 913 709 913 l 530 913 q 510 923 517 913 q 503 941 503 932 l 503 984 q 510 1003 503 993 q 530 1013 517 1013 l 695 1013 m 85 -94 l 85 868 q 93 887 85 877 q 113 897 100 897 l 278 897 q 299 887 292 897 q 306 868 307 877 l 306 98 l 601 98 l 601 868 q 609 887 602 877 q 629 897 616 897 l 793 897 q 814 887 807 897 q 821 868 821 877 l 821 -94 q 814 -112 821 -102 q 793 -122 806 -122 l 601 -122 l 113 -122 q 93 -112 100 -122 q 85 -94 85 -102 z "},"Ǘ":{"ha":906,"x_min":85,"x_max":822,"o":"m 411 1208 l 582 1208 q 598 1198 595 1208 q 597 1180 602 1187 l 533 1063 q 517 1044 528 1053 q 493 1034 506 1034 l 322 1034 q 305 1045 309 1034 q 307 1063 302 1056 l 371 1180 q 387 1199 375 1189 q 411 1208 398 1208 m 376 1013 q 397 1003 390 1013 q 404 984 404 993 l 404 941 q 397 923 404 932 q 376 913 390 913 l 212 913 q 191 923 199 913 q 184 941 184 932 l 184 984 q 191 1003 184 993 q 212 1013 199 1013 l 376 1013 m 695 1013 q 716 1003 709 1013 q 723 984 723 993 l 723 941 q 716 923 723 932 q 695 913 709 913 l 530 913 q 510 923 517 913 q 503 941 503 932 l 503 984 q 510 1003 503 993 q 530 1013 517 1013 l 695 1013 m 85 -94 l 85 868 q 93 887 85 877 q 113 897 100 897 l 278 897 q 299 887 292 897 q 306 868 307 877 l 306 98 l 601 98 l 601 868 q 609 887 602 877 q 629 897 616 897 l 793 897 q 814 887 807 897 q 821 868 821 877 l 821 -94 q 814 -112 821 -102 q 793 -122 806 -122 l 601 -122 l 113 -122 q 93 -112 100 -122 q 85 -94 85 -102 z "},"ǘ":{"ha":906,"x_min":85,"x_max":822,"o":"m 411 1208 l 582 1208 q 598 1198 595 1208 q 597 1180 602 1187 l 533 1063 q 517 1044 528 1053 q 493 1034 506 1034 l 322 1034 q 305 1045 309 1034 q 307 1063 302 1056 l 371 1180 q 387 1199 375 1189 q 411 1208 398 1208 m 376 1013 q 397 1003 390 1013 q 404 984 404 993 l 404 941 q 397 923 404 932 q 376 913 390 913 l 212 913 q 191 923 199 913 q 184 941 184 932 l 184 984 q 191 1003 184 993 q 212 1013 199 1013 l 376 1013 m 695 1013 q 716 1003 709 1013 q 723 984 723 993 l 723 941 q 716 923 723 932 q 695 913 709 913 l 530 913 q 510 923 517 913 q 503 941 503 932 l 503 984 q 510 1003 503 993 q 530 1013 517 1013 l 695 1013 m 85 -94 l 85 868 q 93 887 85 877 q 113 897 100 897 l 278 897 q 299 887 292 897 q 306 868 307 877 l 306 98 l 601 98 l 601 868 q 609 887 602 877 q 629 897 616 897 l 793 897 q 814 887 807 897 q 821 868 821 877 l 821 -94 q 814 -112 821 -102 q 793 -122 806 -122 l 601 -122 l 113 -122 q 93 -112 100 -122 q 85 -94 85 -102 z "},"Ǚ":{"ha":906,"x_min":85,"x_max":822,"o":"m 527 1027 l 355 1027 q 331 1037 342 1027 q 315 1056 320 1046 l 251 1173 q 249 1191 246 1180 q 266 1202 252 1202 l 383 1202 q 411 1192 397 1202 q 431 1173 425 1182 l 441 1159 l 451 1173 q 471 1192 457 1182 q 498 1202 485 1202 l 616 1202 q 633 1191 629 1202 q 631 1173 636 1180 l 568 1056 q 552 1037 563 1046 q 527 1027 541 1027 m 376 1013 q 397 1003 390 1013 q 404 984 404 993 l 404 941 q 397 923 404 932 q 376 913 390 913 l 212 913 q 191 923 199 913 q 184 941 184 932 l 184 984 q 191 1003 184 993 q 212 1013 199 1013 l 376 1013 m 695 1013 q 716 1003 709 1013 q 723 984 723 993 l 723 941 q 716 923 723 932 q 695 913 709 913 l 530 913 q 510 923 517 913 q 503 941 503 932 l 503 984 q 510 1003 503 993 q 530 1013 517 1013 l 695 1013 m 85 -94 l 85 868 q 93 887 85 877 q 113 897 100 897 l 278 897 q 299 887 292 897 q 306 868 307 877 l 306 98 l 601 98 l 601 868 q 609 887 602 877 q 629 897 616 897 l 793 897 q 814 887 807 897 q 821 868 821 877 l 821 -94 q 814 -112 821 -102 q 793 -122 806 -122 l 601 -122 l 113 -122 q 93 -112 100 -122 q 85 -94 85 -102 z "},"ǚ":{"ha":906,"x_min":85,"x_max":822,"o":"m 527 1027 l 355 1027 q 331 1037 342 1027 q 315 1056 320 1046 l 251 1173 q 249 1191 246 1180 q 266 1202 252 1202 l 383 1202 q 411 1192 397 1202 q 431 1173 425 1182 l 441 1159 l 451 1173 q 471 1192 457 1182 q 498 1202 485 1202 l 616 1202 q 633 1191 629 1202 q 631 1173 636 1180 l 568 1056 q 552 1037 563 1046 q 527 1027 541 1027 m 376 1013 q 397 1003 390 1013 q 404 984 404 993 l 404 941 q 397 923 404 932 q 376 913 390 913 l 212 913 q 191 923 199 913 q 184 941 184 932 l 184 984 q 191 1003 184 993 q 212 1013 199 1013 l 376 1013 m 695 1013 q 716 1003 709 1013 q 723 984 723 993 l 723 941 q 716 923 723 932 q 695 913 709 913 l 530 913 q 510 923 517 913 q 503 941 503 932 l 503 984 q 510 1003 503 993 q 530 1013 517 1013 l 695 1013 m 85 -94 l 85 868 q 93 887 85 877 q 113 897 100 897 l 278 897 q 299 887 292 897 q 306 868 307 877 l 306 98 l 601 98 l 601 868 q 609 887 602 877 q 629 897 616 897 l 793 897 q 814 887 807 897 q 821 868 821 877 l 821 -94 q 814 -112 821 -102 q 793 -122 806 -122 l 601 -122 l 113 -122 q 93 -112 100 -122 q 85 -94 85 -102 z "},"Ǜ":{"ha":906,"x_min":85,"x_max":822,"o":"m 449 1202 q 474 1192 463 1202 q 490 1173 486 1182 l 553 1056 q 555 1038 559 1049 q 538 1027 552 1027 l 368 1027 q 344 1037 355 1027 q 328 1056 333 1046 l 263 1173 q 262 1191 258 1180 q 279 1202 265 1202 l 449 1202 m 376 1013 q 397 1003 390 1013 q 404 984 404 993 l 404 941 q 397 923 404 932 q 376 913 390 913 l 212 913 q 191 923 199 913 q 184 941 184 932 l 184 984 q 191 1003 184 993 q 212 1013 199 1013 l 376 1013 m 695 1013 q 716 1003 709 1013 q 723 984 723 993 l 723 941 q 716 923 723 932 q 695 913 709 913 l 530 913 q 510 923 517 913 q 503 941 503 932 l 503 984 q 510 1003 503 993 q 530 1013 517 1013 l 695 1013 m 85 -94 l 85 868 q 93 887 85 877 q 113 897 100 897 l 278 897 q 299 887 292 897 q 306 868 307 877 l 306 98 l 601 98 l 601 868 q 609 887 602 877 q 629 897 616 897 l 793 897 q 814 887 807 897 q 821 868 821 877 l 821 -94 q 814 -112 821 -102 q 793 -122 806 -122 l 601 -122 l 113 -122 q 93 -112 100 -122 q 85 -94 85 -102 z "},"ǜ":{"ha":906,"x_min":85,"x_max":822,"o":"m 449 1202 q 474 1192 463 1202 q 490 1173 486 1182 l 553 1056 q 555 1038 559 1049 q 538 1027 552 1027 l 368 1027 q 344 1037 355 1027 q 328 1056 333 1046 l 263 1173 q 262 1191 258 1180 q 279 1202 265 1202 l 449 1202 m 376 1013 q 397 1003 390 1013 q 404 984 404 993 l 404 941 q 397 923 404 932 q 376 913 390 913 l 212 913 q 191 923 199 913 q 184 941 184 932 l 184 984 q 191 1003 184 993 q 212 1013 199 1013 l 376 1013 m 695 1013 q 716 1003 709 1013 q 723 984 723 993 l 723 941 q 716 923 723 932 q 695 913 709 913 l 530 913 q 510 923 517 913 q 503 941 503 932 l 503 984 q 510 1003 503 993 q 530 1013 517 1013 l 695 1013 m 85 -94 l 85 868 q 93 887 85 877 q 113 897 100 897 l 278 897 q 299 887 292 897 q 306 868 307 877 l 306 98 l 601 98 l 601 868 q 609 887 602 877 q 629 897 616 897 l 793 897 q 814 887 807 897 q 821 868 821 877 l 821 -94 q 814 -112 821 -102 q 793 -122 806 -122 l 601 -122 l 113 -122 q 93 -112 100 -122 q 85 -94 85 -102 z "},"Ǵ":{"ha":906,"x_min":85,"x_max":821,"o":"m 411 1168 l 582 1168 q 598 1157 595 1168 q 597 1139 602 1146 l 533 988 q 517 969 529 979 q 493 960 506 960 l 322 960 q 306 970 309 960 q 307 988 302 981 l 371 1139 q 387 1158 375 1148 q 411 1168 398 1168 m 306 676 l 306 98 l 600 98 l 600 233 l 521 233 q 502 240 512 233 q 492 260 492 248 l 492 425 q 502 446 492 439 q 521 453 512 453 l 732 453 l 793 453 q 813 443 806 453 q 821 425 821 433 l 821 117 l 821 -94 q 813 -112 821 -102 q 793 -122 806 -122 l 732 -122 l 250 -122 l 113 -122 q 93 -112 100 -122 q 85 -94 85 -102 l 85 868 q 93 887 85 877 q 113 897 100 897 l 174 897 l 661 897 l 793 897 q 813 887 806 897 q 821 868 821 877 l 821 555 q 813 537 821 547 q 793 527 806 527 l 628 527 q 607 537 614 527 q 600 555 600 547 l 600 676 l 306 676 z "},"ǵ":{"ha":906,"x_min":85,"x_max":821,"o":"m 411 1168 l 582 1168 q 598 1157 595 1168 q 597 1139 602 1146 l 533 988 q 517 969 529 979 q 493 960 506 960 l 322 960 q 306 970 309 960 q 307 988 302 981 l 371 1139 q 387 1158 375 1148 q 411 1168 398 1168 m 306 676 l 306 98 l 600 98 l 600 233 l 521 233 q 502 240 512 233 q 492 260 492 248 l 492 425 q 502 446 492 439 q 521 453 512 453 l 732 453 l 793 453 q 813 443 806 453 q 821 425 821 433 l 821 117 l 821 -94 q 813 -112 821 -102 q 793 -122 806 -122 l 732 -122 l 250 -122 l 113 -122 q 93 -112 100 -122 q 85 -94 85 -102 l 85 868 q 93 887 85 877 q 113 897 100 897 l 174 897 l 661 897 l 793 897 q 813 887 806 897 q 821 868 821 877 l 821 555 q 813 537 821 547 q 793 527 806 527 l 628 527 q 607 537 614 527 q 600 555 600 547 l 600 676 l 306 676 z "},"Ș":{"ha":906,"x_min":85,"x_max":821,"o":"m 374 -144 q 544 -144 374 -144 q 561 -155 557 -144 q 559 -172 564 -165 l 495 -323 q 480 -342 492 -332 q 455 -352 469 -352 l 284 -352 q 268 -341 271 -352 q 269 -323 264 -330 l 333 -172 q 349 -154 337 -163 q 374 -144 360 -144 m 600 675 l 306 675 l 306 496 l 521 496 l 732 496 l 793 496 q 813 486 806 496 q 821 467 821 476 l 821 -94 q 813 -112 821 -102 q 793 -122 806 -122 l 732 -122 l 117 -122 q 98 -115 108 -122 q 88 -94 88 -107 l 88 149 q 95 167 88 157 q 116 177 102 177 l 281 177 q 301 167 294 177 q 309 149 309 157 l 309 98 l 600 98 l 600 275 l 174 275 l 113 275 q 93 285 100 275 q 85 304 85 295 l 85 867 q 93 885 85 876 q 113 895 100 895 l 250 895 l 658 895 l 661 895 l 793 895 q 813 885 806 895 q 821 867 821 876 l 821 622 q 813 603 821 613 q 793 593 806 593 l 628 593 q 607 603 614 593 q 600 622 600 613 l 600 675 z "}}}
